SplineFontDB: 3.2
FontName: African
FullName: African
FamilyName: African
Weight: Regular
ItalicAngle: 0
UnderlinePosition: -107.52
UnderlineWidth: 51.2
Ascent: 819
Descent: 205
InvalidEm: 0
LayerCount: 2
Layer: 0 1 "Back" 1
Layer: 1 1 "Fore" 0
XUID: [1021 411 -1907178068 5422485]
OS2Version: 0
OS2_WeightWidthSlopeOnly: 0
OS2_UseTypoMetrics: 0
CreationTime: 1659711556
ModificationTime: 1659711556
PfmFamily: 17
TTFWeight: 400
TTFWidth: 5
LineGap: 92
VLineGap: 92
Panose: 0 0 0 0 0 0 0 0 0 0
OS2TypoAscent: 0
OS2TypoAOffset: 1
OS2TypoDescent: 0
OS2TypoDOffset: 1
OS2TypoLinegap: 92
OS2WinAscent: 0
OS2WinAOffset: 1
OS2WinDescent: 0
OS2WinDOffset: 1
HheadAscent: 0
HheadAOffset: 1
HheadDescent: 0
HheadDOffset: 1
OS2Vendor: 'PfEd'
Lookup: 258 0 0 "'kern' Horizontal Kerning in Latin lookup 0" { "'kern' Horizontal Kerning in Latin lookup 0 subtable"  } ['kern' ('latn' <'dflt' > ) ]
DEI: 91125
Encoding: Custom
UnicodeInterp: none
NameList: AGL For New Fonts
DisplaySize: -48
AntiAlias: 1
FitToEm: 0
WinInfo: 80 16 7
BeginChars: 401 98

StartChar: quotedbl
Encoding: 6 33 3
Width: 346
Flags: W
LayerCount: 2
Fore
SplineSet
252 219 m 1
 244 209 l 1
 247 201 247 201 251 192 c 2
 259 174 l 2
 261 170 261 170 263 166.5 c 0
 265 163 265 163 267 159 c 0
 279 132 279 132 290.5 105 c 0
 302 78 302 78 301 46 c 0
 301 38 301 38 300 28.5 c 0
 299 19 299 19 297 10 c 1
 273 4 273 4 251 -5 c 0
 229 -14 229 -14 207 -26 c 0
 206 -26 206 -26 205.5 -26.5 c 2
 205 -27 l 1
 155 -49 l 1
 103 -67 l 1
 27 135 l 1
 52 153 52 153 82.5 167.5 c 0
 113 182 113 182 144 196 c 0
 145 197 145 197 146.5 197.5 c 0
 148 198 148 198 150 199 c 0
 166 206 166 206 182.5 213 c 0
 199 220 199 220 214 227 c 1
 252 219 l 1
 252 219 l 1
207 77 m 1
 207 88 207 88 198.5 92.5 c 0
 190 97 190 97 179 97 c 2
 177 97 l 1
 175 97 l 2
 169 96 169 96 163 94.5 c 0
 157 93 157 93 152 91 c 0
 151 91 151 91 149 90.5 c 0
 147 90 147 90 146 89 c 2
 146 81 l 1
 147 68 l 1
 150 54 l 1
 155 46 l 2
 159 46 159 46 165 47 c 2
 177 49 l 2
 188 53 188 53 197.5 60 c 0
 207 67 207 67 207 77 c 1
 207 77 l 1
287 773 m 1
 293 727 293 727 294.5 679 c 0
 296 631 296 631 297 582 c 2
 297 542 l 1
 296 501 l 1
 296 480.5 l 1
 296 460 l 1
 296 399.5 l 1
 297 339 l 1
 283 333 283 333 269 326 c 2
 241 312 l 2
 234 309 234 309 227 305.5 c 0
 220 302 220 302 213 299 c 0
 193 289 193 289 172 280.5 c 0
 151 272 151 272 129 268 c 1
 113 325 113 325 100.5 387 c 0
 88 449 88 449 78 511 c 0
 73 538 73 538 69 565 c 0
 65 592 65 592 60 620 c 0
 56 644 56 644 52.5 667 c 0
 49 690 49 690 45 714 c 1
 60 718 60 718 75 721.5 c 0
 90 725 90 725 105 728 c 0
 150 739 150 739 196 750 c 0
 242 761 242 761 287 773 c 1
 287 773 l 1
161 629 m 1
 195 390 l 1
 220 390 l 1
 221 401 221 401 221.5 413 c 0
 222 425 222 425 222 436 c 0
 222 458 222 458 220.5 479 c 0
 219 500 219 500 217 520 c 0
 213 552 213 552 207.5 583.5 c 0
 202 615 202 615 196 647 c 0
 195 648 195 648 193 648 c 2
 189 648 l 1
 185 647.5 l 1
 181 647 l 2
 174 645 174 645 167.5 640.5 c 0
 161 636 161 636 161 631 c 2
 161 630.5 l 1
 161 629 l 1
 161 629 l 1
EndSplineSet
Validated: 524325
EndChar

StartChar: numbersign
Encoding: 7 34 4
Width: 405
Flags: W
LayerCount: 2
Fore
SplineSet
204 718 m 1
 204 711 204 711 203.5 703 c 0
 203 695 203 695 202 688 c 0
 200 649 200 649 195 611 c 0
 190 573 190 573 172 543 c 1
 138 523 138 523 101.5 508.5 c 0
 65 494 65 494 25 492 c 1
 28 517 28 517 30.5 545 c 0
 33 573 33 573 35 603 c 0
 36 620 36 620 36.5 638 c 0
 37 656 37 656 37 673 c 2
 37 696 l 1
 36 718 l 1
 46 721 46 721 56 723 c 0
 66 725 66 725 75 727 c 0
 94 730 94 730 113.5 731.5 c 0
 133 733 133 733 154 735 c 0
 164 736 164 736 174 736.5 c 0
 184 737 184 737 195 738 c 1
 204 718 l 1
 204 718 l 1
112 659 m 1
 112 584 l 1
 115 586 115 586 117.5 588 c 0
 120 590 120 590 123 593 c 0
 127 597 127 597 131 602 c 2
 139 612 l 2
 142 617 142 617 143.5 622 c 0
 145 627 145 627 146 631 c 2
 146 631.5 l 1
 146 632 l 1
 146 632.5 l 1
 146 633 l 2
 146 635 146 635 145.5 637.5 c 0
 145 640 145 640 144 643 c 0
 140 649 140 649 133 654 c 0
 126 659 126 659 118 660 c 2
 115.5 660 l 1
 112 659 l 1
 112 659 l 1
234 722 m 1
 247 723 247 723 261 725.5 c 0
 275 728 275 728 289 730 c 0
 308 734 308 734 328 737 c 0
 348 740 348 740 368 740 c 2
 374 740 l 1
 381 739 l 2
 384 739 384 739 387 738.5 c 0
 390 738 390 738 393 738 c 1
 392 728 392 728 391.5 717.5 c 0
 391 707 391 707 391 696 c 0
 390 688 390 688 389.5 680 c 0
 389 672 389 672 389 665 c 0
 386 622 386 622 373.5 583.5 c 0
 361 545 361 545 321 522 c 0
 313 520 313 520 304 517.5 c 0
 295 515 295 515 287 513 c 2
 279 511 l 1
 272 509 l 2
 257 505 257 505 242 502 c 0
 227 499 227 499 213 499 c 0
 208 499 208 499 203 499.5 c 0
 198 500 198 500 193 501 c 1
 219 543 219 543 224.5 594 c 0
 230 645 230 645 233 698 c 2
 233 704 l 1
 233 709 l 2
 234 712 234 712 234 715.5 c 2
 234 722 l 1
 234 722 l 1
314 665 m 1
 297 664 297 664 292.5 650.5 c 0
 288 637 288 637 288 622 c 2
 288 613 l 1
 288 603 l 1
 288 597 l 1
 288 592 l 1
 288.5 591.5 l 2
 289 591 289 591 290 591 c 2
 291.5 591 l 1
 292 591 l 2
 295 592 295 592 296.5 593.5 c 2
 300 597 l 2
 301 597 301 597 301 597.5 c 0
 301 598 301 598 302 599 c 2
 302.5 599.5 l 1
 304 601 l 2
 309 611 309 611 313 622.5 c 0
 317 634 317 634 317 646 c 0
 317 651 317 651 316.5 655.5 c 0
 316 660 316 660 314 665 c 1
 314 665 l 1
EndSplineSet
Validated: 524293
EndChar

StartChar: percent
Encoding: 9 36 6
Width: 540
Flags: W
LayerCount: 2
Fore
SplineSet
456.29918 790.43359 m 1
 410.181125991 779.06425781 410.181125991 779.06425781 386.28584 785.0434 c 1
 394.086402263 753.396476665 394.086402263 753.396476665 384.77366 719.10676 c 1
 297.222852752 732.720862069 297.222852752 732.720862069 266.18241 730.60749 c 0
 238.37430762 728.71420939 238.37430762 728.71420939 170.85615 697.71443 c 1
 162.897878923 752.618113748 162.897878923 752.618113748 173.18912 782.35906 c 1
 167.2809532 781.298570037 167.2809532 781.298570037 154.836919824 778.311144305 c 0
 142.392886449 775.323718572 142.392886449 775.323718572 135.037577504 773.960991477 c 0
 127.682268558 772.598264381 127.682268558 772.598264381 117.167745856 772.993832117 c 0
 106.653223153 773.389399853 106.653223153 773.389399853 97.850791 777.03158 c 1
 98.0857978388 775.165494552 98.0857978388 775.165494552 99.3432046221 765.381301083 c 0
 100.600611406 755.597107615 100.600611406 755.597107615 100.892456658 753.071685667 c 0
 101.18430191 750.546263719 101.18430191 750.546263719 102.144688682 741.641172383 c 0
 103.105075454 732.736081048 103.105075454 732.736081048 103.207903938 729.331548867 c 0
 103.310732422 725.927016685 103.310732422 725.927016685 103.697453222 717.901030483 c 0
 104.084174023 709.875044282 104.084174023 709.875044282 103.721339778 705.591404867 c 0
 103.358505533 701.307765451 103.358505533 701.307765451 102.894914402 694.160887383 c 0
 102.431323271 687.014009316 102.431323271 687.014009316 101.326180338 681.851265667 c 0
 100.221037404 676.688522017 100.221037404 676.688522017 98.6304883821 670.420755083 c 0
 97.0399393599 664.152988149 97.0399393599 664.152988149 94.885051 658.33092 c 1
 61.8385356312 638.732329441 61.8385356312 638.732329441 52.602511 628.14907 c 0
 40.0514270468 616.78844908 40.0514270468 616.78844908 32.264841 605.26765 c 0
 24.4771615197 593.745222544 24.4771615197 593.745222544 20.727358 583.04028 c 0
 12.1546405 558.56685 12.1546405 558.56685 18.750196 533.03407 c 0
 23.0273021861 516.47311812 23.0273021861 516.47311812 89.299268 434.82796 c 1
 99.1559127706 334.799423649 99.1559127706 334.799423649 84.750583 252.78001 c 1
 43.7372786356 255.960091022 43.7372786356 255.960091022 5.5610366 262.35799 c 0
 -1.50135380909 263.805535678 -1.50135380909 263.805535678 -9.4738792 264.85955 c 0
 -17.4216763445 265.91029457 -17.4216763445 265.91029457 -24.508794 267.36291 c 1
 -24.7018874934 234.361652502 -24.7018874934 234.361652502 -16.171562 202.47455 c 0
 -7.640804 170.585855 -7.640804 170.585855 2.6822254 139.48924 c 0
 6.05438516697 131.864139595 6.05438516697 131.864139595 8.929084 124.87766 c 0
 11.7946901003 117.913176319 11.7946901003 117.913176319 13.762818 110.55639 c 0
 16.772205313 101.809682459 16.772205313 101.809682459 18.994816 94.12419 c 0
 21.2151113448 86.4470864252 21.2151113448 86.4470864252 23.709273 78.37649 c 1
 36.2971351119 71.917482262 36.2971351119 71.917482262 80.159445 69.03151 c 1
 78.192393 -9.6459 l 1
 151.38779 -8.4597 l 1
 153.47614 67.26646 l 1
 280.999672952 67.7352444668 280.999672952 67.7352444668 313.50489 79.07717 c 0
 341.760705705 88.9363828949 341.760705705 88.9363828949 370.59187 101.08234 c 1
 368.01631 -11.2032 l 1
 436.03832 -10.0025 l 1
 439.70761 134.94664 l 1
 446.804598579 139.590231469 446.804598579 139.590231469 451.89607 143.66987 c 0
 458.577316291 149.02335838 458.577316291 149.02335838 485.245868146 201.715958456 c 0
 511.91442 254.408558533 511.91442 254.408558533 511.91442 261.67884 c 0
 511.91442 290.181650848 511.91442 290.181650848 497.42332 316.7061 c 0
 489.709554173 330.825341685 489.709554173 330.825341685 445.724 372.68308 c 1
 449.199089168 406.261549359 449.199089168 406.261549359 447.32846625 456.60107625 c 0
 445.457843332 506.940603141 445.457843332 506.940603141 449.32252 514.79738 c 1
 491.120238979 500.01938429 491.120238979 500.01938429 524.49305 479.53357 c 1
 547.48916 484.24819 l 1
 532.30869 683.60281 l 2
 531.04913015 684.159070641 531.04913015 684.159070641 529.64013 685.10626 c 0
 528.242977569 686.045519877 528.242977569 686.045519877 526.96955 686.60792 c 0
 510.610453637 695.016974986 510.610453637 695.016974986 454.17849 706.65627 c 1
 448.217810421 715.2230279 448.217810421 715.2230279 446.822432694 726.720593689 c 0
 445.427054967 738.218159478 445.427054967 738.218159478 446.644146681 746.120172405 c 0
 447.861238395 754.022185331 447.861238395 754.022185331 451.544600194 769.343545876 c 0
 455.227961993 784.664906422 455.227961993 784.664906422 456.29918 790.43359 c 1
411.716 756.24316 m 1
 417.137853579 755.983644905 417.137853579 755.983644905 432.53484 755.24683 c 1
 426.436103757 728.009301836 426.436103757 728.009301836 430.08928625 659.59296375 c 0
 433.742468743 591.176625664 433.742468743 591.176625664 430.61023 563.5976 c 0
 417.040577163 444.117905205 417.040577163 444.117905205 425.59253 379.59283 c 0
 428.810234871 338.880558635 428.810234871 338.880558635 428.253110741 318.436756667 c 0
 427.69598661 297.992954699 427.69598661 297.992954699 424.415129259 257.013376667 c 0
 421.134271908 216.033798635 421.134271908 216.033798635 420.57685 195.58987 c 0
 419.735201339 164.721680387 419.735201339 164.721680387 418.062445097 103.384753891 c 0
 416.389688854 42.0478273945 416.389688854 42.0478273945 415.55914 11.5869 c 1
 412.298100561 11.5308299832 412.298100561 11.5308299832 406.000414649 11.4285873425 c 0
 399.702728737 11.3263447018 399.702728737 11.3263447018 396.69727 11.2751 c 1
 401.23383 194.98777 l 2
 401.73792076 215.399915831 401.73792076 215.399915831 404.162319259 256.25579 c 0
 406.586717759 297.111664169 406.586717759 297.111664169 407.090730741 317.52381 c 0
 407.594743723 337.935955831 407.594743723 337.935955831 405.77038 378.70045 c 0
 402.707163952 393.238629704 402.707163952 393.238629704 403.897439688 428.937594531 c 0
 405.087715423 464.636559359 405.087715423 464.636559359 405.59608 475.14043375 c 0
 406.104444577 485.644308141 406.104444577 485.644308141 409.230657813 519.072503594 c 0
 412.356871048 552.500699046 412.356871048 552.500699046 413.16553 562.49734 c 0
 415.493695854 591.278085022 415.493695854 591.278085022 411.70021875 659.48082 c 0
 407.906741646 727.683554978 407.906741646 727.683554978 411.716 756.24137 c 1
 411.716 756.24316 l 1
145.80403 747.60058 m 1
 142.514544863 626.955157742 142.514544863 626.955157742 135.824117327 381.554713955 c 0
 129.133689791 136.154270169 129.133689791 136.154270169 125.73725 11.5869 c 1
 122.476200628 11.5308299016 122.476200628 11.5308299016 116.178518792 11.4285872458 c 0
 109.880836956 11.3263445899 109.880836956 11.3263445899 106.87538 11.2751 c 1
 109.872829988 132.650032046 109.872829988 132.650032046 115.922798712 377.619344889 c 0
 121.972767436 622.588657732 121.972767436 622.588657732 125.02361 746.12579 c 1
 125.02361 746.12779 l 1
 128.371359932 746.365253245 128.371359932 746.365253245 135.304751856 746.856530541 c 0
 142.23814378 747.347807837 142.23814378 747.347807837 145.80403 747.60078 c 1
 145.80403 747.60058 l 1
323.05712 640.458 m 0
 341.412198707 640.222524785 341.412198707 640.222524785 382.87131 636.20031 c 1
 382.41037 616.15733 l 1
 372.674982152 616.490493636 372.674982152 616.490493636 344.6294525 616.175485 c 0
 316.583922848 615.860476364 316.583922848 615.860476364 313.39167 615.55524 c 0
 312.389027023 615.459367719 312.389027023 615.459367719 297.25336716 615.14384735 c 0
 282.117707297 614.828326981 282.117707297 614.828326981 267.77996284 614.21458265 c 0
 253.442218383 613.600838319 253.442218383 613.600838319 251.87124 612.71679 c 0
 231.515369719 600.494303474 231.515369719 600.494303474 214.52552 587.17251 c 0
 197.535875 573.850875 197.535875 573.850875 190.10821 555.70047 c 0
 184.070905 532.346775 184.070905 532.346775 187.39718 506.66371 c 0
 188.630931589 497.139468584 188.630931589 497.139468584 219.667393628 471.593924632 c 0
 250.703855666 446.048380679 250.703855666 446.048380679 254.54586 439.54079 c 0
 258.677472804 433.219895415 258.677472804 433.219895415 262.82649 426.47567 c 0
 266.957364388 419.760960036 266.957364388 419.760960036 271.10712 413.41234 c 0
 277.84073186 402.595603725 277.84073186 402.595603725 316.490090848 365.509197007 c 0
 355.139449836 328.42279029 355.139449836 328.42279029 361.31054 317.49813 c 0
 370.298228634 301.587248126 370.298228634 301.587248126 374.83326 285.92215 c 2
 373.78404 240.13062 l 1
 363.104229533 222.627727409 363.104229533 222.627727409 340.045494791 200.777809629 c 0
 316.986760049 178.927891849 316.986760049 178.927891849 303.26732 173.19585 c 0
 290.431349947 167.832930101 290.431349947 167.832930101 242.978559695 160.209950389 c 0
 195.525769443 152.586970678 195.525769443 152.586970678 155.77272 150.59755 c 1
 156.19928 166.04417 l 1
 193.443960454 169.892635289 193.443960454 169.892635289 235.120815005 178.15781441 c 0
 276.797669556 186.422993531 276.797669556 186.422993531 287.32671 191.6655 c 0
 303.278737507 199.608148159 303.278737507 199.608148159 326.342933753 223.824184726 c 0
 349.40713 248.040221293 349.40713 248.040221293 349.40713 259.30271 c 0
 349.40713 283.05593 349.40713 283.05593 338.53882 306.01711 c 0
 334.635019905 314.264657022 334.635019905 314.264657022 299.992317147 345.001678159 c 0
 265.34961439 375.738699297 265.34961439 375.738699297 260.75634 382.53164 c 2
 250.40554 396.78483 l 1
 240.05477 411.03621 l 2
 234.36924824 419.299495651 234.36924824 419.299495651 204.400373534 444.272006276 c 0
 174.431498828 469.244516901 174.431498828 469.244516901 164.85795 480.16433 c 1
 163.037294829 486.803092159 163.037294829 486.803092159 161.940715377 493.423801309 c 0
 160.844135924 500.044510459 160.844135924 500.044510459 160.774293749 507.924163064 c 0
 160.704451573 515.803815669 160.704451573 515.803815669 160.658330129 520.770014895 c 0
 160.612208684 525.736214121 160.612208684 525.736214121 161.749947626 535.270379799 c 0
 162.887686568 544.804545476 162.887686568 544.804545476 163.291626047 548.116229181 c 0
 163.695565526 551.427912885 163.695565526 551.427912885 165.440488501 562.616586038 c 0
 167.185411475 573.80525919 167.185411475 573.80525919 167.49618 575.87605 c 0
 172.086131571 583.392132095 172.086131571 583.392132095 177.42648 589.85865 c 0
 190.45278 605.632065 190.45278 605.632065 212.61105 619.94374 c 0
 217.209204282 621.355530497 217.209204282 621.355530497 251.805954045 628.237350681 c 0
 286.402703808 635.119170865 286.402703808 635.119170865 291.43266 635.71111 c 0
 300.947445 636.83086 300.947445 636.83086 310.46231 639.63011 c 0
 311.926145 639.63011 311.926145 639.63011 313.02373 639.90965 c 0
 314.120104668 640.1892 314.120104668 640.1892 315.58719 640.1892 c 0
 317.622724426 640.527701191 317.622724426 640.527701191 323.05712 640.458 c 0
344.46222 542.83784 m 0
 357.835315023 542.414473876 357.835315023 542.414473876 380.57067 535.98901 c 1
 382.388579033 520.348203808 382.388579033 520.348203808 378.420094644 484.186976149 c 0
 374.451610256 448.025748489 374.451610256 448.025748489 378.03757 425.59583 c 1
 373.119765127 427.995536772 373.119765127 427.995536772 362.214551894 432.915108702 c 0
 351.309338661 437.834680632 351.309338661 437.834680632 344.716314426 441.106966738 c 0
 338.123290192 444.379252843 338.123290192 444.379252843 330.206353174 448.964248062 c 0
 322.289416155 453.549243282 322.289416155 453.549243282 317.896956506 458.166904498 c 0
 313.504496858 462.784565713 313.504496858 462.784565713 312.45162 467.50778 c 0
 305.36754199 499.286897378 305.36754199 499.286897378 313.08439 530.49488 c 1
 322.73585208 543.525689103 322.73585208 543.525689103 344.46222 542.83784 c 0
161.21294 347.91651 m 1
 212.77681 294.023981759 212.77681 294.023981759 212.77681 279.88865 c 2
 212.77681 277.11829 l 1
 212.77681 274.34614 l 1
 210.70665 271.57579 l 1
 210.70665 268.80364 l 2
 209.255109279 252.148061053 209.255109279 252.148061053 158.52013 250.2874 c 1
 163.28634189 287.257417712 163.28634189 287.257417712 161.21294 347.91651 c 1
EndSplineSet
Validated: 524329
EndChar

StartChar: ampersand
Encoding: 10 37 7
Width: 752
Flags: W
LayerCount: 2
Fore
SplineSet
572.61507 357.92937 m 0
 587.47268 358.99063 587.47268 358.99063 603.92217 358.45999 c 0
 620.37164 357.92937 620.37164 357.92937 636.29048 355.80685 c 0
 638.41299 355.80685 638.41299 355.80685 640.53551 355.27623 c 0
 642.65802 354.7456 642.65802 354.7456 644.78054 354.7456 c 0
 680.86326 348.37805 680.86326 348.37805 711.10908 328.74481 c 0
 741.35491 309.11156 741.35491 309.11156 754.08996 267.72254 c 1
 763.64129 250.74243 763.64129 250.74243 764.70254 231.63983 c 0
 765.7638 212.53721 765.7638 212.53721 762.58002 194.49585 c 2
 760.45751 183.88329 l 1
 758.33502 174.33197 l 2
 754.08996 158.41311 754.08996 158.41311 747.19181 142.49425 c 0
 740.29364 126.57541 740.29364 126.57541 733.9261 112.77909 c 0
 732.86483 111.71782 732.86483 111.71782 732.86483 110.65656 c 0
 732.86483 109.59531 732.86483 109.59531 731.80359 108.53406 c 0
 710.57845 83.06391 710.57845 83.06391 680.86326 64.49189 c 0
 651.14806 45.91991 651.14806 45.91991 619.31038 48.04241 c 1
 577.92137 56.53247 577.92137 56.53247 540.7774 71.39008 c 0
 503.63341 86.24769 503.63341 86.24769 484.53078 127.63666 c 1
 468.61193 150.98431 468.61193 150.98431 464.89754 177.51575 c 0
 461.18314 204.04716 461.18314 204.04716 464.36691 231.63983 c 0
 464.36691 232.70107 464.36691 232.70107 464.89754 233.76233 c 2
 465.42815 234.8236 l 2
 467.55069 245.43616 467.55069 245.43616 470.20381 254.98747 c 0
 472.85696 264.53877 472.85696 264.53877 476.04074 274.0901 c 0
 490.89833 304.86654 490.89833 304.86654 515.83783 327.15292 c 0
 540.7774 349.43932 540.7774 349.43932 572.61507 357.92937 c 0
715.88475 259.2325 m 0
 703.14965 279.39636 703.14965 279.39636 687.76143 292.66209 c 0
 672.37321 305.92779 672.37321 305.92779 653.2706 314.41785 c 0
 647.96429 316.54036 647.96429 316.54036 642.12739 318.13224 c 0
 636.29048 319.72413 636.29048 319.72413 629.92295 320.78539 c 0
 612.94285 323.96916 612.94285 323.96916 595.96272 321.31601 c 0
 578.98262 318.66286 578.98262 318.66286 564.12503 309.11156 c 0
 539.71612 295.31523 539.71612 295.31523 524.32791 272.49822 c 0
 508.93969 249.6812 508.93969 249.6812 503.63341 221.02725 c 0
 502.57213 217.84348 502.57213 217.84348 502.57213 214.65971 c 0
 502.57213 211.47594 502.57213 211.47594 501.5109 208.29217 c 0
 500.44963 205.10842 500.44963 205.10842 500.98025 201.39402 c 0
 501.5109 197.67964 501.5109 197.67964 501.5109 194.49585 c 0
 505.75591 159.47437 505.75591 159.47437 528.0423 132.41233 c 0
 550.32869 105.35028 550.32869 105.35028 582.16639 95.79898 c 0
 585.35017 94.73771 585.35017 94.73771 588.00331 94.2071 c 0
 590.65644 93.67645 590.65644 93.67645 593.84021 93.67645 c 0
 627.80043 87.30889 627.80043 87.30889 659.63813 100.57462 c 0
 691.47583 113.84033 691.47583 113.84033 712.70097 143.55552 c 0
 716.94597 153.10683 716.94597 153.10683 720.12975 163.18877 c 0
 723.31353 173.2707 723.31353 173.2707 724.37479 183.88329 c 0
 727.55855 204.04716 727.55855 204.04716 725.96668 223.14978 c 0
 724.37479 242.25239 724.37479 242.25239 715.88475 259.2325 c 0
646.29262 294.34239 m 2
 660.5362 289.59453 660.5362 289.59453 671.93105 278.19967 c 0
 683.32591 266.80482 683.32591 266.80482 691.87205 254.46039 c 2
 693.7712 252.56125 l 1
 694.72076 250.6621 l 2
 701.36776 235.46896 701.36776 235.46896 704.21648 218.37668 c 0
 707.06519 201.2844 707.06519 201.2844 703.2669 185.14168 c 0
 702.31735 182.29296 702.31735 182.29296 701.84255 178.96947 c 0
 701.36776 175.64597 701.36776 175.64597 700.4182 172.79725 c 2
 698.51905 167.09982 l 1
 696.61992 161.40239 l 2
 685.22505 138.61269 685.22505 138.61269 662.43533 125.79348 c 0
 639.64562 112.97426 639.64562 112.97426 615.90634 112.97426 c 2
 612.10805 112.97426 l 1
 608.30977 112.97426 l 1
 607.36021 112.97426 l 1
 606.41063 112.97426 l 1
 605.46106 112.97426 l 1
 604.51149 112.97426 l 2
 602.61235 112.97426 602.61235 112.97426 599.76364 113.92383 c 0
 596.91491 114.8734 596.91491 114.8734 595.01576 114.8734 c 0
 572.22606 121.52039 572.22606 121.52039 552.75985 137.6631 c 0
 533.29364 153.80583 533.29364 153.80583 525.69706 179.44425 c 0
 522.84835 187.9904 522.84835 187.9904 522.84835 197.96089 c 0
 522.84835 207.93139 522.84835 207.93139 524.7475 218.37668 c 0
 524.7475 219.32625 524.7475 219.32625 525.22228 221.22539 c 0
 525.69706 223.12454 525.69706 223.12454 525.69706 224.0741 c 0
 528.54579 237.36811 528.54579 237.36811 535.19278 249.23774 c 0
 541.83977 261.10739 541.83977 261.10739 550.38591 270.6031 c 0
 568.42777 286.74581 568.42777 286.74581 588.36877 294.81716 c 0
 608.30977 302.88852 608.30977 302.88852 630.14991 299.09024 c 0
 631.0995 299.09024 631.0995 299.09024 632.52385 298.61546 c 0
 633.9482 298.14067 633.9482 298.14067 634.89777 298.14067 c 2
 640.5952 296.24153 l 1
 646.29262 294.34239 l 2
668.22652 221.14714 m 0
 663.78481 237.13725 663.78481 237.13725 651.79225 247.79731 c 0
 639.79964 258.45736 639.79964 258.45736 624.6979 262.01075 c 0
 623.80955 262.01075 623.80955 262.01075 623.36538 262.4549 c 0
 622.92122 262.89909 622.92122 262.89909 622.03288 262.89909 c 0
 612.26113 264.67576 612.26113 264.67576 602.93358 262.89909 c 0
 593.60602 261.1224 593.60602 261.1224 584.72263 254.90401 c 0
 574.9509 247.79731 574.9509 247.79731 568.28837 238.46975 c 0
 561.6258 229.14218 561.6258 229.14218 559.84912 216.70543 c 0
 558.9608 213.15208 558.9608 213.15208 558.9608 209.59873 c 2
 558.9608 201.60368 l 1
 564.29083 184.72524 564.29083 184.72524 575.39506 169.17929 c 0
 586.49931 153.63336 586.49931 153.63336 603.37775 149.19166 c 0
 616.70283 147.41498 616.70283 147.41498 628.25126 151.85669 c 0
 639.79964 156.29836 639.79964 156.29836 651.34806 164.29342 c 0
 658.45478 169.62347 658.45478 169.62347 662.89646 177.61851 c 0
 667.33818 185.61357 667.33818 185.61357 669.11485 194.49696 c 0
 670.0032 200.71533 670.0032 200.71533 670.0032 207.82205 c 0
 670.0032 214.92876 670.0032 214.92876 668.22652 221.14714 c 0
313.2117 581.74668 m 0
 307.93378 564.85739 307.93378 564.85739 301.6003 547.96813 c 0
 295.26683 531.07883 295.26683 531.07883 286.8222 514.18955 c 2
 284.71103 509.96723 l 1
 282.59988 505.74491 l 2
 263.59942 469.8552 263.59942 469.8552 234.04319 443.99348 c 0
 204.48695 418.13178 204.48695 418.13178 162.26375 418.13178 c 1
 143.26333 413.90947 143.26333 413.90947 125.31845 418.65959 c 0
 107.3736 423.4097 107.3736 423.4097 91.539904 432.90989 c 0
 87.317586 436.07664 87.317586 436.07664 83.095266 438.71559 c 0
 78.872946 441.35454 78.872946 441.35454 74.650627 444.52127 c 0
 60.928086 455.07709 60.928086 455.07709 48.78892 466.68846 c 0
 36.649751 478.29984 36.649751 478.29984 27.149531 489.91122 c 0
 26.09395 490.9668 26.09395 490.9668 25.038372 491.49459 c 0
 23.982792 492.02238 23.982792 492.02238 23.982792 493.07795 c 0
 8.149091 523.68976 8.149091 523.68976 2.343403 561.69066 c 0
 -3.4622864 599.69154 -3.4622864 599.69154 10.260252 633.47008 c 1
 33.483011 675.69326 33.483011 675.69326 60.928086 709.47185 c 0
 88.373167 743.25039 88.373167 743.25039 132.70752 750.63946 c 1
 160.1526 760.13969 160.1526 760.13969 186.5421 755.38956 c 0
 212.93159 750.63946 212.93159 750.63946 236.15436 737.97251 c 0
 237.20993 736.91692 237.20993 736.91692 238.26551 736.38912 c 2
 239.32109 735.86133 l 2
 247.76573 730.58343 247.76573 730.58343 256.21037 724.24997 c 0
 264.65502 717.91648 264.65502 717.91648 270.98849 711.583 c 0
 293.15568 686.24909 293.15568 686.24909 304.76705 652.47052 c 0
 316.37843 618.69196 316.37843 618.69196 313.2117 581.74668 c 0
168.59724 461.41056 m 0
 191.82002 467.74403 191.82002 467.74403 209.76486 479.8832 c 0
 227.70971 492.02238 227.70971 492.02238 242.48783 509.96723 c 0
 246.71014 515.24514 246.71014 515.24514 250.40469 520.52303 c 0
 254.09921 525.80093 254.09921 525.80093 257.26594 532.13441 c 0
 266.76617 549.02368 266.76617 549.02368 270.46069 568.55193 c 0
 274.15522 588.08014 274.15522 588.08014 270.98849 607.08059 c 0
 267.82176 636.63682 267.82176 636.63682 251.98805 660.91516 c 0
 236.15436 685.1935 236.15436 685.1935 212.93159 699.97161 c 0
 209.76486 702.08278 209.76486 702.08278 206.59811 703.13837 c 0
 203.43139 704.19394 203.43139 704.19394 201.32022 705.24952 c 0
 198.15348 707.36067 198.15348 707.36067 194.98672 708.41626 c 2
 188.65325 710.52741 l 2
 154.8747 717.91648 154.8747 717.91648 122.15173 702.61056 c 0
 89.428747 687.30465 89.428747 687.30465 68.317149 656.69285 c 0
 66.205988 653.5261 66.205988 653.5261 64.622617 650.88714 c 0
 63.039248 648.2482 63.039248 648.2482 60.928086 646.13703 c 0
 41.92765 611.3029 41.92765 611.3029 42.983231 573.30203 c 0
 44.03881 535.30116 44.03881 535.30116 64.094827 502.57818 c 0
 71.483886 495.18911 71.483886 495.18911 79.400736 488.32784 c 0
 87.317586 481.46658 87.317586 481.46658 95.762225 476.18869 c 0
 112.65151 465.63288 112.65151 465.63288 131.12416 461.93835 c 0
 149.59679 458.24381 149.59679 458.24381 168.59724 461.41056 c 0
228.2688 522.45886 m 0
 218.63668 508.01069 218.63668 508.01069 203.70692 499.34179 c 0
 188.77715 490.6729 188.77715 490.6729 173.36576 485.85683 c 0
 172.40255 484.89363 172.40255 484.89363 170.95773 484.89363 c 0
 169.51292 484.89363 169.51292 484.89363 168.54971 483.93042 c 0
 152.17512 481.04079 152.17512 481.04079 135.31893 484.41203 c 0
 118.46273 487.78327 118.46273 487.78327 103.05135 497.41538 c 0
 100.16172 499.34179 100.16172 499.34179 98.235294 500.78662 c 0
 96.308872 502.23143 96.308872 502.23143 93.419239 504.15786 c 0
 90.529605 506.08428 90.529605 506.08428 88.603183 508.01069 c 0
 86.676761 509.93713 86.676761 509.93713 84.750339 512.82676 c 0
 67.412538 533.05419 67.412538 533.05419 64.041299 561.95053 c 0
 60.670059 590.84685 60.670059 590.84685 69.338959 615.89034 c 0
 70.302171 617.81677 70.302171 617.81677 70.783777 620.2248 c 0
 71.265381 622.63282 71.265381 622.63282 72.228594 624.55924 c 2
 72.710198 625.04086 l 2
 73.191805 625.52246 73.191805 625.52246 73.191805 626.48567 c 0
 73.191805 627.44888 73.191805 627.44888 73.67341 627.44888 c 0
 74.155015 627.44888 74.155015 627.44888 74.155015 628.4121 c 2
 76.563043 633.22815 l 1
 79.934283 638.0442 l 2
 94.38245 661.16126 94.38245 661.16126 117.01791 676.57265 c 0
 139.65337 691.98403 139.65337 691.98403 166.62329 691.02082 c 0
 176.25539 691.02082 176.25539 691.02082 185.4059 688.13119 c 0
 194.55641 685.24156 194.55641 685.24156 203.22532 680.42549 c 0
 204.18852 679.46228 204.18852 679.46228 205.63333 678.49907 c 0
 207.07816 677.53586 207.07816 677.53586 208.04136 676.57265 c 0
 218.63668 668.86696 218.63668 668.86696 227.78718 657.79002 c 0
 236.9377 646.7131 236.9377 646.7131 241.75376 635.15456 c 0
 250.42265 610.11109 250.42265 610.11109 250.42265 586.0308 c 0
 250.42265 561.95053 250.42265 561.95053 238.86412 538.83345 c 0
 237.90091 537.87024 237.90091 537.87024 236.9377 536.42543 c 0
 235.97448 534.98061 235.97448 534.98061 235.01127 533.05419 c 0
 233.08486 530.16455 233.08486 530.16455 231.64003 527.75653 c 0
 230.19522 525.34849 230.19522 525.34849 228.2688 522.45886 c 0
150.74612 522.57075 m 0
 167.05644 521.66463 167.05644 521.66463 182.00757 531.179 c 0
 196.95869 540.69333 196.95869 540.69333 206.01998 556.09753 c 0
 206.01998 557.00367 206.01998 557.00367 206.92612 557.45672 c 0
 207.83226 557.90978 207.83226 557.90978 207.83226 559.72205 c 0
 213.26902 569.68947 213.26902 569.68947 215.08128 580.56302 c 0
 216.89354 591.43656 216.89354 591.43656 215.08128 602.3101 c 0
 212.36291 614.99591 212.36291 614.99591 205.56692 625.4164 c 0
 198.77095 635.83688 198.77095 635.83688 188.80354 642.17979 c 0
 186.08515 643.99204 186.08515 643.99204 182.46063 645.80431 c 0
 178.83613 647.61655 178.83613 647.61655 174.30547 648.52268 c 0
 156.1829 648.52268 156.1829 648.52268 137.1542 641.27366 c 0
 118.12548 634.02463 118.12548 634.02463 108.15805 617.71432 c 0
 101.81516 604.12237 101.81516 604.12237 101.36209 589.6243 c 0
 100.90903 575.12625 100.90903 575.12625 103.62742 560.62818 c 0
 105.43968 550.66076 105.43968 550.66076 111.78256 543.41172 c 0
 118.12548 536.16269 118.12548 536.16269 126.28064 531.63204 c 0
 131.7174 528.00753 131.7174 528.00753 138.06032 525.7422 c 0
 144.40322 523.47688 144.40322 523.47688 150.74612 522.57075 c 0
743 753 m 1
 737 725 l 1
 614 565 614 565 514.5 393.5 c 0
 415 222 415 222 327 48 c 1
 301 42 301 42 276 39.5 c 0
 251 37 251 37 225 38 c 0
 213 38 213 38 201 38.5 c 0
 189 39 189 39 177 39 c 0
 171 40 171 40 165 40 c 0
 159 40 159 40 153 41 c 0
 135 41 135 41 116.5 42 c 0
 98 43 98 43 81 43 c 0
 63 43 63 43 45 41.5 c 0
 27 40 27 40 9 37 c 1
 -1 48 l 1
 30 93 30 93 60.5 138 c 0
 91 183 91 183 122 228 c 0
 129 238 129 238 136 249 c 0
 143 260 143 260 151 270 c 0
 231 386 231 386 309.5 503 c 0
 388 620 388 620 459 740 c 1
 499 744 499 744 541 747.5 c 0
 583 751 583 751 625 753 c 0
 641 753 641 753 658 753.5 c 0
 675 754 675 754 691 754 c 2
 717 754 l 1
 743 753 l 1
250 158 m 2
 558 647 l 1
 522 647 l 1
 309 309 l 2
 300 293 300 293 290 278.5 c 0
 280 264 280 264 269 250 c 0
 265 245 265 245 262 240.5 c 0
 259 236 259 236 255 231 c 0
 241 211 241 211 228 191 c 0
 215 171 215 171 207 147 c 1
 215 147 215 147 223 149.5 c 0
 231 152 231 152 240 155 c 0
 242 156 242 156 244.5 156.5 c 0
 247 157 247 157 250 158 c 2
EndSplineSet
Validated: 524321
EndChar

StartChar: quotesingle
Encoding: 11 38 8
Width: 780
Flags: W
LayerCount: 2
Fore
SplineSet
356 755 m 1
 361 755 l 1
 365 755 l 2
 410 755 410 755 444.5 728 c 0
 479 701 479 701 508 670 c 0
 516 661 516 661 524 651.5 c 0
 532 642 532 642 541 634 c 1
 540 600 540 600 521.5 576.5 c 0
 503 553 503 553 479 531 c 0
 477 529 477 529 474 526.5 c 0
 471 524 471 524 468 521 c 0
 458 512 458 512 447.5 502 c 0
 437 492 437 492 428 480 c 1
 435 461 435 461 451.5 442.5 c 0
 468 424 468 424 486 409 c 0
 492 403 492 403 499 397 c 0
 506 391 506 391 512 386 c 1
 539 392 539 392 563.5 405.5 c 0
 588 419 588 419 610 434 c 0
 611 435 611 435 612 435.5 c 0
 613 436 613 436 614 436 c 0
 633 449 633 449 653.5 461.5 c 0
 674 474 674 474 696 481 c 1
 698 477 698 477 699.5 473.5 c 0
 701 470 701 470 702 466 c 0
 712 443 712 443 720 418.5 c 0
 728 394 728 394 728 370 c 2
 728 365 l 1
 728 360 l 1
 617 276 l 1
 617 252 l 2
 619 249 619 249 622 246.5 c 0
 625 244 625 244 627 241 c 0
 631 237 631 237 635 232 c 0
 639 227 639 227 643 223 c 0
 665 200 665 200 682.5 176 c 0
 700 152 700 152 700 124 c 1
 672 94 672 94 641.5 72 c 0
 611 50 611 50 580 30 c 0
 577 29 577 29 574.5 27.5 c 0
 572 26 572 26 570 25 c 0
 568 23 568 23 565.5 21 c 0
 563 19 563 19 561 18 c 2
 538 18 l 1
 428 146 l 1
 405 142 405 142 382.5 129 c 0
 360 116 360 116 339 101 c 0
 332 96 332 96 325 92 c 0
 318 88 318 88 312 84 c 0
 293 72 293 72 274 63 c 0
 255 54 255 54 236 54 c 0
 219 54 219 54 200 63 c 0
 181 72 181 72 163 93 c 0
 156 103 156 103 147 113.5 c 0
 138 124 138 124 128 133 c 0
 123 139 123 139 117 145.5 c 0
 111 152 111 152 104 157 c 0
 74 187 74 187 50 218.5 c 0
 26 250 26 250 26 287 c 0
 26 298 26 298 29 309.5 c 0
 32 321 32 321 37 333 c 2
 163 481 l 1
 158 493 158 493 150 505.5 c 0
 142 518 142 518 134 529 c 2
 132.5 530.5 l 1
 132 532 l 1
 119 549 119 549 108.5 568 c 0
 98 587 98 587 98 608 c 2
 98 610 l 1
 99 613 l 1
 99 615 l 1
 99 617 l 1
 144 666 144 666 201 693 c 0
 258 720 258 720 317 740 c 0
 320 742 320 742 323.5 743 c 0
 327 744 327 744 331 745 c 0
 337 747 337 747 343.5 750 c 0
 350 753 350 753 356 755 c 1
 356 755 l 1
457 617 m 1
 451 631 451 631 439 644 c 0
 427 657 427 657 415 668 c 0
 411 671 411 671 406.5 674 c 0
 402 677 402 677 398 680 c 0
 393 682 393 682 388 683.5 c 0
 383 685 383 685 378 686 c 0
 373 687 373 687 367.5 687 c 2
 357 687 l 2
 322 687 322 687 289.5 668.5 c 0
 257 650 257 650 226 628 c 0
 221 624 221 624 215.5 620 c 0
 210 616 210 616 205 612 c 0
 204 608 204 608 203.5 604 c 0
 203 600 203 600 203 596 c 0
 203 572 203 572 216.5 552 c 0
 230 532 230 532 246 513 c 0
 250 509 250 509 253.5 505 c 0
 257 501 257 501 260 497 c 0
 266 490 266 490 272 482 c 0
 278 474 278 474 282 466 c 1
 272 457 272 457 260 448 c 0
 248 439 248 439 236 432 c 0
 233 429 233 429 228.5 426.5 c 0
 224 424 224 424 220 422 c 0
 189 403 189 403 164.5 379.5 c 0
 140 356 140 356 134 314 c 1
 136 277 136 277 157.5 252 c 0
 179 227 179 227 206 205 c 0
 208 204 208 204 210 202.5 c 0
 212 201 212 201 214 199 c 0
 220 194 220 194 226.5 188 c 0
 233 182 233 182 240 176 c 0
 250 172 250 172 259 170.5 c 0
 268 169 268 169 278 169 c 0
 306 169 306 169 331 182 c 0
 356 195 356 195 382 210 c 0
 383 211 383 211 384.5 211.5 c 0
 386 212 386 212 387 213 c 0
 405 224 405 224 424.5 235 c 0
 444 246 444 246 465 252 c 1
 575 131 l 1
 586 135 l 1
 576 159 576 159 561 178 c 0
 546 197 546 197 529 215 c 0
 526 218 526 218 522.5 221 c 0
 519 224 519 224 516 228 c 0
 510 234 510 234 504 241.5 c 0
 498 249 498 249 492 256 c 1
 492 270 l 1
 506 281 506 281 521.5 292 c 0
 537 303 537 303 551 314 c 0
 580 334 580 334 607.5 355 c 0
 635 376 635 376 658 396 c 1
 628 389 628 389 600.5 371 c 0
 573 353 573 353 546 333 c 1
 544.5 331.5 l 1
 543 331 l 1
 530 321 530 321 515.5 310.5 c 0
 501 300 501 300 486 292 c 1
 465 292 l 1
 324 466 l 1
 334 477 334 477 346 487.5 c 0
 358 498 358 498 372 508 c 0
 374 509 374 509 375.5 510.5 c 0
 377 512 377 512 379 513 c 0
 407 533 407 533 431 557.5 c 0
 455 582 455 582 457 617 c 1
 457 617 l 1
294 450 m 1
 309 444 l 1
 321 428 321 428 335.5 411 c 0
 350 394 350 394 365 377 c 0
 387 351 387 351 407 324.5 c 0
 427 298 427 298 440 270 c 1
 428 264 428 264 417 257.5 c 0
 406 251 406 251 394 244 c 0
 392 243 392 243 390.5 242.5 c 0
 389 242 389 242 388 241 c 0
 357 223 357 223 326.5 208 c 0
 296 193 296 193 260 188 c 1
 252 195 252 195 242 203.5 c 0
 232 212 232 212 222 220 c 0
 196 240 196 240 176 263.5 c 0
 156 287 156 287 156 314 c 0
 160 353 160 353 185 374 c 0
 210 395 210 395 241 413 c 0
 255 421 255 421 269 430 c 0
 283 439 283 439 294 450 c 1
 294 450 l 1
328 292 m 1
 324 297 324 297 319 303 c 0
 314 309 314 309 310 315 c 0
 299 330 299 330 285.5 344 c 0
 272 358 272 358 256 360 c 1
 244 353 244 353 238.5 344 c 0
 233 335 233 335 233 325 c 0
 233 321 233 321 234.5 316 c 0
 236 311 236 311 238 307 c 0
 241 298 241 298 246 289.5 c 0
 251 281 251 281 256 272 c 0
 261 270 261 270 266.5 268 c 0
 272 266 272 266 279 265 c 0
 282 264 282 264 284.5 264 c 2
 290 264 l 2
 302 264 302 264 312.5 270 c 0
 323 276 323 276 328 292 c 1
 328 292 l 1
225 607 m 1
 234 612 234 612 244.5 619 c 0
 255 626 255 626 265 632 c 0
 279 641 279 641 293.5 649 c 0
 308 657 308 657 324 664 c 0
 335 668 335 668 345.5 670.5 c 0
 356 673 356 673 368 673 c 0
 388 672 388 672 407 659.5 c 0
 426 647 426 647 440 617 c 1
 435 584 435 584 408.5 560 c 0
 382 536 382 536 352 515 c 0
 343 509 343 509 333.5 503 c 0
 324 497 324 497 315 490 c 0
 313 489 313 489 311.5 488 c 0
 310 487 310 487 309 486 c 1
 307 489 307 489 304 493 c 0
 301 497 301 497 298 500 c 2
 286 512 l 1
 273 524 l 2
 255 540 255 540 240 560.5 c 0
 225 581 225 581 225 605 c 2
 225 605.5 l 1
 225 607 l 1
 225 607 l 1
370 596 m 1
 368 607 368 607 360 610 c 0
 352 613 352 613 344 613 c 0
 340 612 340 612 336 612 c 2
 328 612 l 1
 319 608 319 608 312.5 601 c 0
 306 594 306 594 307 584 c 2
 307 582.5 l 1
 307 581 l 1
 311 570 311 570 320 563 c 0
 329 556 329 556 339 554 c 1
 345 560 l 1
 351 566 l 2
 358 572 358 572 364.5 579 c 0
 371 586 371 586 370 594 c 2
 370 594.5 l 1
 370 596 l 1
 370 596 l 1
EndSplineSet
Validated: 524293
EndChar

StartChar: parenleft
Encoding: 12 39 9
Width: 296
Flags: W
LayerCount: 2
Fore
SplineSet
253 601 m 1
 204 557 204 557 147.5 520 c 0
 91 483 91 483 25 475 c 1
 30 502 30 502 37.5 528.5 c 0
 45 555 45 555 53 583 c 0
 63 617 63 617 72.5 651.5 c 0
 82 686 82 686 87 722 c 0
 91 723 91 723 95 723.5 c 0
 99 724 99 724 104 724 c 0
 116 726 116 726 129 727.5 c 0
 142 729 142 729 156 731 c 0
 172 733 172 733 189.5 734 c 0
 207 735 207 735 223 735 c 0
 237 735 237 735 252 734 c 0
 267 733 267 733 281 731 c 1
 253 601 l 1
 253 601 l 1
133 587 m 1
 136 589 136 589 138.5 591 c 0
 141 593 141 593 144 595 c 0
 157 606 157 606 169.5 621.5 c 0
 182 637 182 637 185 654 c 1
 181 657 181 657 176.5 658 c 0
 172 659 172 659 169 659 c 0
 158 659 158 659 154 648.5 c 0
 150 638 150 638 146 624 c 1
 146 622.5 l 1
 146 621 l 2
 144 611 144 611 141 601.5 c 0
 138 592 138 592 133 587 c 1
 133 587 l 1
EndSplineSet
Validated: 524293
EndChar

StartChar: parenright
Encoding: 13 40 10
Width: 358
Flags: W
LayerCount: 2
Fore
SplineSet
27 563 m 1
 33 573 33 573 39.5 584 c 0
 46 595 46 595 53 605 c 0
 96 670 96 670 158 723.5 c 0
 220 777 220 777 299 777 c 0
 305 777 305 777 311 776.5 c 0
 317 776 317 776 325 775 c 1
 272 713 272 713 247.5 631.5 c 0
 223 550 223 550 223 465 c 0
 224 415 224 415 232 365 c 0
 240 315 240 315 255 270 c 1
 345 62 l 1
 335 64 335 64 325 67.5 c 0
 315 71 315 71 305 75 c 0
 227 103 227 103 157.5 159 c 0
 88 215 88 215 56 292 c 0
 52 303 52 303 47 315.5 c 0
 42 328 42 328 37 340 c 0
 25 373 25 373 13.5 407.5 c 0
 2 442 2 442 3 478 c 0
 3 500 3 500 8 521.5 c 0
 13 543 13 543 27 563 c 1
 27 563 l 1
135 563 m 1
 154 585 154 585 166 609.5 c 0
 178 634 178 634 187 659 c 1
 172 647 172 647 162.5 632 c 0
 153 617 153 617 144 602 c 2
 142.5 599 l 1
 141 596 l 2
 135 586 135 586 129 575 c 0
 123 564 123 564 115 554 c 1
 109 532 109 532 105.5 509 c 0
 102 486 102 486 102 463 c 2
 102 456.5 l 1
 102 449 l 2
 104 398 104 398 119.5 350 c 0
 135 302 135 302 161 270 c 1
 141 311 141 311 131.5 356 c 0
 122 401 122 401 122 449 c 0
 122 479 122 479 125.5 507.5 c 0
 129 536 129 536 135 563 c 1
 135 563 l 1
EndSplineSet
Validated: 524321
EndChar

StartChar: asterisk
Encoding: 14 41 11
Width: 358
Flags: W
LayerCount: 2
Fore
SplineSet
-13 780 m 1
 100 757 100 757 196 667 c 0
 292 577 292 577 317 461 c 0
 323 443 323 443 326.5 424.5 c 0
 330 406 330 406 330 388 c 0
 330 307 330 307 279 236 c 0
 228 165 228 165 168 113 c 1
 166.5 111.5 l 1
 165 110 l 1
 145 97 145 97 120 86 c 0
 95 75 95 75 71 70 c 0
 60 68 60 68 49.5 67 c 0
 39 66 39 66 29 66 c 0
 22 66 22 66 15 66.5 c 0
 8 67 8 67 2 68 c 1
 57 134 57 134 85.5 217.5 c 0
 114 301 114 301 116 389 c 2
 116 394.5 l 1
 116 400 l 2
 116 442 116 442 109.5 483.5 c 0
 103 525 103 525 91 565 c 0
 83 591 83 591 69.5 615 c 0
 56 639 56 639 43 663 c 0
 37 672 37 672 31.5 681 c 0
 26 690 26 690 20 699 c 0
 9 719 9 719 0.5 739.5 c 0
 -8 760 -8 760 -12 780 c 1
 -13 780 l 1
233 324 m 1
 235 330 235 330 237 335.5 c 0
 239 341 239 341 240 347 c 0
 242 359 242 359 243.5 371 c 0
 245 383 245 383 245 394 c 0
 245 457 245 457 216.5 515 c 0
 188 573 188 573 150 623 c 1
 183 573 183 573 197.5 517 c 0
 212 461 212 461 212 403 c 0
 212 345 212 345 196 289.5 c 0
 180 234 180 234 150 186 c 1
 174 208 174 208 189.5 236 c 0
 205 264 205 264 219 293 c 0
 220 297 220 297 222 300.5 c 0
 224 304 224 304 226 308 c 0
 228 312 228 312 229.5 315.5 c 0
 231 319 231 319 233 324 c 1
 233 324 l 1
EndSplineSet
Validated: 524289
EndChar

StartChar: plus
Encoding: 15 42 12
Width: 752
Flags: W
LayerCount: 2
Fore
SplineSet
357 780 m 1
 467 560 l 1
 698 583 l 1
 687 552 687 552 665 528 c 0
 643 504 643 504 620 482 c 1
 614 478 l 1
 609 474 l 2
 590 457 590 457 572.5 438.5 c 0
 555 420 555 420 544 398 c 1
 592 359 592 359 635 319.5 c 0
 678 280 678 280 716 239 c 1
 706 226 l 1
 653 219 653 219 597.5 215.5 c 0
 542 212 542 212 484 213 c 2
 474 213 l 1
 464 213 l 1
 454 213 l 1
 443 213 l 1
 431 191 431 191 425.5 166.5 c 0
 420 142 420 142 415 118 c 0
 415 116 415 116 414.5 114 c 0
 414 112 414 112 414 110 c 0
 409 80 409 80 401.5 52 c 0
 394 24 394 24 379 0 c 1
 346 17 l 1
 254 226 l 1
 36 213 l 1
 41 220 41 220 45.5 228 c 0
 50 236 50 236 55 243 c 0
 58 247 58 247 60.5 250.5 c 0
 63 254 63 254 66 258 c 0
 91 295 91 295 117.5 331.5 c 0
 144 368 144 368 179 398 c 1
 170 428 170 428 150.5 451.5 c 0
 131 475 131 475 110 498 c 0
 92 517 92 517 74 537.5 c 0
 56 558 56 558 46 583 c 1
 266 585 l 1
 336 780 l 1
 357 780 l 1
 357 780 l 1
375 423 m 1
 370 446 370 446 367.5 465.5 c 0
 365 485 365 485 362 506 c 0
 361 517 361 517 360.5 529.5 c 0
 360 542 360 542 359 554 c 0
 359 564 359 564 358.5 574.5 c 0
 358 585 358 585 357 596 c 1
 341 434 l 1
 329 438 329 438 317.5 443.5 c 0
 306 449 306 449 295 454 c 0
 291 456 291 456 287.5 457.5 c 0
 284 459 284 459 281 461 c 0
 262 471 262 471 241 479.5 c 0
 220 488 220 488 197 493 c 1
 334 398 l 1
 320 385 320 385 304.5 373.5 c 0
 289 362 289 362 273 353 c 0
 273 352 273 352 272.5 352 c 2
 271 352 l 1
 257 342 257 342 242 332 c 0
 227 322 227 322 213 308 c 1
 231 312 231 312 249 320 c 0
 267 328 267 328 285 337 c 1
 285.5 337 l 1
 286 337 l 1
 298 343 298 343 310 348.5 c 0
 322 354 322 354 334 358 c 1
 342 345 342 345 344.5 332 c 0
 347 319 347 319 348 307 c 2
 348 295.5 l 1
 348 285 l 1
 348 279 l 1
 348 273 l 2
 348 260 348 260 349.5 245 c 0
 351 230 351 230 357 215 c 1
 375 370 l 1
 393 366 393 366 411.5 357.5 c 0
 430 349 430 349 447 340 c 0
 465 330 465 330 483.5 320.5 c 0
 502 311 502 311 518 308 c 1
 508 319 508 319 495 328 c 0
 482 337 482 337 468 345 c 0
 449 358 449 358 430.5 372 c 0
 412 386 412 386 402 406 c 1
 513 490 l 1
 375 423 l 1
 375 423 l 1
EndSplineSet
Validated: 524325
EndChar

StartChar: comma
Encoding: 16 43 13
Width: 858
Flags: W
LayerCount: 2
Fore
SplineSet
297 769 m 1
 339 775 339 775 381.5 775.5 c 0
 424 776 424 776 469 776 c 0
 483 775 483 775 497.5 775 c 2
 526 775 l 1
 535 742 535 742 539 707.5 c 0
 543 673 543 673 545 637 c 2
 545 632.5 l 1
 545 628 l 2
 547 600 547 600 549 573.5 c 0
 551 547 551 547 555 521 c 1
 585 516 585 516 618.5 513.5 c 0
 652 511 652 511 687 511 c 2
 699 511 l 1
 710 511 l 2
 739 512 739 512 766.5 514.5 c 0
 794 517 794 517 819 521 c 1
 822 492 822 492 822.5 461 c 0
 823 430 823 430 823 397 c 2
 823 395.5 l 1
 823 394 l 1
 823 385.5 l 1
 823 376 l 2
 823 347 823 347 824 319.5 c 0
 825 292 825 292 827 267 c 1
 550 267 l 1
 538 255 l 1
 532 12 l 1
 335 0 l 1
 318 12 l 1
 318 272 l 1
 301 285 l 1
 275 285 275 285 250 284 c 0
 225 283 225 283 201 281 c 0
 176 280 176 280 152.5 278 c 0
 129 276 129 276 105 276 c 0
 87 276 87 276 69 278 c 0
 51 280 51 280 34 282 c 1
 31 309 31 309 30 335 c 0
 29 361 29 361 29 389 c 2
 29 417 l 1
 30 445 l 1
 30 471.5 l 1
 30 499 l 1
 61 504 61 504 90 505.5 c 0
 119 507 119 507 147 509 c 2
 153 509 l 1
 159 509 l 2
 194 510 194 510 229 512.5 c 0
 264 515 264 515 301 521 c 1
 304 536 304 536 306 553 c 0
 308 570 308 570 309 587 c 2
 309 598.5 l 1
 309 609 l 1
 309 619 l 1
 309 628 l 2
 308 656 308 656 305.5 683.5 c 0
 303 711 303 711 301 736 c 0
 300 744 300 744 299 752.5 c 0
 298 761 298 761 297 769 c 1
 297 769 l 1
429 670 m 1
 417 670 l 1
 416 663 416 663 415.5 653.5 c 0
 415 644 415 644 415 635 c 0
 415 619 415 619 416 600.5 c 0
 417 582 417 582 419 563 c 0
 419 556 419 556 419.5 550 c 0
 420 544 420 544 420 538 c 0
 421 526 421 526 421.5 513 c 0
 422 500 422 500 422 487 c 0
 422 464 422 464 419.5 443.5 c 0
 417 423 417 423 412 406 c 1
 163 406 l 1
 160.5 406 l 1
 157 407 l 1
 154.5 407 l 1
 151 407 l 2
 142 407 142 407 134.5 403 c 0
 127 399 127 399 127 390 c 2
 127 388.5 l 1
 127 387 l 1
 143 385 143 385 160 384 c 0
 177 383 177 383 194 383 c 0
 211 383 211 383 229.5 384 c 0
 248 385 248 385 266 386 c 0
 275 386 275 386 284.5 386.5 c 0
 294 387 294 387 303 387 c 0
 312 388 312 388 321.5 388 c 2
 340 388 l 1
 378 386 l 1
 417 382 l 1
 422 121 l 1
 440 100 l 1
 444 370 l 1
 458 382 l 1
 466 382 l 1
 475 382 l 2
 479 381 479 381 483 381 c 2
 492 381 l 2
 527 381 527 381 560.5 383 c 0
 594 385 594 385 628 388 c 0
 642 388 642 388 656 389 c 2
 684 391 l 2
 693 392 693 392 703 392.5 c 0
 713 393 713 393 722 393 c 1
 722 400 l 1
 693 403 693 403 659.5 404.5 c 0
 626 406 626 406 591 406 c 0
 558 406 558 406 525.5 404 c 0
 493 402 493 402 463 400 c 1
 444 416 l 1
 440 441 440 441 439.5 468 c 0
 439 495 439 495 440 523 c 2
 440 541 l 1
 440 558 l 2
 440 588 440 588 438 616 c 0
 436 644 436 644 429 670 c 1
 429 670 l 1
EndSplineSet
Validated: 524325
EndChar

StartChar: hyphen
Encoding: 17 44 14
Width: 331
Flags: W
LayerCount: 2
Fore
SplineSet
122 254 m 1
 133 253 133 253 144.5 252.5 c 0
 156 252 156 252 167 251 c 0
 172 251 172 251 177 250.5 c 0
 182 250 182 250 187 250 c 0
 216 248 216 248 243.5 246 c 0
 271 244 271 244 298 244 c 2
 302 244 l 1
 307 244 l 1
 311 244 l 1
 315 244 l 1
 285 150 285 150 240.5 62.5 c 0
 196 -25 196 -25 135 -106 c 1
 -15 -98 l 1
 25 -12 25 -12 58.5 76 c 0
 92 164 92 164 122 254 c 1
 122 254 l 1
195 170 m 1
 177 170 l 1
 170 147 170 147 161 124.5 c 0
 152 102 152 102 142 81 c 0
 129 52 129 52 117.5 25.5 c 0
 106 -1 106 -1 100 -28 c 1
 131 7 131 7 151 48 c 0
 171 89 171 89 183 131 c 0
 186 141 186 141 189.5 151 c 0
 193 161 193 161 195 170 c 1
 195 170 l 1
EndSplineSet
Validated: 5
EndChar

StartChar: period
Encoding: 18 45 15
Width: 420
Flags: W
LayerCount: 2
Fore
SplineSet
386 386 m 1
 393 373 l 1
 390 359 390 359 387 344 c 2
 381 314 l 2
 375 285 375 285 369.5 256 c 0
 364 227 364 227 356 198 c 1
 344 188 l 1
 20 183 l 1
 13 198 l 1
 97 388 l 1
 386 386 l 1
 386 386 l 1
297 293 m 1
 285 301 285 301 269 303.5 c 0
 253 306 253 306 236 306 c 2
 221.5 306 l 1
 207 305 l 1
 203 305 l 1
 200 305 l 2
 191 305 191 305 181.5 304.5 c 0
 172 304 172 304 164 304 c 2
 159.5 304 l 1
 155 304 l 2
 150 303 150 303 145.5 299 c 0
 141 295 141 295 141 288 c 2
 141 287.5 l 1
 141 286 l 1
 141 284.5 l 1
 141 284 l 1
 149 285 149 285 158 285 c 2
 175 285 l 1
 189.5 285 l 1
 204 285 l 2
 210 284 210 284 217 284 c 2
 231 284 l 2
 248 284 248 284 265 286 c 0
 282 288 282 288 297 293 c 1
 297 293 l 1
EndSplineSet
Validated: 524293
EndChar

StartChar: slash
Encoding: 19 46 16
Width: 370
Flags: W
LayerCount: 2
Fore
SplineSet
193 289 m 1
 220 276 220 276 245.5 250.5 c 0
 271 225 271 225 298 199 c 0
 316 180 316 180 334.5 161 c 0
 353 142 353 142 372 128 c 1
 195 -47 l 1
 -2 116 l 1
 -2 133 l 1
 193 289 l 1
 193 289 l 1
224 128 m 1
 216 138 216 138 206.5 146 c 0
 197 154 197 154 182 154 c 0
 173 151 173 151 166.5 142.5 c 0
 160 134 160 134 158 125 c 0
 158 124 158 124 157.5 123 c 0
 157 122 157 122 157 121 c 0
 163 113 163 113 169 108.5 c 0
 175 104 175 104 182 102 c 0
 183 101 183 101 184.5 100.5 c 0
 186 100 186 100 187 100 c 0
 190 99 190 99 193 97.5 c 0
 196 96 196 96 199 94 c 1
 201 97 201 97 203.5 99.5 c 0
 206 102 206 102 209 104 c 0
 209 105 209 105 210 105.5 c 0
 211 106 211 106 212 108 c 0
 217 113 217 113 220.5 117.5 c 0
 224 122 224 122 224 128 c 1
 224 128 l 1
EndSplineSet
Validated: 5
EndChar

StartChar: zero
Encoding: 20 47 17
Width: 752
Flags: W
LayerCount: 2
Fore
SplineSet
743 753 m 1
 737 725 l 1
 614 565 614 565 514.5 393.5 c 0
 415 222 415 222 327 48 c 1
 301 42 301 42 276 39.5 c 0
 251 37 251 37 225 38 c 0
 213 38 213 38 201 38.5 c 0
 189 39 189 39 177 39 c 0
 171 40 171 40 165 40 c 0
 159 40 159 40 153 41 c 0
 135 41 135 41 116.5 42 c 0
 98 43 98 43 81 43 c 0
 63 43 63 43 45 41.5 c 0
 27 40 27 40 9 37 c 1
 -1 48 l 1
 30 93 30 93 60.5 138 c 0
 91 183 91 183 122 228 c 0
 129 238 129 238 136 249 c 0
 143 260 143 260 151 270 c 0
 231 386 231 386 309.5 503 c 0
 388 620 388 620 459 740 c 1
 499 744 499 744 541 747.5 c 0
 583 751 583 751 625 753 c 0
 641 753 641 753 658 753.5 c 0
 675 754 675 754 691 754 c 2
 717 754 l 1
 743 753 l 1
 743 753 l 1
250 158 m 1
 558 647 l 1
 522 647 l 1
 309 309 l 2
 300 293 300 293 290 278.5 c 0
 280 264 280 264 269 250 c 0
 265 245 265 245 262 240.5 c 0
 259 236 259 236 255 231 c 0
 241 211 241 211 228 191 c 0
 215 171 215 171 207 147 c 1
 215 147 215 147 223 149.5 c 0
 231 152 231 152 240 155 c 0
 242 156 242 156 244.5 156.5 c 0
 247 157 247 157 250 158 c 1
 250 158 l 1
EndSplineSet
Validated: 37
EndChar

StartChar: one
Encoding: 21 48 18
Width: 883
Flags: W
LayerCount: 2
Fore
SplineSet
434 780 m 1
 441.5 780 l 1
 450 780 l 2
 565 780 565 780 665.5 722 c 0
 766 664 766 664 813 555 c 0
 829 520 829 520 836.5 481 c 0
 844 442 844 442 844 402 c 0
 844 393 844 393 843.5 384 c 0
 843 375 843 375 843 365 c 0
 838 310 838 310 823 255 c 0
 808 200 808 200 786 154 c 1
 728 83 728 83 655 41.5 c 0
 582 0 582 0 494 0 c 0
 480 0 480 0 465 1.5 c 0
 450 3 450 3 434 5 c 0
 315 9 315 9 219.5 70 c 0
 124 131 124 131 72 237 c 0
 56 273 56 273 48 310.5 c 0
 40 348 40 348 40 386 c 0
 40 432 40 432 49 477 c 0
 58 522 58 522 72 563 c 1
 123 657 123 657 215 719 c 0
 307 781 307 781 418 780 c 2
 422 780 l 1
 426 780 l 1
 430 780 l 1
 434 780 l 1
 434 780 l 1
703 539 m 1
 656 605 656 605 587.5 644 c 0
 519 683 519 683 437 683 c 2
 431.5 683 l 1
 427 683 l 2
 425 682 425 682 422.5 682 c 2
 418 682 l 1
 328 677 328 677 259.5 621 c 0
 191 565 191 565 161 483 c 0
 156 464 156 464 153.5 445 c 0
 151 426 151 426 151 406 c 0
 151 372 151 372 157.5 338.5 c 0
 164 305 164 305 175 274 c 0
 208 199 208 199 277 150.5 c 0
 346 102 346 102 429 98 c 0
 433 98 433 98 437 97.5 c 0
 441 97 441 97 445 97 c 0
 449 96 449 96 453.5 96 c 2
 462 96 l 2
 541 96 541 96 608 139 c 0
 675 182 675 182 715 252 c 0
 729 280 729 280 736 314 c 0
 743 348 743 348 743 383 c 0
 743 425 743 425 733.5 466 c 0
 724 507 724 507 703 539 c 1
 703 539 l 1
374 650 m 1
 392 655 392 655 410 657.5 c 0
 428 660 428 660 445 660 c 0
 500 660 500 660 550.5 638.5 c 0
 601 617 601 617 640 583 c 0
 685 539 685 539 702 483 c 0
 719 427 719 427 720 365 c 0
 720 363 720 363 719.5 361 c 0
 719 359 719 359 719 357 c 0
 706 300 706 300 680.5 246.5 c 0
 655 193 655 193 601 159 c 0
 569 140 569 140 532 130.5 c 0
 495 121 495 121 456 121 c 0
 407 121 407 121 359.5 136.5 c 0
 312 152 312 152 275 181 c 0
 227 223 227 223 200 279 c 0
 173 335 173 335 173 396 c 0
 173 404 173 404 173.5 413 c 0
 174 422 174 422 175 430 c 0
 184 512 184 512 241.5 569.5 c 0
 299 627 299 627 374 650 c 1
 374 650 l 1
605 458 m 1
 580 513 580 513 527.5 538 c 0
 475 563 475 563 416 563 c 2
 413 563 l 1
 410 563 l 1
 406 563 l 1
 402 563 l 1
 376 557 376 557 353 541 c 0
 330 525 330 525 309 502 c 0
 289 486 289 486 281.5 462 c 0
 274 438 274 438 273 414 c 2
 273 410 l 1
 273 406 l 2
 273 394 273 394 273.5 381.5 c 0
 274 369 274 369 275 357 c 1
 282 348 282 348 289 338 c 0
 296 328 296 328 303 317 c 0
 330 279 330 279 363.5 247.5 c 0
 397 216 397 216 446 215 c 0
 485 215 485 215 515.5 232 c 0
 546 249 546 249 573 274 c 0
 597 294 597 294 607.5 323.5 c 0
 618 353 618 353 618 385 c 0
 618 404 618 404 614.5 422.5 c 0
 611 441 611 441 605 458 c 1
 605 458 l 1
EndSplineSet
Validated: 524321
EndChar

StartChar: two
Encoding: 22 49 19
Width: 525
Flags: W
LayerCount: 2
Fore
SplineSet
431 780 m 1
 494 762 l 1
 490 721 490 721 487 680.5 c 0
 484 640 484 640 483 599 c 0
 482 586 482 586 482 572.5 c 2
 482 546 l 2
 482 521 482 521 482.5 496.5 c 0
 483 472 483 472 484 446 c 0
 485 407 485 407 487 368 c 0
 489 329 489 329 492 290 c 0
 496 221 496 221 499 151.5 c 0
 502 82 502 82 502 10 c 1
 494 0 l 1
 471 2 471 2 448.5 3 c 0
 426 4 426 4 403 5 c 2
 397.5 5 l 1
 392 5 l 2
 344 6 344 6 296.5 9.5 c 0
 249 13 249 13 207 29 c 1
 215 72 215 72 217.5 117.5 c 0
 220 163 220 163 220 210 c 0
 220 230 220 230 219.5 250.5 c 0
 219 271 219 271 219 292 c 0
 218 309 218 309 217.5 327 c 0
 217 345 217 345 216 364 c 0
 215 402 215 402 213.5 439 c 0
 212 476 212 476 212 511 c 2
 212 522 l 1
 212 535 l 1
 191 553 l 1
 181 556 181 556 170 557.5 c 0
 159 559 159 559 147 559 c 2
 133.5 559 l 1
 120 559 l 2
 113 558 113 558 106 558 c 2
 93 558 l 2
 70 558 70 558 52 563 c 0
 34 568 34 568 24 587 c 1
 74 614 74 614 124.5 637 c 0
 175 660 175 660 227 684 c 0
 230 685 230 685 234.5 687 c 0
 239 689 239 689 243 690 c 0
 290 712 290 712 337.5 734 c 0
 385 756 385 756 431 780 c 1
 431 780 l 1
371 104 m 1
 355 647 l 1
 348 647 348 647 339 644.5 c 0
 330 642 330 642 321 638 c 2
 308 631.5 l 1
 296 625 l 2
 292 623 292 623 288.5 620 c 0
 285 617 285 617 282 615 c 1
 285.5 615 l 1
 289 615 l 1
 295 615 l 1
 302 615 l 1
 304.5 615 l 1
 307 615 l 2
 313 614 313 614 319.5 611 c 0
 326 608 326 608 330 600 c 2
 342 104 l 1
 371 104 l 1
 371 104 l 1
EndSplineSet
Validated: 524293
EndChar

StartChar: three
Encoding: 23 50 20
Width: 744
Flags: W
LayerCount: 2
Fore
SplineSet
100 703 m 1
 142 740 142 740 200.5 759.5 c 0
 259 779 259 779 321 780 c 2
 325.5 780 l 1
 330 780 l 2
 377 780 377 780 422 769.5 c 0
 467 759 467 759 504 737 c 1
 554 689 554 689 583 633 c 0
 612 577 612 577 611 508 c 2
 611 500.5 l 1
 611 493 l 1
 592 439 592 439 560.5 388.5 c 0
 529 338 529 338 497 289 c 0
 496 288 496 288 495 286 c 0
 494 284 494 284 492 283 c 0
 475 256 475 256 456.5 229 c 0
 438 202 438 202 423 174 c 1
 441 169 441 169 459.5 166.5 c 0
 478 164 478 164 496 164 c 0
 536 164 536 164 573.5 173 c 0
 611 182 611 182 649 194 c 0
 664 199 664 199 679 203 c 0
 694 207 694 207 710 211 c 1
 704 196 704 196 697 180.5 c 0
 690 165 690 165 682 151 c 0
 663 112 663 112 638.5 74 c 0
 614 36 614 36 588 0 c 1
 49 0 l 1
 38 10 l 1
 55 34 55 34 75 57.5 c 0
 95 81 95 81 115 103 c 0
 118 106 118 106 120.5 109.5 c 0
 123 113 123 113 125 115 c 0
 170 166 170 166 211 219 c 0
 252 272 252 272 272 334 c 1
 263 336 263 336 254 339 c 2
 236 345 l 2
 179 364 179 364 125.5 400.5 c 0
 72 437 72 437 43 498 c 0
 39 513 39 513 36.5 528.5 c 0
 34 544 34 544 34 559 c 0
 34 600 34 600 51.5 637.5 c 0
 69 675 69 675 100 703 c 1
 100 703 l 1
500 597 m 1
 484 635 484 635 448 666 c 0
 412 697 412 697 372 711 c 0
 369 712 369 712 365 712.5 c 0
 361 713 361 713 358 714 c 0
 353 715 353 715 348 715.5 c 0
 343 716 343 716 338 716 c 0
 333 717 333 717 328 717 c 2
 317 717 l 2
 264 717 264 717 215.5 696.5 c 0
 167 676 167 676 132 633 c 0
 122 616 122 616 113.5 594.5 c 0
 105 573 105 573 106 552 c 0
 106 542 106 542 109 531.5 c 0
 112 521 112 521 119 511 c 1
 119 513 119 513 118.5 515 c 0
 118 517 118 517 118 520 c 0
 117 522 117 522 117 524 c 2
 117 528 l 2
 117 536 117 536 118.5 543 c 0
 120 550 120 550 122 557 c 0
 122 559 122 559 122.5 561.5 c 0
 123 564 123 564 124 566 c 0
 125 571 125 571 126.5 576 c 0
 128 581 128 581 129 586 c 0
 141 617 141 617 167 639.5 c 0
 193 662 193 662 221 676 c 0
 226 679 226 679 231 681 c 2
 241 685 l 2
 255 690 255 690 270 692.5 c 0
 285 695 285 695 298 695 c 0
 344 695 344 695 385 672.5 c 0
 426 650 426 650 458 621 c 1
 469 599 469 599 475.5 576 c 0
 482 553 482 553 484 529 c 0
 485 524 485 524 485 519.5 c 2
 485 510 l 2
 485 503 485 503 484.5 495.5 c 0
 484 488 484 488 483 481 c 0
 429 379 429 379 361.5 278.5 c 0
 294 178 294 178 223 81 c 1
 559 81 l 1
 564 99 l 1
 278 104 l 1
 291 144 291 144 317 182 c 0
 343 220 343 220 372 257 c 2
 380 267 l 1
 388 278 l 2
 434 335 434 335 472 396 c 0
 510 457 510 457 510 528 c 0
 510 544 510 544 507.5 562 c 0
 505 580 505 580 500 597 c 1
 500 597 l 1
377 586 m 1
 376 587 376 587 375 587.5 c 0
 374 588 374 588 373 589 c 0
 361 597 361 597 346 604.5 c 0
 331 612 331 612 315 616 c 0
 310 617 310 617 304.5 617.5 c 0
 299 618 299 618 294 618 c 0
 281 618 281 618 269 614 c 0
 257 610 257 610 247 599 c 1
 214 583 214 583 199 552 c 0
 184 521 184 521 184 485 c 2
 184 482.5 l 1
 184 480 l 1
 184 477 l 1
 184 474 l 1
 203 442 203 442 227 420.5 c 0
 251 399 251 399 288 388 c 1
 296 392 l 1
 304 396 l 1
 310 398 l 1
 315 401 l 2
 332 408 332 408 349 418.5 c 0
 366 429 366 429 377 445 c 1
 384 465 384 465 389 486.5 c 0
 394 508 394 508 394 528 c 0
 394 542 394 542 390.5 557 c 0
 387 572 387 572 377 586 c 1
 377 586 l 1
EndSplineSet
Validated: 524321
EndChar

StartChar: four
Encoding: 24 51 21
Width: 488
Flags: W
LayerCount: 2
Fore
SplineSet
256 768 m 1
 266 762 266 762 278.5 756 c 0
 291 750 291 750 303 743 c 0
 310 740 310 740 318 736.5 c 0
 326 733 326 733 333 729 c 0
 381 706 381 706 421 674 c 0
 461 642 461 642 461 583 c 2
 461 581.5 l 1
 461 580 l 2
 459 540 459 540 441 504.5 c 0
 423 469 423 469 401 436 c 2
 387 414 l 1
 374 393 l 2
 369 384 369 384 364 376 c 0
 359 368 359 368 355 358 c 1
 357.5 355.5 l 1
 361 353 l 2
 367 348 367 348 373 343.5 c 0
 379 339 379 339 385 335 c 0
 413 312 413 312 437 287 c 0
 461 262 461 262 466 228 c 0
 465 220 465 220 465 210.5 c 2
 465 190 l 1
 465 179.5 l 1
 464 169 l 2
 462 138 462 138 451 110.5 c 0
 440 83 440 83 403 72 c 0
 396 68 396 68 389.5 63.5 c 0
 383 59 383 59 376 55 c 0
 341 35 341 35 303 17.5 c 0
 265 0 265 0 224 0 c 0
 217 0 217 0 211 0.5 c 0
 205 1 205 1 199 2 c 2
 63 44 l 1
 69 50 69 50 76 55.5 c 0
 83 61 83 61 90 68 c 0
 97 73 97 73 105 78.5 c 0
 113 84 113 84 121 90 c 0
 145 107 145 107 165.5 127.5 c 0
 186 148 186 148 195 176 c 1
 196 229 196 229 162.5 265 c 0
 129 301 129 301 90 329 c 0
 77 338 77 338 64 346.5 c 0
 51 355 51 355 40 364 c 1
 52 375 52 375 69 387.5 c 0
 86 400 86 400 103 415 c 0
 136 441 136 441 162.5 474 c 0
 189 507 189 507 189 548 c 0
 189 554 189 554 188.5 560.5 c 0
 188 567 188 567 186 574 c 0
 184 611 184 611 162.5 643 c 0
 141 675 141 675 105 690 c 2
 93 694 l 1
 81 698 l 2
 79 699 79 699 76.5 699.5 c 0
 74 700 74 700 72 701 c 0
 59 705 59 705 45.5 710 c 0
 32 715 32 715 23 722 c 1
 33 726 33 726 43 730.5 c 0
 53 735 53 735 63 740 c 0
 95 755 95 755 129.5 767.5 c 0
 164 780 164 780 199 780 c 0
 213 779 213 779 227.5 776.5 c 0
 242 774 242 774 256 768 c 1
 256 768 l 1
327 610 m 1
 304 650 304 650 268 674.5 c 0
 232 699 232 699 193 712 c 0
 192 713 192 713 190 713.5 c 0
 188 714 188 714 186 714 c 1
 194 705 194 705 208.5 694 c 0
 223 683 223 683 240 671 c 0
 256 659 256 659 271 644 c 0
 286 629 286 629 293 610 c 0
 296 597 296 597 297.5 584.5 c 0
 299 572 299 572 299 561 c 0
 299 501 299 501 265.5 450.5 c 0
 232 400 232 400 191 358 c 1
 201 352 l 1
 211 346 l 2
 247 320 247 320 277.5 283.5 c 0
 308 247 308 247 308 200 c 0
 306 161 306 161 278 129.5 c 0
 250 98 250 98 217 83 c 1
 254 87 254 87 284.5 106 c 0
 315 125 315 125 335 158 c 0
 337 167 337 167 338.5 176 c 0
 340 185 340 185 340 194 c 0
 339 242 339 242 307.5 278.5 c 0
 276 315 276 315 239 346 c 0
 234 350 234 350 228 354.5 c 0
 222 359 222 359 217 364 c 1
 263 405 263 405 298 453 c 0
 333 501 333 501 333 563 c 0
 333 574 333 574 331.5 586 c 0
 330 598 330 598 327 610 c 1
 327 610 l 1
EndSplineSet
Validated: 524321
EndChar

StartChar: five
Encoding: 25 52 22
Width: 847
Flags: W
LayerCount: 2
Fore
SplineSet
496 779 m 1
 504 778 504 778 512.5 778 c 2
 529 778 l 2
 540 778 540 778 551.5 778.5 c 0
 563 779 563 779 573 779 c 0
 584 779 584 779 595.5 779.5 c 0
 607 780 607 780 617 780 c 0
 641 780 641 780 662 777.5 c 0
 683 775 683 775 700 767 c 1
 699 761 699 761 698.5 754.5 c 0
 698 748 698 748 698 741 c 0
 694 696 694 696 691 649 c 0
 688 602 688 602 686 555 c 2
 686 528 l 1
 686 501 l 2
 686 464 686 464 688 428 c 0
 690 392 690 392 694 357 c 1
 703 350 703 350 715.5 348.5 c 0
 728 347 728 347 741 347 c 2
 746 347 l 1
 752 347 l 1
 756 347 l 1
 760 347 l 2
 776 347 776 347 789 344 c 0
 802 341 802 341 809 329 c 1
 809 165 l 1
 802 160 802 160 794.5 157.5 c 0
 787 155 787 155 779 155 c 0
 774 155 774 155 769 156 c 2
 759 158 l 1
 758.5 158 l 1
 757 158 l 1
 745 160 l 1
 734 161 l 2
 724 161 724 161 716 157 c 0
 708 153 708 153 700 141 c 0
 698 136 698 136 697 129.5 c 0
 696 123 696 123 696 116 c 0
 696 110 696 110 696.5 103 c 0
 697 96 697 96 698 89 c 0
 699 86 699 86 699.5 83 c 0
 700 80 700 80 700 76 c 0
 702 67 702 67 703.5 57 c 0
 705 47 705 47 705 39 c 0
 705 23 705 23 697.5 12 c 0
 690 1 690 1 667 0 c 2
 480 0 l 1
 476 8 476 8 474 19.5 c 0
 472 31 472 31 472 43 c 0
 472 53 472 53 473 64 c 0
 474 75 474 75 475 85 c 2
 475 87 l 1
 475 89 l 2
 477 100 477 100 477.5 112 c 0
 478 124 478 124 478 134 c 2
 478 143.5 l 1
 477 153 l 1
 442 157 442 157 406.5 159 c 0
 371 161 371 161 334 162 c 2
 316.5 162 l 1
 298 162 l 1
 277 162 l 1
 256 162 l 2
 214 161 214 161 172.5 158.5 c 0
 131 156 131 156 91 154 c 0
 87 152 87 152 83.5 151.5 c 0
 80 151 80 151 76 151 c 0
 73 151 73 151 69.5 151.5 c 0
 66 152 66 152 62 152 c 0
 58 152 58 152 54.5 152.5 c 0
 51 153 51 153 48 153 c 0
 43 156 43 156 40.5 161 c 0
 38 166 38 166 39 172 c 0
 39 180 39 180 41 187.5 c 0
 43 195 43 195 45 200 c 0
 85 250 85 250 122 301 c 0
 159 352 159 352 196 404 c 0
 198 406 198 406 199.5 409.5 c 0
 201 413 201 413 203 415 c 0
 270 510 270 510 339.5 602.5 c 0
 409 695 409 695 496 779 c 1
 496 779 l 1
599 273 m 1
 599 698 l 1
 518 706 l 1
 452 638 452 638 394.5 566 c 0
 337 494 337 494 284 421 c 0
 259 388 259 388 235.5 356 c 0
 212 324 212 324 189 292 c 0
 181 282 181 282 173.5 271.5 c 0
 166 261 166 261 159 251 c 1
 176 243 l 1
 558 246 l 1
 573 233 573 233 578 216 c 0
 583 199 583 199 583 178 c 0
 583 167 583 167 582.5 154.5 c 0
 582 142 582 142 581 129 c 0
 581 119 581 119 582 108 c 0
 583 97 583 97 586 86 c 0
 587 86 587 86 588 86.5 c 0
 589 87 589 87 590 87 c 2
 592 87 l 1
 594 87 l 1
 595.5 87 l 1
 597 87 l 1
 597.5 87 l 1
 599 87 l 2
 602 87 602 87 604.5 87.5 c 0
 607 88 607 88 608 91 c 2
 604 243 l 1
 607.5 243 l 1
 618 243 l 2
 624 242 624 242 633 242 c 2
 652 242 l 1
 665.5 242 l 1
 680 242 l 2
 692 243 692 243 704.5 244 c 0
 717 245 717 245 727 246 c 1
 727 265 l 1
 720 264 720 264 714 264 c 2
 701 264 l 2
 688 264 688 264 675.5 265 c 0
 663 266 663 266 650 268 c 0
 648 268 648 268 646 268.5 c 0
 644 269 644 269 642 269 c 0
 631 270 631 270 620.5 271 c 0
 610 272 610 272 599 273 c 1
 599 273 l 1
525 687 m 1
 570 678 l 1
 573 628 573 628 575 576 c 0
 577 524 577 524 577 473 c 0
 577 424 577 424 575 374.5 c 0
 573 325 573 325 570 273 c 1
 203 268 l 1
 220 293 220 293 237.5 317 c 0
 255 341 255 341 271 365 c 0
 331 449 331 449 393.5 529.5 c 0
 456 610 456 610 525 687 c 1
 525 687 l 1
480 370 m 1
 477 546 l 1
 442 526 442 526 414 493.5 c 0
 386 461 386 461 362 427 c 0
 352 413 352 413 343 398 c 0
 334 383 334 383 326 370 c 1
 345 366 345 366 365.5 362.5 c 0
 386 359 386 359 407 359 c 0
 413 359 413 359 419 359.5 c 0
 425 360 425 360 431 360 c 0
 443 361 443 361 456 364 c 0
 469 367 469 367 480 370 c 1
 480 370 l 1
EndSplineSet
Validated: 524293
EndChar

StartChar: six
Encoding: 26 53 23
Width: 547
Flags: W
LayerCount: 2
Fore
SplineSet
32 772 m 1
 70 777 70 777 108 778.5 c 0
 146 780 146 780 184 780 c 0
 213 780 213 780 241 779.5 c 0
 269 779 269 779 298 778 c 0
 305 777 305 777 312 777 c 0
 319 777 319 777 327 776 c 0
 363 775 363 775 398 774 c 0
 433 773 433 773 468 773 c 2
 495.5 773 l 1
 522 774 l 2
 523 771 523 771 523.5 768 c 0
 524 765 524 765 524 761 c 0
 524 741 524 741 508 721.5 c 0
 492 702 492 702 472 688 c 0
 466 683 466 683 460 679 c 0
 454 675 454 675 447 671 c 0
 402 646 402 646 351.5 634.5 c 0
 301 623 301 623 248 615 c 1
 243 600 243 600 240.5 582.5 c 0
 238 565 238 565 236 548 c 0
 236 544 236 544 235 540.5 c 0
 234 537 234 537 234 534 c 2
 232 516 l 1
 230 499 l 1
 244 494 244 494 259 488.5 c 0
 274 483 274 483 290 477 c 0
 363 448 363 448 426.5 400 c 0
 490 352 490 352 509 270 c 0
 511 264 511 264 513 257.5 c 0
 515 251 515 251 516 244 c 0
 517 237 517 237 517.5 230 c 0
 518 223 518 223 518 217 c 0
 518 180 518 180 502 145.5 c 0
 486 111 486 111 463 83 c 0
 419 37 419 37 361.5 18.5 c 0
 304 0 304 0 244 0 c 2
 234 0 l 1
 224 0 l 2
 177 2 177 2 130.5 12.5 c 0
 84 23 84 23 43 37 c 1
 26 60 l 1
 39 70 39 70 55 75.5 c 0
 71 81 71 81 87 85 c 0
 89 85 89 85 90.5 85.5 c 0
 92 86 92 86 93 87 c 0
 106 90 106 90 119 94 c 0
 132 98 132 98 144 105 c 0
 152 110 152 110 160.5 116 c 0
 169 122 169 122 178 128 c 0
 201 143 201 143 221 163 c 0
 241 183 241 183 248 210 c 0
 250 218 250 218 251.5 227 c 0
 253 236 253 236 253 244 c 0
 252 268 252 268 242.5 290 c 0
 233 312 233 312 215 329 c 0
 191 358 191 358 159 370 c 0
 127 382 127 382 94 391 c 0
 80 394 80 394 65.5 398 c 0
 51 402 51 402 38 408 c 1
 34 438 34 438 32 468 c 0
 30 498 30 498 30 526 c 0
 30 550 30 550 31 573 c 0
 32 596 32 596 33 618 c 0
 33 640 33 640 34 662.5 c 0
 35 685 35 685 35 707 c 2
 35 723 l 1
 34 739 l 2
 34 747 34 747 33.5 755.5 c 0
 33 764 33 764 32 772 c 1
 32 772 l 1
329 707 m 1
 133 707 l 1
 130 676 130 676 127.5 644.5 c 0
 125 613 125 613 123 583 c 0
 122 557 122 557 121.5 532 c 0
 121 507 121 507 121 482 c 2
 121 473.5 l 1
 121 465 l 1
 121 456.5 l 1
 121 447 l 1
 176 434 176 434 227.5 415.5 c 0
 279 397 279 397 323 351 c 0
 345 325 345 325 358 292 c 0
 371 259 371 259 371 223 c 0
 371 210 371 210 369 196 c 0
 367 182 367 182 361 169 c 0
 346 133 346 133 315.5 112 c 0
 285 91 285 91 251 79 c 0
 241 75 241 75 231.5 72 c 0
 222 69 222 69 213 66 c 1
 222 64 222 64 228 62 c 0
 234 60 234 60 240 59 c 2
 241.5 59 l 1
 243 59 l 2
 251 60 251 60 264.5 66 c 0
 278 72 278 72 311 88 c 0
 314 90 314 90 317.5 92 c 0
 321 94 321 94 324 96 c 0
 352 115 352 115 375 143.5 c 0
 398 172 398 172 397 207 c 2
 397 209 l 1
 397 211 l 1
 397 213 l 1
 397 215 l 1
 397 219 l 1
 398 223 l 1
 398 226 l 1
 398 230 l 2
 397 289 397 289 361 336 c 0
 325 383 325 383 276 410 c 0
 274 411 274 411 272.5 412 c 0
 271 413 271 413 269 415 c 0
 240 433 240 433 209.5 444.5 c 0
 179 456 179 456 138 461 c 1
 153 683 l 1
 163 685 163 685 172.5 686.5 c 0
 182 688 182 688 193 688 c 0
 203 688 203 688 212 687 c 2
 230 685 l 2
 241 683 241 683 252 682 c 0
 263 681 263 681 272 681 c 0
 288 681 288 681 302.5 686 c 0
 317 691 317 691 329 707 c 1
 329 707 l 1
EndSplineSet
Validated: 524325
EndChar

StartChar: seven
Encoding: 27 54 24
Width: 711
Flags: W
LayerCount: 2
Fore
SplineSet
423 780 m 1
 490 769 490 769 555 752 c 0
 620 735 620 735 680 708 c 1
 680 686 l 2
 677 685 677 685 674.5 683.5 c 0
 672 682 672 682 669 680 c 0
 668 680 668 680 666.5 679 c 0
 665 678 665 678 663 677 c 0
 612 650 612 650 562 621 c 0
 512 592 512 592 469 552 c 1
 480 545 480 545 491.5 536.5 c 0
 503 528 503 528 515 519 c 0
 571 475 571 475 618.5 414 c 0
 666 353 666 353 666 276 c 2
 666 271.5 l 1
 666 267 l 2
 666 264 666 264 666.5 261 c 0
 667 258 667 258 667 255 c 2
 667 248 l 1
 667 242 l 2
 667 179 667 179 632.5 126 c 0
 598 73 598 73 544 39 c 1
 503 21 503 21 457 10.5 c 0
 411 0 411 0 362 0 c 0
 300 0 300 0 241 19.5 c 0
 182 39 182 39 137 80 c 0
 87 125 87 125 59.5 183.5 c 0
 32 242 32 242 32 304 c 0
 32 319 32 319 34 334.5 c 0
 36 350 36 350 39 366 c 0
 61 502 61 502 160 595.5 c 0
 259 689 259 689 374 754 c 0
 386 761 386 761 398.5 767.5 c 0
 411 774 411 774 423 780 c 1
 423 780 l 1
493 685 m 1
 469 690 l 2
 466 688 466 688 463 686.5 c 2
 456 683 l 2
 393 649 393 649 330 600.5 c 0
 267 552 267 552 217 501 c 0
 181 461 181 461 157.5 408.5 c 0
 134 356 134 356 132 303 c 2
 132 297.5 l 1
 132 292 l 2
 132 267 132 267 137 243.5 c 0
 142 220 142 220 154 197 c 0
 173 146 173 146 217 117.5 c 0
 261 89 261 89 310 79 c 0
 324 76 324 76 338 74.5 c 0
 352 73 352 73 366 72 c 0
 435 71 435 71 487.5 108 c 0
 540 145 540 145 566 198 c 0
 571 213 571 213 573 228.5 c 0
 575 244 575 244 575 260 c 0
 575 302 575 302 560.5 341.5 c 0
 546 381 546 381 522 412 c 0
 485 451 485 451 440 476 c 0
 395 501 395 501 341 500 c 0
 316 500 316 500 290 494 c 0
 264 488 264 488 237 476 c 1
 265 513 265 513 302 544 c 0
 339 575 339 575 379 604 c 0
 409 626 409 626 438.5 646 c 0
 468 666 468 666 493 685 c 1
 493 685 l 1
317 477 m 1
 322 478 322 478 327 478 c 2
 336 478 l 2
 378 478 378 478 414 460 c 0
 450 442 450 442 483 421 c 0
 484 420 484 420 485 419.5 c 0
 486 419 486 419 487 418 c 0
 515 385 515 385 535 347 c 0
 555 309 555 309 554 267 c 0
 554 254 554 254 551.5 240.5 c 0
 549 227 549 227 544 213 c 0
 533 176 533 176 504 151 c 0
 475 126 475 126 443 109 c 0
 439 107 439 107 435.5 104.5 c 0
 432 102 432 102 428 100 c 0
 413 97 413 97 397.5 95.5 c 0
 382 94 382 94 366 94 c 0
 319 94 319 94 275 110 c 0
 231 126 231 126 200 161 c 0
 174 186 174 186 164.5 217 c 0
 155 248 155 248 155 282 c 0
 155 289 155 289 155.5 295.5 c 0
 156 302 156 302 156 308 c 0
 157 321 157 321 159.5 335 c 0
 162 349 162 349 165 361 c 0
 177 405 177 405 213 430.5 c 0
 249 456 249 456 290 469 c 0
 297 471 297 471 303.5 473 c 0
 310 475 310 475 317 477 c 1
 317 477 l 1
440 371 m 1
 422 391 422 391 399.5 399.5 c 0
 377 408 377 408 350 408 c 2
 346 408 l 1
 343 408 l 2
 341 407 341 407 339 407 c 2
 335 407 l 2
 305 404 305 404 280.5 382 c 0
 256 360 256 360 240 336 c 0
 236 331 236 331 232 324.5 c 0
 228 318 228 318 225 313 c 0
 224 310 224 310 224 307 c 2
 224 301 l 2
 224 295 224 295 225 290 c 0
 226 285 226 285 228 280 c 0
 230 277 230 277 231.5 273 c 0
 233 269 233 269 234 265 c 0
 236 262 236 262 238 258 c 0
 240 254 240 254 241 249 c 0
 255 218 255 218 279 198 c 0
 303 178 303 178 338 178 c 2
 338.5 178 l 1
 340 178 l 1
 341.5 178 l 1
 342 178 l 1
 381 183 381 183 412.5 209.5 c 0
 444 236 444 236 464 267 c 0
 469 275 469 275 471.5 282.5 c 0
 474 290 474 290 474 297 c 0
 473 311 473 311 467 324 c 0
 461 337 461 337 453 349 c 0
 450 355 450 355 446.5 360.5 c 0
 443 366 443 366 440 371 c 1
 440 371 l 1
EndSplineSet
Validated: 524325
EndChar

StartChar: eight
Encoding: 28 55 25
Width: 703
Flags: W
LayerCount: 2
Fore
SplineSet
498 775 m 1
 516 777 516 777 538.5 778.5 c 0
 561 780 561 780 585 780 c 2
 590.5 780 l 1
 595 780 l 2
 615 779 615 779 635 777 c 0
 655 775 655 775 671 770 c 1
 570 596 570 596 513.5 401 c 0
 457 206 457 206 428 1 c 1
 421 1 421 1 413.5 0.5 c 0
 406 0 406 0 398 0 c 2
 383.5 0 l 1
 369 0 l 1
 338.5 0 l 1
 307 1 l 2
 262 2 262 2 216.5 5.5 c 0
 171 9 171 9 129 15 c 1
 158 108 158 108 199 197 c 0
 240 286 240 286 285 373 c 0
 286 376 286 376 288 379.5 c 0
 290 383 290 383 291 386 c 0
 317 437 317 437 342.5 488 c 0
 368 539 368 539 390 591 c 1
 376 593 376 593 361 593.5 c 0
 346 594 346 594 332 594 c 0
 294 594 294 594 256.5 589 c 0
 219 584 219 584 182 578 c 0
 174 576 174 576 167 574.5 c 0
 160 573 160 573 153 571 c 0
 123 566 123 566 92.5 561 c 0
 62 556 62 556 32 553 c 1
 37 775 l 1
 56 777 56 777 75.5 778 c 0
 95 779 95 779 115 779 c 0
 124 780 124 780 134 780 c 2
 154 780 l 2
 182 780 182 780 209.5 779 c 0
 237 778 237 778 265 777 c 2
 345 775 l 1
 426 774 l 1
 444 774 l 1
 462 774 l 1
 479.5 774.5 l 1
 498 775 l 1
 498 775 l 1
527 690 m 1
 492.5 691 l 2
 458 692 458 692 406 693 c 0
 375 694 375 694 340 694.5 c 0
 305 695 305 695 269 695 c 0
 243 696 243 696 218 696 c 2
 169 696 l 2
 166 693 166 693 160.5 692.5 c 0
 155 692 155 692 150 691 c 2
 149 691 l 1
 148 691 l 2
 139 691 139 691 132.5 689 c 0
 126 687 126 687 126 679 c 0
 126 677 126 677 127 674.5 c 0
 128 672 128 672 129 668 c 1
 174 673 174 673 219 675 c 0
 264 677 264 677 308 677 c 0
 332 677 332 677 354.5 676.5 c 0
 377 676 377 676 400 674 c 0
 423 673 423 673 446 670.5 c 0
 469 668 469 668 492 665 c 1
 484 647 l 1
 477 629 l 2
 424 500 424 500 374 369 c 0
 324 238 324 238 290 102 c 1
 293.5 102 l 1
 297 102 l 2
 298 101 298 101 300 101 c 2
 303 101 l 2
 307 101 307 101 310.5 102.5 c 0
 314 104 314 104 316 109 c 2
 413 410 l 2
 423 440 423 440 436.5 469 c 0
 450 498 450 498 463 526 c 0
 470 540 470 540 476.5 554.5 c 0
 483 569 483 569 489 583 c 0
 501 610 501 610 511 636.5 c 0
 521 663 521 663 527 690 c 1
 527 690 l 1
EndSplineSet
Validated: 524293
EndChar

StartChar: nine
Encoding: 29 56 26
Width: 618
Flags: W
LayerCount: 2
Fore
SplineSet
81 670 m 1
 118 720 118 720 178.5 748 c 0
 239 776 239 776 304 780 c 1
 313.5 780 l 1
 323 780 l 2
 373 780 373 780 419.5 765.5 c 0
 466 751 466 751 502 720 c 1
 536 685 536 685 558 647 c 0
 580 609 580 609 580 561 c 2
 580 552.5 l 1
 579 543 l 1
 579 497 579 497 559 458.5 c 0
 539 420 539 420 507 387 c 1
 547 358 547 358 569 311 c 0
 591 264 591 264 591 213 c 0
 590 200 590 200 588.5 186.5 c 0
 587 173 587 173 584 160 c 0
 571 120 571 120 539.5 87.5 c 0
 508 55 508 55 472 33 c 0
 467 29 467 29 461.5 26 c 0
 456 23 456 23 451 19 c 0
 422 13 422 13 389 8 c 0
 356 3 356 3 323 1 c 0
 316 0 316 0 308 0 c 2
 293 0 l 2
 246 0 246 0 201.5 11 c 0
 157 22 157 22 123 49 c 0
 82 87 82 87 55.5 129 c 0
 29 171 29 171 29 222 c 2
 29 232 l 1
 30 241 l 1
 30 286 30 286 51 320.5 c 0
 72 355 72 355 100 387 c 1
 97 392 97 392 94.5 397.5 c 0
 92 403 92 403 89 410 c 0
 76 438 76 438 63.5 468.5 c 0
 51 499 51 499 45 530 c 2
 43 550 l 1
 42 569 l 2
 42 596 42 596 51 621.5 c 0
 60 647 60 647 81 670 c 1
 81 670 l 1
495 582 m 1
 485 618 485 618 458 641.5 c 0
 431 665 431 665 401 683 c 0
 396 687 396 687 390 690.5 c 0
 384 694 384 694 379 697 c 0
 363 702 363 702 345 705 c 0
 327 708 327 708 308 707 c 2
 300 707 l 1
 293 707 l 2
 251 704 251 704 211.5 687 c 0
 172 670 172 670 144 636 c 1
 133 611 133 611 125 585.5 c 0
 117 560 117 560 117 534 c 0
 117 524 117 524 118.5 513 c 0
 120 502 120 502 123 490 c 0
 126 483 126 483 130 476 c 2
 138 462 l 2
 156 429 156 429 183.5 400.5 c 0
 211 372 211 372 246 365 c 1
 243 364 243 364 240.5 362.5 c 0
 238 361 238 361 236 359 c 0
 229 356 229 356 221.5 352.5 c 0
 214 349 214 349 206 345 c 0
 203 343 203 343 199.5 341.5 c 0
 196 340 196 340 191 338 c 0
 154 321 154 321 138 286.5 c 0
 122 252 122 252 119 215 c 0
 118 212 118 212 118 209.5 c 2
 118 205 l 2
 119 199 119 199 121 193 c 2
 125 181 l 2
 135 148 135 148 156 119 c 0
 177 90 177 90 212 76 c 2
 224 72 l 1
 237 68 l 2
 245 65 245 65 252.5 62 c 0
 260 59 260 59 268 57 c 0
 276 55 276 55 283.5 54 c 0
 291 53 291 53 298 53 c 0
 305 53 305 53 311.5 54.5 c 0
 318 56 318 56 325 58 c 0
 330 57 330 57 335.5 56.5 c 0
 341 56 341 56 347 56 c 0
 355 56 355 56 364 57 c 0
 373 58 373 58 381 60 c 0
 407 65 407 65 431.5 79 c 0
 456 93 456 93 472 116 c 0
 485 134 485 134 492.5 156.5 c 0
 500 179 500 179 500 203 c 0
 500 208 500 208 499.5 212.5 c 0
 499 217 499 217 499 222 c 0
 498 226 498 226 497 231.5 c 0
 496 237 496 237 495 241 c 0
 487 280 487 280 457 305.5 c 0
 427 331 427 331 392 348 c 0
 388 350 388 350 383.5 352.5 c 0
 379 355 379 355 374 357 c 1
 389 363.5 l 2
 404 370 404 370 423 382 c 0
 431 388 431 388 440 396 c 0
 449 404 449 404 456 414 c 0
 479 440 479 440 489.5 471 c 0
 500 502 500 502 499 537 c 0
 499 548 499 548 498 559 c 0
 497 570 497 570 495 582 c 1
 495 582 l 1
263 342 m 1
 272 344 272 344 281 344 c 2
 298 344 l 2
 340 344 340 344 376 330 c 0
 412 316 412 316 440 294 c 0
 442 290 442 290 444 286.5 c 0
 446 283 446 283 449 279 c 0
 460 261 460 261 468.5 240 c 0
 477 219 477 219 477 197 c 0
 477 190 477 190 476 181.5 c 0
 475 173 475 173 472 165 c 0
 464 136 464 136 445.5 117 c 0
 427 98 427 98 400 84 c 0
 384 80 384 80 366 77 c 0
 348 74 348 74 330 73 c 2
 322 73 l 1
 314 73 l 2
 289 73 289 73 266 77 c 0
 243 81 243 81 222 91 c 0
 189 105 189 105 170.5 134 c 0
 152 163 152 163 144 196 c 0
 142 205 142 205 141 213.5 c 0
 140 222 140 222 139 231 c 0
 149 273 149 273 185 305 c 0
 221 337 221 337 263 342 c 1
 263 342 l 1
384 231 m 1
 369 246 369 246 351 257.5 c 0
 333 269 333 269 309 268 c 2
 307 268 l 1
 306 268 l 1
 304 268 l 1
 302 268 l 2
 297 265 297 265 291 262.5 c 0
 285 260 285 260 278 258 c 0
 276 257 276 257 274 256.5 c 0
 272 256 272 256 270 255 c 0
 253 249 253 249 238 238.5 c 0
 223 228 223 228 223 205 c 0
 225 201 225 201 226 196 c 0
 227 191 227 191 227 186 c 2
 227.5 185.5 l 1
 228 185 l 1
 230 172 230 172 235 160 c 0
 240 148 240 148 256 142 c 0
 258 142 258 142 260 141.5 c 0
 262 141 262 141 264 140 c 0
 273 138 273 138 284 135.5 c 0
 295 133 295 133 305 132 c 2
 314 132 l 1
 323 132 l 2
 340 132 340 132 355.5 137.5 c 0
 371 143 371 143 384 158 c 0
 390 166 390 166 392.5 175.5 c 0
 395 185 395 185 395 196 c 0
 395 206 395 206 392 215 c 0
 389 224 389 224 384 231 c 1
 384 231 l 1
170 631 m 1
 193 661 193 661 226.5 674 c 0
 260 687 260 687 296 687 c 0
 329 687 329 687 359 678 c 0
 389 669 389 669 414 652 c 1
 441 627 441 627 459.5 599 c 0
 478 571 478 571 478 535 c 2
 478 533 l 1
 478 532 l 1
 478 530.5 l 1
 478 529 l 1
 472 485 472 485 448 447 c 0
 424 409 424 409 381 385 c 0
 365 378 365 378 348.5 375 c 0
 332 372 332 372 314 372 c 0
 291 372 291 372 269.5 377 c 0
 248 382 248 382 226 392 c 1
 198 414 198 414 175 441.5 c 0
 152 469 152 469 147 507 c 2
 145 523 l 1
 144 539 l 2
 144 566 144 566 152 587.5 c 0
 160 609 160 609 170 631 c 1
 170 631 l 1
400 535 m 1
 387 568 387 568 357 587.5 c 0
 327 607 327 607 294 616 c 0
 292 616 292 616 289.5 617 c 0
 287 618 287 618 285 618 c 0
 282 617 282 617 279 615.5 c 0
 276 614 276 614 273 612 c 0
 272 612 272 612 271.5 611.5 c 0
 271 611 271 611 270 611 c 0
 255 603 255 603 241 594.5 c 0
 227 586 227 586 218 569 c 0
 216 563 216 563 214.5 557 c 0
 213 551 213 551 213 545 c 0
 213 541 213 541 213.5 537.5 c 0
 214 534 214 534 214 530 c 0
 217 514 217 514 226.5 498 c 0
 236 482 236 482 246 470 c 0
 252 467 252 467 257 462.5 c 0
 262 458 262 458 268 453 c 0
 278 444 278 444 290 436 c 0
 302 428 302 428 316 428 c 0
 321 428 321 428 326 429 c 0
 331 430 331 430 335 431 c 0
 339 434 339 434 344 438 c 0
 349 442 349 442 354 447 c 0
 371 462 371 462 386 484 c 0
 401 506 401 506 400 530 c 2
 400 530.5 l 1
 400 532 l 1
 400 534 l 1
 400 535 l 1
 400 535 l 1
EndSplineSet
Validated: 524325
EndChar

StartChar: colon
Encoding: 30 57 27
Width: 697
Flags: W
LayerCount: 2
Fore
SplineSet
193 752 m 1
 229 766 229 766 267 773 c 0
 305 780 305 780 343 780 c 0
 433 779 433 779 513.5 737.5 c 0
 594 696 594 696 638 611 c 0
 652 579 652 579 659 545.5 c 0
 666 512 666 512 666 478 c 2
 666 473.5 l 1
 666 468 l 2
 664 385 664 385 627 305 c 0
 590 225 590 225 537 166 c 0
 527 157 527 157 516 147 c 0
 505 137 505 137 495 128 c 0
 442 80 442 80 382.5 40 c 0
 323 0 323 0 252 0 c 2
 247.5 0 l 1
 243 0 l 1
 31 63 l 1
 46 74 46 74 62 85 c 0
 78 96 78 96 94 108 c 0
 102 113 102 113 111 118.5 c 0
 120 124 120 124 128 130 c 0
 158 149 158 149 187.5 171.5 c 0
 217 194 217 194 243 221 c 1
 233 227 233 227 221.5 235 c 0
 210 243 210 243 200 251 c 0
 146 291 146 291 98.5 347 c 0
 51 403 51 403 42 474 c 0
 41 479 41 479 40.5 483.5 c 0
 40 488 40 488 40 494 c 0
 39 499 39 499 39 503.5 c 2
 39 513 l 2
 39 592 39 592 82 654.5 c 0
 125 717 125 717 193 752 c 1
 193 752 l 1
546 596 m 1
 511 646 511 646 463 678 c 0
 415 710 415 710 354 710 c 0
 345 710 345 710 336 709.5 c 0
 327 709 327 709 317 707 c 0
 260 695 260 695 211 658.5 c 0
 162 622 162 622 136 565 c 0
 132 550 132 550 130 534.5 c 0
 128 519 128 519 128 504 c 0
 128 479 128 479 133.5 455 c 0
 139 431 139 431 152 408 c 0
 190 341 190 341 258 308 c 0
 326 275 326 275 403 275 c 0
 405 277 405 277 408 279 c 2
 414 283 l 2
 419 286 419 286 424 288.5 c 0
 429 291 429 291 434 294 c 0
 439 296 439 296 444.5 297 c 0
 450 298 450 298 454 298 c 0
 458 298 458 298 461 297 c 0
 464 296 464 296 467 294 c 1
 438 257 438 257 400 222 c 0
 362 187 362 187 324 157 c 0
 300 139 300 139 277.5 122.5 c 0
 255 106 255 106 233 92 c 1
 274 96 274 96 310 121.5 c 0
 346 147 346 147 380 178 c 0
 394 191 394 191 409.5 204.5 c 0
 425 218 425 218 439 229 c 0
 490 283 490 283 530 351 c 0
 570 419 570 419 570 494 c 0
 570 520 570 520 564.5 545 c 0
 559 570 559 570 546 596 c 1
 546 596 l 1
243 657 m 1
 263 670 263 670 290 678 c 0
 317 686 317 686 345 687 c 2
 350 687 l 1
 354 687 l 2
 385 687 385 687 413.5 678.5 c 0
 442 670 442 670 462 652 c 0
 507 621 507 621 525.5 576.5 c 0
 544 532 544 532 546 481 c 2
 546 476.5 l 1
 546 471 l 2
 546 435 546 435 531 405 c 0
 516 375 516 375 496 349 c 1
 467 323 467 323 434 311 c 0
 401 299 401 299 366 300 c 0
 356 300 356 300 344.5 301 c 0
 333 302 333 302 323 304 c 0
 312 306 312 306 301 309 c 0
 290 312 290 312 279 316 c 0
 229 346 229 346 190.5 390 c 0
 152 434 152 434 152 496 c 2
 152 496.5 l 1
 152 498 l 1
 152 499.5 l 1
 152 500 l 2
 154 548 154 548 178.5 589.5 c 0
 203 631 203 631 243 657 c 1
 243 657 l 1
467 522 m 1
 458 558 458 558 428 580 c 0
 398 602 398 602 365 602 c 0
 353 602 353 602 341 599 c 0
 329 596 329 596 317 588 c 2
 308 579 l 1
 298 570 l 2
 295 567 295 567 291.5 564 c 0
 288 561 288 561 284 558 c 0
 264 542 264 542 246.5 523 c 0
 229 504 229 504 229 477 c 0
 229 472 229 472 230.5 466 c 0
 232 460 232 460 233 454 c 0
 240 435 240 435 253.5 419.5 c 0
 267 404 267 404 282 394 c 0
 287 390 287 390 292 387 c 0
 297 384 297 384 301 382 c 0
 312 378 312 378 324.5 375.5 c 0
 337 373 337 373 349 373 c 0
 373 373 373 373 394.5 381 c 0
 416 389 416 389 432 404 c 0
 449 422 449 422 460.5 445 c 0
 472 468 472 468 472 493 c 0
 472 500 472 500 471 507.5 c 0
 470 515 470 515 467 522 c 1
 467 522 l 1
EndSplineSet
Validated: 524321
EndChar

StartChar: semicolon
Encoding: 31 58 28
Width: 420
Flags: W
LayerCount: 2
Fore
SplineSet
221 267 m 1
 402 125 l 1
 236 -69 l 1
 31 88 l 1
 205 267 l 1
 221 267 l 1
 221 267 l 1
252 94 m 1
 252 95.5 l 1
 252 97 l 1
 252 97.5 l 1
 252 99 l 2
 252 108 252 108 245.5 115 c 0
 239 122 239 122 230 127 c 2
 222 131 l 1
 215 134 l 1
 189 99 l 1
 210 83 l 2
 213 78 213 78 216 76 c 0
 219 74 219 74 222 74 c 0
 226 74 226 74 229.5 77 c 0
 233 80 233 80 237 84 c 1
 237 84 l 1
 238 84 l 1
 241 88 241 88 244.5 91 c 0
 248 94 248 94 252 94 c 1
 252 94 l 1
184 638 m 1
 220 627 220 627 250.5 604 c 0
 281 581 281 581 310 555 c 2
 310.5 554.5 l 1
 312 553 l 2
 330 538 330 538 349.5 522 c 0
 369 506 369 506 389 494 c 1
 372 469 372 469 351.5 442.5 c 0
 331 416 331 416 308 389 c 0
 298 376 298 376 287 363 c 2
 265 337 l 1
 242 310.5 l 1
 219 284 l 1
 180 307 180 307 144.5 337 c 0
 109 367 109 367 75 398 c 0
 61 412 61 412 46.5 425.5 c 0
 32 439 32 439 17 453 c 1
 43 491 43 491 76 526.5 c 0
 109 562 109 562 143 597 c 2
 163.5 617.5 l 1
 184 638 l 1
 184 638 l 1
236 477 m 1
 232 488 232 488 226 493 c 0
 220 498 220 498 214 498 c 2
 212 498 l 1
 210 498 l 2
 202 496 202 496 194.5 489.5 c 0
 187 483 187 483 181 477 c 2
 177 471 l 1
 173 465 l 1
 195 440 l 2
 198 439 198 439 200.5 438 c 0
 203 437 203 437 205 437 c 0
 213 437 213 437 218.5 444.5 c 0
 224 452 224 452 228 461 c 0
 230 465 230 465 232 469.5 c 0
 234 474 234 474 236 477 c 1
 236 477 l 1
EndSplineSet
Validated: 524293
EndChar

StartChar: less
Encoding: 32 59 29
Width: 420
Flags: W
LayerCount: 2
Fore
SplineSet
137 254 m 1
 148 253 148 253 159.5 252.5 c 0
 171 252 171 252 182 251 c 0
 187 251 187 251 192.5 250.5 c 0
 198 250 198 250 203 250 c 0
 232 248 232 248 259.5 246 c 0
 287 244 287 244 313 244 c 2
 317 244 l 1
 323 244 l 1
 327 244 l 1
 331 244 l 1
 301 150 301 150 256 62.5 c 0
 211 -25 211 -25 152 -106 c 1
 0 -98 l 1
 40 -12 40 -12 74 76 c 0
 108 164 108 164 137 254 c 1
 137 254 l 1
210 170 m 1
 194 170 l 1
 187 147 187 147 177.5 124 c 0
 168 101 168 101 158 79 c 0
 146 51 146 51 134 24.5 c 0
 122 -2 122 -2 116 -28 c 1
 147 7 147 7 166.5 48 c 0
 186 89 186 89 200 131 c 0
 203 141 203 141 205.5 151 c 0
 208 161 208 161 210 170 c 1
 210 170 l 1
184 638 m 1
 220 627 220 627 250.5 604 c 0
 281 581 281 581 310 555 c 2
 310.5 554.5 l 1
 312 553 l 2
 330 538 330 538 349.5 522 c 0
 369 506 369 506 389 494 c 1
 372 469 372 469 351.5 442.5 c 0
 331 416 331 416 308 389 c 0
 298 376 298 376 287 363 c 2
 265 337 l 1
 242 310.5 l 1
 219 284 l 1
 180 307 180 307 144.5 337 c 0
 109 367 109 367 75 398 c 0
 61 412 61 412 46.5 425.5 c 0
 32 439 32 439 17 453 c 1
 43 491 43 491 76 526.5 c 0
 109 562 109 562 143 597 c 2
 163.5 617.5 l 1
 184 638 l 1
 184 638 l 1
236 477 m 1
 232 488 232 488 226 493 c 0
 220 498 220 498 214 498 c 2
 212 498 l 1
 210 498 l 2
 202 496 202 496 194.5 489.5 c 0
 187 483 187 483 181 477 c 2
 177 471 l 1
 173 465 l 1
 195 440 l 2
 198 439 198 439 200.5 438 c 0
 203 437 203 437 205 437 c 0
 213 437 213 437 218.5 444.5 c 0
 224 452 224 452 228 461 c 0
 230 465 230 465 232 469.5 c 0
 234 474 234 474 236 477 c 1
 236 477 l 1
EndSplineSet
Validated: 524293
EndChar

StartChar: greater
Encoding: 34 61 31
Width: 491
Flags: W
LayerCount: 2
Fore
SplineSet
464 362 m 1
 471 349 l 1
 463 305 463 305 453.5 261.5 c 0
 444 218 444 218 434 174 c 1
 422 165 l 1
 20 160 l 1
 13 174 l 1
 97 365 l 1
 464 362 l 1
 464 362 l 1
376 269 m 1
 363 277 363 277 336 280 c 0
 309 283 309 283 276 283 c 2
 267 283 l 1
 258 283 l 2
 247 283 247 283 236 282.5 c 0
 225 282 225 282 215 282 c 0
 201 282 201 282 188 281.5 c 0
 175 281 175 281 165 281 c 2
 159.5 281 l 1
 155 281 l 2
 150 280 150 280 145.5 275.5 c 0
 141 271 141 271 141 264 c 2
 141 263.5 l 1
 141 262 l 1
 141 260.5 l 1
 141 260 l 1
 157 262 157 262 181 262 c 0
 205 262 205 262 232 261 c 2
 243 261 l 1
 254 261 l 1
 264.5 261 l 1
 275 261 l 2
 306 261 306 261 332.5 262.5 c 0
 359 264 359 264 376 269 c 1
 376 269 l 1
464 621 m 1
 471 606 l 1
 463 562 463 562 453.5 518.5 c 0
 444 475 444 475 434 432 c 1
 422 422 l 1
 20 418 l 1
 13 432 l 1
 97 623 l 1
 464 621 l 1
 464 621 l 1
376 526 m 1
 363 534 363 534 333.5 537.5 c 0
 304 541 304 541 270 541 c 2
 266 541 l 1
 262 541 l 2
 250 541 250 541 237.5 540.5 c 0
 225 540 225 540 213 540 c 0
 200 540 200 540 187.5 539.5 c 0
 175 539 175 539 166 539 c 2
 160 539 l 1
 155 539 l 2
 150 538 150 538 145 533 c 0
 140 528 140 528 141 521 c 2
 141 519.5 l 1
 141 518 l 1
 156 519 156 519 179 519 c 0
 202 519 202 519 227 518 c 2
 242.5 518 l 1
 258 518 l 1
 269 518 l 1
 280 518 l 2
 310 518 310 518 335 519.5 c 0
 360 521 360 521 376 526 c 1
 376 526 l 1
EndSplineSet
Validated: 524293
EndChar

StartChar: at
Encoding: 36 63 33
Width: 390
Flags: W
LayerCount: 2
Fore
SplineSet
197 780 m 1
 242 765 242 765 275.5 729 c 0
 309 693 309 693 335 654 c 0
 336 653 336 653 336.5 651.5 c 0
 337 650 337 650 338 649 c 0
 342 641 342 641 344 633 c 0
 346 625 346 625 347 616 c 0
 347 612 347 612 347.5 608 c 0
 348 604 348 604 348 600 c 0
 348 572 348 572 338.5 547 c 0
 329 522 329 522 316 498 c 0
 313 491 313 491 309.5 483 c 0
 306 475 306 475 303 468 c 0
 295 451 295 451 290 433.5 c 0
 285 416 285 416 285 398 c 0
 285 379 285 379 293.5 359 c 0
 302 339 302 339 322 317 c 0
 328 307 328 307 334 300 c 0
 340 293 340 293 347 287 c 0
 352 282 352 282 358.5 276 c 0
 365 270 365 270 371 263 c 1
 274 183 l 1
 282 171 282 171 294.5 160.5 c 0
 307 150 307 150 321 139 c 0
 323 138 323 138 325.5 136.5 c 0
 328 135 328 135 330 133 c 0
 348 119 348 119 362.5 104 c 0
 377 89 377 89 377 69 c 2
 377 66.5 l 1
 377 62 l 1
 359 56 359 56 342 41 c 0
 325 26 325 26 309 8 c 2
 306 5 l 1
 304 2 l 1
 285 -17 285 -17 265.5 -33 c 0
 246 -49 246 -49 222 -49 c 0
 212 -49 212 -49 200.5 -45 c 0
 189 -41 189 -41 177 -33 c 0
 161 -21 161 -21 143.5 -8.5 c 0
 126 4 126 4 109 16 c 0
 98 25 98 25 86 34 c 2
 62 52 l 1
 159 167 l 1
 149 180 149 180 134.5 190.5 c 0
 120 201 120 201 104 210 c 2
 101 211.5 l 1
 98 213 l 2
 73 227 73 227 51.5 245.5 c 0
 30 264 30 264 26 298 c 1
 20 310 20 310 17 322 c 0
 14 334 14 334 14 345 c 0
 14 371 14 371 25 394 c 0
 36 417 36 417 48 439 c 0
 51 443 51 443 53.5 448.5 c 0
 56 454 56 454 58 458 c 0
 67 476 67 476 74.5 494 c 0
 82 512 82 512 82 531 c 0
 82 547 82 547 75.5 565 c 0
 69 583 69 583 51 601 c 2
 2 654 l 1
 197 780 l 1
 197 780 l 1
242 87 m 1
 239 92 239 92 235 93.5 c 0
 231 95 231 95 226 95 c 2
 224 95 l 1
 223 94 l 1
 216 93 216 93 210 88 c 0
 204 83 204 83 202 76 c 1
 207 69 207 69 213 65 c 0
 219 61 219 61 226 62 c 2
 227.5 62 l 1
 229 62 l 1
 229.5 62 l 1
 231 62 l 1
 236 67 236 67 239 73 c 0
 242 79 242 79 242 87 c 1
 242 87 l 1
220 601 m 1
 219 604 219 604 218.5 606.5 c 0
 218 609 218 609 216 611 c 0
 210 625 210 625 197.5 637 c 0
 185 649 185 649 170 649 c 1
 161 639 161 639 165.5 631.5 c 0
 170 624 170 624 178 616 c 2
 179 615.5 l 2
 180 615 180 615 180 614 c 0
 186 609 186 609 191 604 c 0
 196 599 196 599 197 593 c 2
 197 590.5 l 1
 197 588 l 1
 197 585 l 1
 197 582 l 2
 197 550 197 550 188 519.5 c 0
 179 489 179 489 168 460 c 0
 167 458 167 458 166.5 456 c 0
 166 454 166 454 165 453 c 0
 155 424 155 424 145.5 396 c 0
 136 368 136 368 134 337 c 1
 147 314 147 314 168 296.5 c 0
 189 279 189 279 213 275 c 1
 218 288 l 1
 189 307 189 307 177.5 327 c 0
 166 347 166 347 166 369 c 0
 166 392 166 392 175 415.5 c 0
 184 439 184 439 197 464 c 0
 208 489 208 489 217 514.5 c 0
 226 540 226 540 226 565 c 0
 226 570 226 570 225.5 574.5 c 0
 225 579 225 579 225 584 c 0
 224 588 224 588 223 592.5 c 0
 222 597 222 597 220 601 c 1
 220 601 l 1
EndSplineSet
Validated: 524293
EndChar

StartChar: B
Encoding: 38 65 35
Width: 917
Flags: W
LayerCount: 2
Fore
SplineSet
591 777 m 1
 598 773 598 773 640.5 666.5 c 0
 683 560 683 560 732 427 c 0
 736 418 736 418 739.5 408 c 0
 743 398 743 398 746 389 c 0
 795 256 795 256 834 142 c 0
 873 28 873 28 876 5 c 1
 625 5 l 1
 617 14 617 14 609.5 26 c 0
 602 38 602 38 597 49 c 0
 587 74 587 74 582.5 94 c 2
 578 114 l 1
 556 110 556 110 529 109 c 0
 502 108 502 108 473 108 c 2
 469 108 l 1
 465 108 l 2
 449 108 449 108 432.5 108.5 c 0
 416 109 416 109 400 109 c 0
 384 109 384 109 368 109.5 c 0
 352 110 352 110 340 110 c 2
 332 110 l 1
 324 110 l 1
 320 103 320 103 316 89 c 0
 312 75 312 75 307 60 c 0
 301 37 301 37 293.5 19.5 c 0
 286 2 286 2 276 4 c 2
 51 7 l 2
 50 8 50 8 49.5 10 c 0
 49 12 49 12 49 15 c 0
 49 47 49 47 98.5 174.5 c 0
 148 302 148 302 209 449 c 0
 246 541 246 541 281 628 c 0
 316 715 316 715 339 778 c 1
 356 777 356 777 383.5 776 c 0
 411 775 411 775 441 775 c 2
 449.5 775 l 1
 458 775 l 2
 477 775 477 775 496 775.5 c 0
 515 776 515 776 531 776 c 0
 551 776 551 776 566 776.5 c 0
 581 777 581 777 587 777 c 2
 590 777 l 1
 591 777 l 1
 591 777 l 1
509 674 m 1
 498 678 498 678 487.5 678.5 c 0
 477 679 477 679 467 679 c 0
 459 679 459 679 450 679.5 c 0
 441 680 441 680 431 684 c 1
 427 675 427 675 423 665.5 c 0
 419 656 419 656 415 648 c 0
 356 512 356 512 298 375.5 c 0
 240 239 240 239 189 101 c 1
 191.5 101 l 1
 194 101 l 2
 198 101 198 101 199.5 99.5 c 0
 201 98 201 98 202 96 c 0
 202 95 202 95 202.5 94 c 0
 203 93 203 93 203 92 c 0
 203 91 203 91 203 93 c 0
 203 95 203 95 206 102 c 0
 208 108 208 108 214 121 c 0
 220 134 220 134 226 148 c 0
 227 151 227 151 228 153.5 c 0
 229 156 229 156 230 159 c 0
 237 172 237 172 243 183 c 0
 249 194 249 194 253 198 c 2
 671 201 l 1
 678 189.5 l 2
 685 178 685 178 693 162 c 0
 697 154 697 154 701.5 145.5 c 0
 706 137 706 137 709 129 c 2
 713 115 l 1
 716 101 l 1
 721 97 721 97 726.5 98 c 0
 732 99 732 99 738 108 c 1
 701 206 701 206 661.5 304 c 0
 622 402 622 402 581 500 c 0
 563 544 563 544 544.5 587.5 c 0
 526 631 526 631 509 674 c 1
 509 674 l 1
489 656 m 1
 664 221 l 1
 270 221 l 1
 282 256 282 256 300.5 302.5 c 0
 319 349 319 349 339 397 c 0
 341 402 341 402 343.5 408 c 0
 346 414 346 414 348 420 c 0
 384 507 384 507 414 576 c 2
 444 645 l 2
 447 653 447 653 453 655 c 0
 459 657 459 657 465 656 c 2
 468.5 656 l 1
 471 656 l 1
 477 656 l 1
 483 656 l 1
 486.5 656 l 1
 489 656 l 1
 489 656 l 1
532 285 m 1
 530 300 530 300 525.5 316 c 0
 521 332 521 332 516 349 c 0
 507 375 507 375 493.5 400 c 0
 480 425 480 425 463 444 c 1
 458 433 458 433 452 422.5 c 0
 446 412 446 412 440 400 c 0
 424 371 424 371 411 341 c 0
 398 311 398 311 398 280 c 1
 404 281 404 281 410 281.5 c 0
 416 282 416 282 421 282 c 0
 430 282 430 282 438.5 281 c 0
 447 280 447 280 456 279 c 0
 460 278 460 278 464.5 277 c 0
 469 276 469 276 473 276 c 0
 477 276 477 276 481 275.5 c 0
 485 275 485 275 489 275 c 0
 499 275 499 275 510 277.5 c 0
 521 280 521 280 532 285 c 1
 532 285 l 1
EndSplineSet
Validated: 524293
EndChar

StartChar: C
Encoding: 39 66 36
Width: 724
Flags: W
LayerCount: 2
Fore
SplineSet
51 777 m 1
 73 773 73 773 96.5 771 c 0
 120 769 120 769 143 769 c 0
 170 769 170 769 197.5 770.5 c 0
 225 772 225 772 254 775 c 0
 282 777 282 777 309.5 778.5 c 0
 337 780 337 780 364 780 c 0
 433 780 433 780 492.5 760.5 c 0
 552 741 552 741 593 679 c 0
 596 675 596 675 599.5 671.5 c 0
 603 668 603 668 606 664 c 0
 611 659 611 659 616 653.5 c 0
 621 648 621 648 626 643 c 0
 648 620 648 620 666 595.5 c 0
 684 571 684 571 683 543 c 0
 683 533 683 533 680.5 521.5 c 0
 678 510 678 510 671 499 c 2
 575 370 l 1
 584 355 584 355 597 340 c 0
 610 325 610 325 624 310 c 0
 625 309 625 309 625.5 308 c 0
 626 307 626 307 627 306 c 0
 652 280 652 280 672 253 c 0
 692 226 692 226 692 194 c 0
 692 184 692 184 689.5 172.5 c 0
 687 161 687 161 682 150 c 0
 641 56 641 56 569 26.5 c 0
 497 -3 497 -3 411 -3 c 0
 376 -3 376 -3 340.5 -0.5 c 0
 305 2 305 2 269 5 c 0
 232 8 232 8 197 11 c 0
 162 14 162 14 127 14 c 0
 107 14 107 14 87.5 12.5 c 0
 68 11 68 11 48 8 c 1
 33 31 l 1
 43 774 l 1
 51 777 l 1
 51 777 l 1
451 679 m 1
 408 689 408 689 364.5 695 c 0
 321 701 321 701 276 701 c 0
 245 701 245 701 214 697.5 c 0
 183 694 183 694 152 686 c 1
 152 103 l 1
 174 103 174 103 195.5 102 c 0
 217 101 217 101 239 101 c 0
 262 100 262 100 283 99 c 0
 304 98 304 98 326 98 c 0
 367 98 367 98 405.5 103 c 0
 444 108 444 108 481 121 c 0
 508 129 508 129 525.5 152 c 0
 543 175 543 175 547 201 c 0
 547 204 547 204 547.5 206.5 c 0
 548 209 548 209 548 212 c 0
 543 251 543 251 516.5 286.5 c 0
 490 322 490 322 460 350 c 0
 448 361 448 361 435.5 371.5 c 0
 423 382 423 382 413 390 c 1
 456 403 456 403 490.5 434.5 c 0
 525 466 525 466 548 506 c 0
 550 513 550 513 550.5 519 c 0
 551 525 551 525 551 531 c 0
 551 562 551 562 532.5 585.5 c 0
 514 609 514 609 493 632 c 0
 491 633 491 633 489.5 634.5 c 2
 487 637 l 2
 477 647 477 647 467.5 657.5 c 0
 458 668 458 668 451 679 c 1
 451 679 l 1
178 380 m 1
 197.5 380 l 1
 218 380 l 2
 236 380 236 380 254.5 379.5 c 0
 273 379 273 379 293 378 c 0
 359 373 359 373 419 349.5 c 0
 479 326 479 326 508 256 c 0
 513 246 513 246 516.5 233.5 c 0
 520 221 520 221 520 208 c 0
 520 200 520 200 517.5 191.5 c 0
 515 183 515 183 508 176 c 0
 473 143 473 143 429 132 c 0
 385 121 385 121 337 121 c 0
 328 121 328 121 318.5 121.5 c 0
 309 122 309 122 300 122 c 0
 284 123 284 123 267.5 124.5 c 0
 251 126 251 126 234 127 c 0
 219 128 219 128 203.5 129.5 c 0
 188 131 188 131 174 132 c 1
 178 380 l 1
 178 380 l 1
413 250 m 1
 396 278 396 278 364.5 295.5 c 0
 333 313 333 313 295 313 c 2
 292 313 l 1
 289 313 l 2
 287 312 287 312 285.5 312 c 2
 282 312 l 1
 278 300 278 300 275 284.5 c 0
 272 269 272 269 272 253 c 0
 272 238 272 238 275 223 c 0
 278 208 278 208 282 195 c 1
 287 194 287 194 291 193.5 c 0
 295 193 295 193 299 193 c 0
 310 193 310 193 320.5 195.5 c 0
 331 198 331 198 341 201 c 0
 343 202 343 202 344.5 202.5 c 0
 346 203 346 203 348 203 c 0
 356 206 356 206 365.5 207.5 c 0
 375 209 375 209 384 209 c 2
 387.5 209 l 1
 390 209 l 2
 392 210 392 210 395 212 c 2
 401 216 l 2
 407 220 407 220 413 225.5 c 0
 419 231 419 231 418 238 c 0
 418 241 418 241 417 244 c 0
 416 247 416 247 413 250 c 1
 413 250 l 1
183 674 m 1
 203 672 l 1
 223 671 l 2
 237 671 237 671 252 672 c 0
 267 673 267 673 283 674 c 2
 313 676 l 1
 342 677 l 2
 377 677 377 677 408 667.5 c 0
 439 658 439 658 462 629 c 0
 466 624 466 624 470.5 619 c 0
 475 614 475 614 480 608 c 0
 496 591 496 591 509.5 570.5 c 0
 523 550 523 550 523 528 c 0
 523 525 523 525 522.5 522.5 c 0
 522 520 522 520 522 517 c 0
 521 514 521 514 520 511.5 c 0
 519 509 519 509 518 506 c 0
 502 475 502 475 476.5 449 c 0
 451 423 451 423 418 408 c 1
 398 406 398 406 377 404 c 0
 356 402 356 402 336 402 c 0
 326 401 326 401 315.5 401 c 2
 295 401 l 2
 266 401 266 401 236 402.5 c 0
 206 404 206 404 174 408 c 1
 183 674 l 1
 183 674 l 1
395 579 m 1
 377 591 377 591 355.5 597 c 0
 334 603 334 603 310 603 c 0
 305 603 305 603 299 602.5 c 0
 293 602 293 602 287 601 c 0
 286 598 286 598 285 594.5 c 0
 284 591 284 591 283 587 c 0
 281 579 281 579 278.5 569.5 c 0
 276 560 276 560 274 551 c 0
 273 544 273 544 272.5 537 c 0
 272 530 272 530 272 524 c 0
 272 511 272 511 276 499 c 0
 280 487 280 487 287 476 c 1
 296 475 296 475 305 474.5 c 0
 314 474 314 474 324 475 c 0
 351 475 351 475 374 482.5 c 0
 397 490 397 490 413 516 c 0
 414 521 414 521 414 526.5 c 2
 414 537 l 2
 414 549 414 549 410.5 559.5 c 0
 407 570 407 570 395 579 c 1
 395 579 l 1
EndSplineSet
Validated: 524325
EndChar

StartChar: D
Encoding: 40 67 37
Width: 593
Flags: W
LayerCount: 2
Fore
SplineSet
434 778 m 1
 566 610 l 1
 559 595 559 595 544 590 c 0
 529 585 529 585 512 582 c 0
 511 582 511 582 510 581.5 c 0
 509 581 509 581 507 581 c 0
 497 579 497 579 486 575 c 0
 475 571 475 571 466 565 c 0
 457 561 457 561 447.5 557 c 0
 438 553 438 553 429 548 c 0
 390 528 390 528 354 498.5 c 0
 318 469 318 469 298 428 c 0
 296 420 296 420 294.5 412 c 0
 293 404 293 404 293 396 c 0
 293 367 293 367 307.5 342.5 c 0
 322 318 322 318 338 296 c 0
 339 296 339 296 339.5 295 c 0
 340 294 340 294 341 293 c 0
 382 249 382 249 432 225 c 0
 482 201 482 201 535 184 c 0
 543 182 543 182 550.5 179.5 c 0
 558 177 558 177 566 175 c 1
 547 134 547 134 520 95 c 0
 493 56 493 56 464 19 c 0
 460 14 460 14 456.5 9.5 c 0
 453 5 453 5 449 0 c 1
 399 0 l 1
 387 5 387 5 374 10 c 0
 361 15 361 15 349 22 c 0
 246 68 246 68 153.5 144 c 0
 61 220 61 220 29 333 c 0
 28 341 28 341 27.5 349.5 c 0
 27 358 27 358 27 367 c 0
 28 463 28 463 77 549.5 c 0
 126 636 126 636 209 693 c 0
 218 697 218 697 227.5 702.5 c 0
 237 708 237 708 246 713 c 0
 251 716 251 716 256.5 719.5 c 0
 262 723 262 723 267 726 c 0
 301 746 301 746 337 763 c 0
 373 780 373 780 413 780 c 0
 418 780 418 780 423.5 779.5 c 0
 429 779 429 779 434 778 c 1
 434 778 l 1
412 666 m 1
 357 665 357 665 308.5 628.5 c 0
 260 592 260 592 217 550 c 0
 210 542 210 542 202 533.5 c 0
 194 525 194 525 186 518 c 0
 169 491 169 491 156.5 459.5 c 0
 144 428 144 428 142 395 c 2
 142 388.5 l 1
 142 382 l 2
 142 366 142 366 145 349 c 0
 148 332 148 332 156 315 c 0
 200 241 200 241 265 184.5 c 0
 330 128 330 128 409 108 c 1
 412 125 l 1
 403 133 403 133 391.5 137.5 c 0
 380 142 380 142 367 142 c 1
 295 187 295 187 234.5 246.5 c 0
 174 306 174 306 169 396 c 1
 177 467 177 467 225 518.5 c 0
 273 570 273 570 330 610 c 0
 352 625 352 625 372.5 639 c 0
 393 653 393 653 412 666 c 1
 412 666 l 1
EndSplineSet
Validated: 524293
EndChar

StartChar: E
Encoding: 41 68 38
Width: 783
Flags: W
LayerCount: 2
Fore
SplineSet
46 780 m 1
 76 779 76 779 105.5 779 c 2
 165 779 l 1
 172 779 l 1
 179 779 l 1
 201.5 779 l 1
 224 779 l 2
 335 779 335 779 436.5 759.5 c 0
 538 740 538 740 610 656 c 1
 664 600 664 600 706 532.5 c 0
 748 465 748 465 748 386 c 0
 748 369 748 369 745 351 c 0
 742 333 742 333 737 314 c 0
 711 209 711 209 634.5 133 c 0
 558 57 558 57 461 12 c 1
 422 5 422 5 383 2.5 c 0
 344 0 344 0 305 0 c 0
 266 0 266 0 227 2 c 0
 188 4 188 4 148 7 c 0
 120 8 120 8 91.5 9.5 c 0
 63 11 63 11 35 12 c 1
 36 82 36 82 37.5 152 c 0
 39 222 39 222 40 294 c 2
 42 372 l 1
 43 451 l 2
 45 534 45 534 46 616 c 0
 47 698 47 698 46 780 c 1
 46 780 l 1
593 519 m 1
 549 578 549 578 492.5 623.5 c 0
 436 669 436 669 370 684 c 0
 352 684 352 684 333.5 685.5 c 0
 315 687 315 687 298 689 c 0
 290 689 290 689 281 690 c 0
 272 691 272 691 264 692 c 0
 255 692 255 692 246.5 692.5 c 0
 238 693 238 693 229 693 c 0
 213 693 213 693 195.5 691 c 0
 178 689 178 689 160 684 c 1
 155 114 l 1
 184 110 184 110 213 106.5 c 0
 242 103 242 103 270 103 c 0
 361 103 361 103 442.5 134.5 c 0
 524 166 524 166 578 241 c 0
 602 271 602 271 614 307 c 0
 626 343 626 343 628 381 c 2
 628 386 l 1
 628 392 l 2
 628 426 628 426 619 459 c 0
 610 492 610 492 593 519 c 1
 593 519 l 1
365 656 m 1
 419 637 419 637 468 604.5 c 0
 517 572 517 572 555 524 c 1
 573 492 573 492 586.5 457 c 0
 600 422 600 422 600 383 c 2
 600 369 l 1
 598 355 l 2
 585 288 585 288 541 239 c 0
 497 190 497 190 439 154 c 1
 404 139 404 139 366 133 c 0
 328 127 328 127 288 127 c 0
 268 127 268 127 247.5 128 c 0
 227 129 227 129 208 130 c 0
 202 131 202 131 195 131.5 c 0
 188 132 188 132 182 132 c 1
 182 662 l 1
 195 667 195 667 209.5 669 c 0
 224 671 224 671 241 671 c 0
 252 671 252 671 263.5 670 c 0
 275 669 275 669 288 668 c 0
 298 667 298 667 307.5 665.5 c 0
 317 664 317 664 328 662 c 0
 337 661 337 661 346 659 c 0
 355 657 355 657 365 656 c 1
 365 656 l 1
445 497 m 1
 378 547 l 2
 371 548 371 548 363 550.5 c 0
 355 553 355 553 348 556 c 0
 347 557 347 557 346.5 557 c 2
 346 557 l 1
 338 561 338 561 330.5 563.5 c 0
 323 566 323 566 314 566 c 0
 308 565 308 565 302.5 563.5 c 0
 297 562 297 562 292 557 c 1
 287 263 l 1
 287 256.5 l 1
 287 250 l 2
 288 240 288 240 292.5 232 c 0
 297 224 297 224 309 228 c 1
 369 228 369 228 414.5 269 c 0
 460 310 460 310 483 359 c 0
 486 369 486 369 487.5 378.5 c 0
 489 388 489 388 489 397 c 0
 489 425 489 425 477 450 c 0
 465 475 465 475 445 497 c 1
 445 497 l 1
EndSplineSet
Validated: 524325
EndChar

StartChar: F
Encoding: 42 69 39
Width: 643
Flags: W
LayerCount: 2
Fore
SplineSet
35 763 m 1
 100 769 100 769 163.5 770 c 0
 227 771 227 771 292 770 c 2
 322 770 l 1
 351 770 l 2
 404 770 404 770 457 772 c 0
 510 774 510 774 563 780 c 1
 580 724 580 724 594.5 664.5 c 0
 609 605 609 605 613 545 c 1
 541 556 541 556 468 562.5 c 0
 395 569 395 569 318 569 c 2
 292 569 l 1
 264 568 l 1
 256 562 256 562 253 554.5 c 0
 250 547 250 547 250 539 c 0
 250 534 250 534 251 528 c 2
 253 516 l 2
 253 511 253 511 254 505.5 c 0
 255 500 255 500 255 494 c 2
 255 490 l 1
 255 486 l 1
 291 484 291 484 329.5 482 c 0
 368 480 368 480 406 480 c 0
 437 480 437 480 466.5 482 c 0
 496 484 496 484 524 489 c 1
 526 470 526 470 533 451 c 2
 547 413 l 2
 549 410 549 410 550.5 405.5 c 0
 552 401 552 401 553 397 c 0
 561 379 561 379 566 359.5 c 0
 571 340 571 340 571 319 c 0
 571 312 571 312 570 304 c 0
 569 296 569 296 567 288 c 1
 264 288 l 1
 259 279 259 279 256.5 267 c 0
 254 255 254 255 254 242 c 0
 254 232 254 232 255 222.5 c 0
 256 213 256 213 257 204 c 0
 258 201 258 201 258.5 198 c 0
 259 195 259 195 259 191 c 0
 292 187 292 187 323 185 c 0
 354 183 354 183 386 183 c 2
 404 183 l 1
 422 183 l 2
 446 184 446 184 469 185 c 2
 515 187 l 1
 560 189 l 1
 604 191 l 1
 606 187 606 187 607 183.5 c 0
 608 180 608 180 609 177 c 0
 609 173 609 173 609.5 169.5 c 0
 610 166 610 166 610 162 c 0
 610 149 610 149 606 135 c 0
 602 121 602 121 597 108 c 0
 597 106 597 106 596.5 104 c 0
 596 102 596 102 595 101 c 0
 591 89 591 89 587 77.5 c 0
 583 66 583 66 581 53 c 2
 563 0 l 1
 35 0 l 1
 32 104 32 104 31 204 c 0
 30 304 30 304 30 403 c 0
 30 491 30 491 31.5 580.5 c 0
 33 670 33 670 35 763 c 1
 35 763 l 1
494 660 m 1
 497 662 497 662 498 664 c 0
 499 666 499 666 499 668 c 0
 499 670 499 670 497.5 672 c 0
 496 674 496 674 494 677 c 0
 492 678 492 678 490.5 680 c 0
 489 682 489 682 488 684 c 2
 415.5 684 l 1
 344 685 l 1
 237.5 685 l 1
 132 685 l 1
 133 627 133 627 133.5 561.5 c 0
 134 496 134 496 134 429 c 2
 134 417.5 l 1
 134 407 l 2
 135 316 135 316 136.5 228 c 0
 138 140 138 140 143 71 c 1
 170 70 170 70 196.5 69 c 0
 223 68 223 68 251 68 c 2
 271.5 68 l 1
 292 69 l 2
 328 70 328 70 363.5 71 c 0
 399 72 399 72 434 74 c 0
 449 74 449 74 464 74.5 c 0
 479 75 479 75 494 76 c 1
 496 82 496 82 493 87 c 0
 490 92 490 92 486 95 c 0
 486 96 486 96 485 97 c 2
 483 99 l 1
 455 98 455 98 428 97 c 0
 401 96 401 96 375 95 c 2
 348 95 l 1
 321 95 l 2
 283 95 283 95 245 96.5 c 0
 207 98 207 98 168 99 c 1
 166 140 166 140 164.5 179 c 0
 163 218 163 218 163 256 c 0
 163 286 163 286 164.5 315 c 0
 166 344 166 344 168 373 c 1
 200 375 200 375 230 376 c 0
 260 377 260 377 290 377 c 0
 312 377 312 377 333.5 376.5 c 0
 355 376 355 376 378 376 c 0
 400 376 400 376 423 375.5 c 0
 446 375 446 375 471 375 c 1
 473 381 473 381 470.5 385 c 0
 468 389 468 389 464 392 c 0
 464 393 464 393 463 393.5 c 0
 462 394 462 394 461 395 c 2
 168 395 l 1
 166.5 413 l 2
 165 431 165 431 163 459 c 0
 161 476 161 476 160 496.5 c 0
 159 517 159 517 158 539 c 0
 157 550 157 550 157 561 c 2
 157 584 l 2
 157 608 157 608 158.5 627.5 c 0
 160 647 160 647 163 660 c 1
 494 660 l 1
 494 660 l 1
EndSplineSet
Validated: 524325
EndChar

StartChar: G
Encoding: 43 70 40
Width: 665
Flags: W
LayerCount: 2
Fore
SplineSet
60 780 m 1
 131 774 131 774 210 773 c 0
 289 772 289 772 369 772 c 2
 371.5 772 l 1
 374 772 l 1
 401 772 l 1
 428 772 l 2
 475 772 475 772 521.5 771 c 0
 568 770 568 770 612 768 c 1
 636 527 l 1
 620 530 620 530 603.5 533 c 0
 587 536 587 536 570 539 c 0
 523 547 523 547 473.5 554 c 0
 424 561 424 561 373 561 c 0
 354 561 354 561 334.5 560 c 0
 315 559 315 559 296 556 c 1
 291 546 291 546 288.5 534.5 c 0
 286 523 286 523 286 511 c 0
 286 504 286 504 287 496 c 0
 288 488 288 488 288 481 c 0
 289 471 289 471 290 462.5 c 0
 291 454 291 454 291 445 c 1
 321 436 321 436 354.5 433.5 c 0
 388 431 388 431 424 431 c 2
 446.5 431 l 1
 469 432 l 1
 480.5 432 l 1
 493 433 l 2
 509 433 509 433 526 433.5 c 0
 543 434 543 434 559 434 c 0
 565 433 565 433 571.5 433 c 2
 584 433 l 1
 588 409 588 409 591 385.5 c 0
 594 362 594 362 595 339 c 2
 597 317 l 1
 598 295 l 2
 600 277 600 277 601 258.5 c 0
 602 240 602 240 604 221 c 1
 589 211 l 1
 551 220 551 220 509.5 224 c 0
 468 228 468 228 426 229 c 2
 405 229 l 1
 384 229 l 1
 346 229 l 1
 308 228 l 1
 301 215 l 1
 314 4 l 1
 296 3 296 3 276.5 2 c 0
 257 1 257 1 237 1 c 0
 224 1 224 1 210 1.5 c 0
 196 2 196 2 181 2 c 0
 146 4 146 4 112.5 7.5 c 0
 79 11 79 11 48 15 c 1
 33 45 l 1
 38 145 38 145 41 233 c 0
 44 321 44 321 44 404 c 0
 44 490 44 490 41 579 c 0
 38 668 38 668 31 768 c 1
 60 780 l 1
 60 780 l 1
521 652 m 1
 521 669 l 1
 480 668 480 668 439 668 c 2
 357 668 l 2
 307 668 307 668 257 667.5 c 0
 207 667 207 667 158 666 c 1
 157 607 157 607 156.5 541.5 c 0
 156 476 156 476 156 411 c 2
 156 373.5 l 1
 156 337 l 1
 156 219.5 l 1
 155 110 l 2
 154 106 154 106 156 104 c 0
 158 102 158 102 162 102 c 2
 164.5 102 l 1
 167 102 l 1
 168.5 102 l 1
 169 103 l 1
 172.5 103 l 1
 175 103 l 1
 177 119 177 119 178 136.5 c 0
 179 154 179 154 180 171 c 2
 180 182.5 l 1
 180 195 l 2
 180 219 180 219 179 241 c 0
 178 263 178 263 177 283 c 0
 176 290 176 290 175.5 296 c 0
 175 302 175 302 175 308 c 2
 191 326 l 1
 493 321 l 1
 493 336 l 1
 460 340 460 340 425 342 c 0
 390 344 390 344 355 345 c 0
 338 346 338 346 320 346.5 c 0
 302 347 302 347 285 347 c 0
 257 347 257 347 231 348 c 0
 205 349 205 349 180 350 c 1
 180 647 l 1
 521 652 l 1
 521 652 l 1
EndSplineSet
Validated: 524293
EndChar

StartChar: H
Encoding: 44 71 41
Width: 745
Flags: W
LayerCount: 2
Fore
SplineSet
620 666 m 1
 620 650 l 1
 521 614 521 614 435.5 544 c 0
 350 474 350 474 286 388 c 0
 283 382 283 382 281.5 375.5 c 0
 280 369 280 369 280 361 c 0
 280 356 280 356 281 350 c 0
 282 344 282 344 284 339 c 0
 286 329 286 329 290 318.5 c 0
 294 308 294 308 298 299 c 0
 299 296 299 296 300.5 293.5 c 0
 302 291 302 291 303 289 c 0
 331 251 331 251 368.5 228 c 0
 406 205 406 205 450 205 c 2
 452 205 l 1
 454 205 l 1
 455 205 l 1
 457 205 l 1
 471 220 l 1
 469 462 l 1
 480 464 480 464 491.5 466 c 0
 503 468 503 468 514 469 c 0
 525 470 525 470 536.5 470.5 c 0
 548 471 548 471 559 471 c 0
 595 471 595 471 629.5 465.5 c 0
 664 460 664 460 696 449 c 1
 711 432 l 1
 707 399 707 399 704.5 367.5 c 0
 702 336 702 336 702 304 c 2
 702 283 l 1
 702 262 l 1
 702 248 l 1
 702 234 l 2
 702 217 702 217 702.5 200 c 0
 703 183 703 183 703 166 c 0
 704 134 704 134 704.5 101 c 0
 705 68 705 68 705 33 c 1
 699 34 699 34 692 34 c 2
 678 34 l 2
 642 34 642 34 602.5 29 c 0
 563 24 563 24 523 17 c 0
 515 15 515 15 507.5 14 c 0
 500 13 500 13 492 12 c 0
 459 7 459 7 427 3.5 c 0
 395 0 395 0 365 0 c 0
 296 0 296 0 236.5 26 c 0
 177 52 177 52 138 130 c 1
 99 179 99 179 66.5 233.5 c 0
 34 288 34 288 34 349 c 2
 34 349.5 l 1
 34 351 l 1
 34 352.5 l 1
 34 353 l 1
 51 495 51 495 154 610 c 0
 257 725 257 725 384 780 c 1
 620 666 l 1
 620 666 l 1
418 653 m 1
 419 655 419 655 419.5 657 c 0
 420 659 420 659 419 660 c 0
 419 666 419 666 414.5 669 c 0
 410 672 410 672 403 672 c 2
 402.5 672 l 1
 401 672 l 1
 399.5 672 l 1
 398 672 l 2
 397 671 397 671 396.5 671 c 2
 395 671 l 1
 306 612 306 612 235.5 536.5 c 0
 165 461 165 461 135 358 c 1
 146 311 146 311 168.5 268.5 c 0
 191 226 191 226 227 191 c 1
 260 136 260 136 312 117.5 c 0
 364 99 364 99 420 100 c 2
 433.5 100 l 1
 447 101 l 2
 469 102 469 102 490.5 104 c 0
 512 106 512 106 534 110 c 0
 552 112 552 112 569 114 c 0
 586 116 586 116 602 117 c 1
 604 386 l 1
 583 385 l 1
 584 144 l 1
 558 131 558 131 528 127.5 c 0
 498 124 498 124 467 124 c 0
 457 124 457 124 446 124.5 c 0
 435 125 435 125 424 125 c 0
 414 125 414 125 403.5 125.5 c 0
 393 126 393 126 384 126 c 2
 369.5 126 l 1
 355 125 l 1
 289 162 289 162 232 223.5 c 0
 175 285 175 285 164 359 c 1
 199 453 199 453 265.5 526 c 0
 332 599 332 599 418 653 c 1
 418 653 l 1
EndSplineSet
Validated: 524325
EndChar

StartChar: I
Encoding: 45 72 42
Width: 835
Flags: W
LayerCount: 2
Fore
SplineSet
292 777 m 1
 317 516 l 1
 334 512 334 512 352.5 509.5 c 0
 371 507 371 507 389 507 c 0
 408 507 408 507 428.5 509 c 0
 449 511 449 511 468 513 c 2
 474 513 l 1
 479 514 l 2
 496 515 496 515 513.5 516.5 c 0
 531 518 531 518 548 518 c 1
 557 777 l 1
 798 774 l 1
 794 6 l 1
 769 4 769 4 743.5 2.5 c 0
 718 1 718 1 692 1 c 0
 681 0 681 0 670.5 0 c 2
 650 0 l 2
 618 0 618 0 588 2 c 0
 558 4 558 4 529 9 c 1
 534 51 534 51 538.5 93 c 0
 543 135 543 135 543 179 c 0
 543 198 543 198 542 218 c 0
 541 238 541 238 539 258 c 1
 511 263 511 263 481.5 265.5 c 0
 452 268 452 268 422 269 c 0
 410 270 410 270 398 270 c 2
 374 270 l 1
 347 270 l 1
 319 269 l 1
 307 256 l 1
 286 2 l 1
 60 5 l 1
 58 68 58 68 57.5 130.5 c 0
 57 193 57 193 57 254 c 0
 56 273 56 273 56 293.5 c 2
 56 334 l 2
 56 389 56 389 55 444 c 0
 54 499 54 499 52 553 c 0
 50 607 50 607 47 662 c 0
 44 717 44 717 38 772 c 1
 48 780 l 1
 292 777 l 1
 292 777 l 1
196 679 m 1
 170 681 l 1
 172 611 172 611 173 542 c 0
 174 473 174 473 174 403 c 0
 174 328 174 328 173 255 c 0
 172 182 172 182 170 110 c 0
 172 109 172 109 174 107.5 c 0
 176 106 176 106 179 106 c 0
 181 105 181 105 183 105 c 2
 187 105 l 1
 190 105 l 1
 194 106 l 1
 195.5 106 l 1
 196 106 l 1
 197 136 197 136 197 163.5 c 2
 197 218 l 1
 197 226.5 l 1
 197 236 l 1
 199 306 l 1
 203 381 l 1
 658 379 l 1
 659 347 659 347 659 317.5 c 0
 659 288 659 288 658 259 c 2
 658 229.5 l 1
 658 200 l 1
 658 185 l 1
 658 169 l 1
 658 157.5 l 1
 658 145 l 2
 658 134 658 134 658.5 122.5 c 0
 659 111 659 111 659 98 c 1
 660 98 660 98 661.5 97.5 c 0
 663 97 663 97 664 97 c 2
 665 97 l 1
 667 97 l 1
 669 97 l 1
 671 97 l 2
 674 98 674 98 677.5 99.5 c 0
 681 101 681 101 683 103 c 0
 684 137 684 137 684.5 170.5 c 0
 685 204 685 204 685 238 c 0
 686 263 686 263 686.5 286.5 c 0
 687 310 687 310 687 334 c 0
 688 378 688 378 688.5 421.5 c 0
 689 465 689 465 689 508 c 0
 689 521 689 521 688.5 535 c 0
 688 549 688 549 688 562 c 0
 688 589 688 589 687.5 616 c 0
 687 643 687 643 686 670 c 1
 663 670 l 1
 663 403 l 1
 223 404 l 1
 203 418 l 1
 202 447 202 447 202 472.5 c 2
 202 522 l 1
 202 538.5 l 1
 202 555 l 2
 202 585 202 585 201 614.5 c 0
 200 644 200 644 196 679 c 1
 196 679 l 1
EndSplineSet
Validated: 524293
EndChar

StartChar: J
Encoding: 46 73 43
Width: 366
Flags: W
LayerCount: 2
Fore
SplineSet
41 769 m 1
 55 770 55 770 70 771 c 0
 85 772 85 772 99 773 c 0
 101 773 101 773 102.5 773.5 c 0
 104 774 104 774 106 774 c 0
 138 776 138 776 171 778 c 0
 204 780 204 780 238 780 c 0
 258 780 258 780 278 779 c 0
 298 778 298 778 319 776 c 1
 319 718 319 718 317 658 c 0
 315 598 315 598 314 538 c 0
 313 515 313 515 312.5 493 c 0
 312 471 312 471 311 449 c 0
 310 404 310 404 309 358.5 c 0
 308 313 308 313 308 268 c 0
 308 202 308 202 310.5 139 c 0
 313 76 313 76 321 15 c 1
 303 14 303 14 283 12 c 2
 243 8 l 2
 231 6 231 6 218 5 c 0
 205 4 205 4 193 3 c 0
 179 2 179 2 163.5 1 c 0
 148 0 148 0 134 0 c 0
 111 0 111 0 89 2.5 c 0
 67 5 67 5 46 12 c 1
 51 113 51 113 55 205.5 c 0
 59 298 59 298 59 389 c 2
 59 409 l 1
 59 429 l 2
 59 510 59 510 55 593.5 c 0
 51 677 51 677 41 769 c 1
 41 769 l 1
202 634 m 1
 203 637 203 637 203.5 640.5 c 0
 204 644 204 644 204 648 c 2
 204 649.5 l 1
 204 651 l 2
 203 661 203 661 198.5 669.5 c 0
 194 678 194 678 183 678 c 0
 181 678 181 678 178 677 c 0
 175 676 175 676 171 674 c 1
 171 111 l 1
 195 111 l 1
 202 634 l 1
 202 634 l 1
EndSplineSet
Validated: 524293
EndChar

StartChar: K
Encoding: 47 74 44
Width: 579
Flags: W
LayerCount: 2
Fore
SplineSet
547 780 m 1
 550 711 550 711 551.5 649.5 c 0
 553 588 553 588 553 528 c 2
 553 501.5 l 1
 553 475 l 2
 553 399 553 399 549 321 c 0
 545 243 545 243 538 154 c 1
 484 77 484 77 403.5 38.5 c 0
 323 0 323 0 232 0 c 0
 203 0 203 0 175 3.5 c 0
 147 7 147 7 119 14 c 2
 84 25 l 1
 74 83 74 83 59.5 137 c 0
 45 191 45 191 27 245 c 1
 35 249 35 249 42.5 250 c 0
 50 251 50 251 57 251 c 0
 68 251 68 251 80 249 c 2
 104 245 l 2
 114 243 114 243 124.5 241 c 0
 135 239 135 239 146 239 c 2
 152 239 l 1
 157 240 l 2
 159 240 159 240 161.5 240.5 c 0
 164 241 164 241 167 241 c 0
 202 248 202 248 233 259 c 0
 264 270 264 270 285 302 c 1
 289 326 289 326 290.5 347.5 c 0
 292 369 292 369 292 390 c 0
 292 427 292 427 288.5 462.5 c 0
 285 498 285 498 280 534 c 0
 279 542 279 542 277.5 550.5 c 0
 276 559 276 559 275 568 c 0
 268 612 268 612 263 657.5 c 0
 258 703 258 703 258 751 c 2
 258 757.5 l 1
 258 764 l 1
 258 770.5 l 1
 258 777 l 1
 547 780 l 1
 547 780 l 1
430 685 m 1
 397 679 l 1
 395 633 l 1
 394 587 l 2
 394 541 394 541 395.5 496.5 c 0
 397 452 397 452 400 407 c 0
 402 363 402 363 404 318.5 c 0
 406 274 406 274 406 231 c 1
 365 185 365 185 311.5 162 c 0
 258 139 258 139 201 139 c 2
 188.5 139 l 1
 176 140 l 2
 169 140 169 140 163 141 c 2
 151 143 l 1
 151 121 l 1
 160 111 160 111 174 107 c 0
 188 103 188 103 205 103 c 0
 212 103 212 103 218.5 103.5 c 0
 225 104 225 104 232 104 c 0
 238 104 238 104 244.5 104.5 c 0
 251 105 251 105 256 105 c 2
 260.5 105 l 1
 264 105 l 1
 273 109 273 109 282.5 112.5 c 0
 292 116 292 116 302 120 c 0
 307 121 307 121 313 123 c 0
 319 125 319 125 326 127 c 0
 366 141 366 141 400.5 162.5 c 0
 435 184 435 184 445 230 c 1
 430 685 l 1
 430 685 l 1
EndSplineSet
Validated: 524293
EndChar

StartChar: L
Encoding: 48 75 45
Width: 803
Flags: W
LayerCount: 2
Fore
SplineSet
762 689 m 1
 762 667 l 1
 738 641 738 641 715.5 616.5 c 0
 693 592 693 592 671 568 c 0
 655 550 655 550 638 533 c 2
 604 499 l 2
 572 467 572 467 539.5 434 c 0
 507 401 507 401 472 368 c 1
 472 355 l 1
 767 113 l 1
 767 95 l 1
 555 0 l 1
 532 5 l 1
 492 56 492 56 443 102 c 0
 394 148 394 148 343 186 c 0
 329 197 329 197 314.5 207 c 0
 300 217 300 217 286 226 c 1
 282 199 282 199 279 171.5 c 0
 276 144 276 144 274 117 c 0
 273 99 273 99 273 80 c 2
 273 43 l 1
 273 29 l 1
 273 14 l 1
 254 9 254 9 235.5 7 c 0
 217 5 217 5 199 5 c 0
 190 5 190 5 181 5.5 c 0
 172 6 172 6 164 6 c 0
 159 7 159 7 153 7.5 c 0
 147 8 147 8 142 8 c 0
 126 9 126 9 109 10 c 0
 92 11 92 11 75 11 c 2
 66.5 11 l 1
 58 11 l 1
 50 10.5 l 1
 42 10 l 1
 38 55 38 55 37.5 105.5 c 0
 37 156 37 156 38 207 c 2
 38 211 l 1
 38 215 l 1
 38 241.5 l 1
 38 268 l 2
 38 274 38 274 37.5 281 c 0
 37 288 37 288 37 295 c 2
 37 308.5 l 1
 37 322 l 2
 36 360 36 360 36.5 400 c 0
 37 440 37 440 37 481 c 0
 37 499 37 499 37.5 518 c 0
 38 537 38 537 38 555 c 2
 38 567.5 l 1
 38 582 l 2
 38 630 38 630 36.5 677.5 c 0
 35 725 35 725 30 770 c 1
 284 770 l 1
 284 766 284 766 284.5 762 c 0
 285 758 285 758 285 755 c 2
 285 746.5 l 1
 285 738 l 2
 285 722 285 722 284 706 c 2
 282 674 l 2
 280 658 280 658 279 642 c 0
 278 626 278 626 278 610 c 0
 278 600 278 600 279 589.5 c 0
 280 579 280 579 281 568 c 0
 283 557 283 557 285.5 547 c 0
 288 537 288 537 292 525 c 1
 363 575 363 575 416.5 638 c 0
 470 701 470 701 520 770 c 0
 522 773 522 773 523.5 775.5 c 0
 525 778 525 778 527 780 c 2
 762 689 l 1
 762 689 l 1
174 689 m 1
 147 689 l 1
 146 635 146 635 145 578 c 0
 144 521 144 521 144 464 c 0
 145 375 145 375 146.5 282 c 0
 148 189 148 189 151 95 c 1
 155 97 155 97 158 98 c 0
 161 99 161 99 164 99 c 0
 166 99 166 99 167.5 98.5 c 0
 169 98 169 98 170 97 c 2
 173 95.5 l 1
 174 95 l 1
 174 122.5 l 1
 174 156 l 2
 174 168 174 168 174.5 180.5 c 0
 175 193 175 193 175 205 c 0
 176 234 176 234 177.5 260.5 c 0
 179 287 179 287 182 307 c 1
 197 316.5 l 2
 212 326 212 326 234 336 c 0
 241 340 241 340 250 344 c 0
 259 348 259 348 268 351 c 0
 270 352 270 352 272.5 353 c 0
 275 354 275 354 279 355 c 0
 290 346 290 346 301 337.5 c 0
 312 329 312 329 324 319 c 0
 387 270 387 270 447.5 218.5 c 0
 508 167 508 167 563 108 c 1
 596 105 l 1
 566 146 566 146 527 181.5 c 0
 488 217 488 217 446 252 c 0
 442 254 442 254 439 257 c 0
 436 260 436 260 432 263 c 0
 399 290 399 290 366.5 318 c 0
 334 346 334 346 306 378 c 1
 322 391 322 391 339.5 404.5 c 0
 357 418 357 418 374 430 c 0
 376 432 376 432 378 433.5 c 0
 380 435 380 435 382 437 c 0
 444 484 444 484 503.5 535.5 c 0
 563 587 563 587 606 654 c 1
 592 663 l 1
 578 649 578 649 563.5 633.5 c 0
 549 618 549 618 536 605 c 0
 527 595 527 595 517 585 c 2
 497 565 l 2
 477 546 477 546 455.5 526 c 0
 434 506 434 506 410 485 c 0
 356 440 356 440 298.5 399 c 0
 241 358 241 358 177 339 c 1
 176 359 176 359 175 382.5 c 0
 174 406 174 406 174 428 c 0
 174 445 174 445 174.5 463.5 c 0
 175 482 175 482 175 501 c 2
 175 509.5 l 1
 176 519 l 2
 176 542 176 542 176.5 564.5 c 0
 177 587 177 587 177 608 c 0
 177 630 177 630 176.5 650.5 c 0
 176 671 176 671 174 689 c 1
 174 689 l 1
EndSplineSet
Validated: 524325
EndChar

StartChar: M
Encoding: 49 76 46
Width: 584
Flags: W
LayerCount: 2
Fore
SplineSet
302 770 m 1
 302 220 l 1
 320 215 320 215 338.5 213 c 0
 357 211 357 211 376 211 c 0
 400 211 400 211 423 213.5 c 0
 446 216 446 216 470 220 c 0
 493 223 493 223 515 225.5 c 0
 537 228 537 228 559 228 c 1
 556 211 556 211 551 194 c 0
 546 177 546 177 539 160 c 0
 534 147 534 147 527.5 133 c 0
 521 119 521 119 516 104 c 0
 505 79 505 79 495 54.5 c 0
 485 30 485 30 478 3 c 1
 34 0 l 1
 27 17 l 1
 36 85 36 85 40 156.5 c 0
 44 228 44 228 45 300 c 2
 45 320.5 l 1
 45 341 l 2
 45 454 45 454 39.5 563 c 0
 34 672 34 672 27 770 c 1
 39 780 l 1
 302 770 l 1
 302 770 l 1
185 672 m 1
 157 672 l 1
 155 103 l 1
 406 97 l 2
 408 97 408 97 410 97.5 c 0
 412 98 412 98 415 99 c 0
 419 102 419 102 423 105.5 c 0
 427 109 427 109 429 113 c 0
 430 115 430 115 430 117 c 0
 430 119 430 119 429 121 c 0
 422 122 422 122 415 122 c 2
 399 122 l 2
 385 122 385 122 369.5 121.5 c 0
 354 121 354 121 339 120 c 0
 331 120 331 120 323 119.5 c 0
 315 119 315 119 307 119 c 0
 299 118 299 118 291.5 118 c 2
 275 118 l 2
 252 118 252 118 232 120 c 0
 212 122 212 122 193 126 c 1
 192 155 192 155 190.5 184.5 c 0
 189 214 189 214 189 245 c 0
 189 276 189 276 189.5 307 c 0
 190 338 190 338 191 370 c 2
 191 408 l 1
 193 446 l 1
 193 472 l 1
 193 498 l 2
 193 543 193 543 191 586.5 c 0
 189 630 189 630 185 672 c 1
 185 672 l 1
EndSplineSet
Validated: 524293
EndChar

StartChar: N
Encoding: 50 77 47
Width: 1083
Flags: W
LayerCount: 2
Fore
SplineSet
640 779 m 1
 646 778 646 778 653 777 c 0
 660 776 660 776 668 776 c 0
 676 776 676 776 685 776.5 c 0
 694 777 694 777 703 778 c 0
 711 779 711 779 720.5 779.5 c 0
 730 780 730 780 738 780 c 0
 760 780 760 780 777.5 774 c 0
 795 768 795 768 802 748 c 0
 824 654 824 654 854.5 563.5 c 0
 885 473 885 473 916 384 c 0
 918 379 918 379 920 374.5 c 0
 922 370 922 370 924 365 c 0
 956 278 956 278 985 190 c 0
 1014 102 1014 102 1034 10 c 1
 1016 2 l 1
 987 2 l 1
 956 1 l 1
 932.5 1 l 1
 908 1 l 2
 873 1 873 1 839.5 2 c 0
 806 3 806 3 776 7 c 1
 764 37 764 37 758.5 68.5 c 0
 753 100 753 100 749 132 c 0
 748 134 748 134 748 136 c 2
 748 140 l 1
 743 176 743 176 735 211.5 c 0
 727 247 727 247 711 280 c 1
 697 252 697 252 684.5 223 c 0
 672 194 672 194 662 165 c 0
 659 157 659 157 655.5 149 c 0
 652 141 652 141 649 133 c 0
 637 99 637 99 624 66.5 c 0
 611 34 611 34 595 2 c 0
 592 3 592 3 587.5 3.5 c 0
 583 4 583 4 579 4 c 2
 574.5 4 l 1
 570 4 l 2
 561 4 561 4 552 3.5 c 0
 543 3 543 3 534 2 c 0
 525 1 525 1 515.5 0.5 c 0
 506 0 506 0 497 0 c 0
 469 0 469 0 449 11.5 c 0
 429 23 429 23 430 57 c 2
 430 61 l 1
 430 66 l 1
 420 84 420 84 412 104.5 c 0
 404 125 404 125 398 146 c 0
 397 150 397 150 395.5 154 c 0
 394 158 394 158 393 161 c 0
 384 191 384 191 374 218 c 0
 364 245 364 245 347 264 c 1
 331 202 331 202 316.5 138 c 0
 302 74 302 74 295 7 c 1
 264 4 264 4 233 2.5 c 0
 202 1 202 1 170 1 c 0
 139 1 139 1 109 2.5 c 0
 79 4 79 4 49 7 c 1
 63 94 63 94 84 180 c 0
 105 266 105 266 127 351 c 2
 131 367 l 1
 135 383 l 2
 160 476 160 476 182.5 570 c 0
 205 664 205 664 221 760 c 1
 233 774 l 1
 390 769 l 1
 407 714 407 714 426 659 c 0
 445 604 445 604 466 550 c 0
 471 535 471 535 477 519 c 0
 483 503 483 503 488 487 c 0
 492 475 492 475 497 463.5 c 0
 502 452 502 452 506 440 c 1
 522 446 l 1
 537 483 537 483 549.5 520.5 c 0
 562 558 562 558 574 596 c 0
 575 600 575 600 577 604 c 0
 579 608 579 608 580 613 c 0
 593 655 593 655 607.5 696.5 c 0
 622 738 622 738 640 779 c 1
 640 779 l 1
528 177 m 1
 488.5 268 l 2
 449 359 449 359 401 469 c 0
 378 521 378 521 356.5 571.5 c 0
 335 622 335 622 317 662 c 1
 299 590 299 590 280 518.5 c 0
 261 447 261 447 242 377 c 0
 223 305 223 305 203.5 234 c 0
 184 163 184 163 166 92 c 1
 194 92 l 1
 203 132 203 132 213 170.5 c 0
 223 209 223 209 234 248 c 0
 236 256 236 256 239 264.5 c 0
 242 273 242 273 244 283 c 0
 262 352 262 352 279 420 c 0
 296 488 296 488 307 560 c 1
 325 593 l 1
 341 553 341 553 359 513 c 2
 395 433 l 2
 429 356 429 356 462.5 279.5 c 0
 496 203 496 203 522 123 c 1
 535 120 l 1
 578 229 578 229 614.5 340.5 c 0
 651 452 651 452 686 564 c 1
 700 588 l 1
 707 563 707 563 733 491.5 c 0
 759 420 759 420 787 339 c 0
 817 256 817 256 843 184.5 c 0
 869 113 869 113 876 93 c 1
 878 92.5 l 2
 880 92 880 92 883 91 c 0
 884 91 884 91 886 90.5 c 0
 888 90 888 90 890 90 c 2
 894 90 l 1
 898 90 l 2
 903 90 903 90 904.5 91.5 c 0
 906 93 906 93 901 97 c 0
 891 114 891 114 856 210 c 0
 821 306 821 306 781 419 c 2
 779 425 l 1
 777 431 l 2
 755 491 755 491 735 549.5 c 0
 715 608 715 608 698 655 c 1
 528 177 l 1
 528 177 l 1
EndSplineSet
Validated: 524325
EndChar

StartChar: O
Encoding: 51 78 48
Width: 827
Flags: W
LayerCount: 2
Fore
SplineSet
38 777 m 1
 52 779 52 779 66.5 779.5 c 0
 81 780 81 780 94 780 c 0
 116 780 116 780 137 778.5 c 0
 158 777 158 777 179 776 c 0
 193 775 193 775 207.5 774 c 0
 222 773 222 773 237 772 c 1
 270 717 270 717 313.5 665.5 c 0
 357 614 357 614 404 565 c 0
 432 536 432 536 458.5 507.5 c 0
 485 479 485 479 510 452 c 2
 518 442 l 1
 526 432 l 1
 540 432 l 1
 545 459 545 459 547 485.5 c 0
 549 512 549 512 549 539 c 0
 549 566 549 566 547.5 591.5 c 0
 546 617 546 617 545 644 c 0
 543 671 543 671 541.5 697.5 c 0
 540 724 540 724 540 750 c 1
 560 753 560 753 580 755.5 c 0
 600 758 600 758 621 760 c 0
 661 766 661 766 701 771 c 0
 741 776 741 776 781 780 c 1
 788 763 l 1
 781 674 781 674 778 577 c 0
 775 480 775 480 775 382 c 0
 775 284 775 284 777 187.5 c 0
 779 91 779 91 781 6 c 1
 758 3 758 3 732.5 1.5 c 0
 707 0 707 0 680 0 c 0
 654 0 654 0 628 1.5 c 0
 602 3 602 3 578 6 c 1
 560 29 560 29 542 51.5 c 0
 524 74 524 74 507 96 c 0
 502 102 502 102 497 109 c 0
 492 116 492 116 487 122 c 0
 441 182 441 182 393.5 239 c 0
 346 296 346 296 288 341 c 1
 282 6 l 1
 50 6 l 1
 48 12 48 12 47 19 c 0
 46 26 46 26 46 33 c 0
 46 41 46 41 47 49 c 0
 48 57 48 57 49 66 c 2
 49 68.5 l 1
 49 71 l 2
 50 78 50 78 50.5 85 c 0
 51 92 51 92 51 99 c 2
 51 102.5 l 1
 51 106 l 1
 50.5 110 l 1
 50 114 l 1
 51 188 51 188 50.5 264 c 0
 50 340 50 340 49 416 c 0
 48 508 48 508 45 599 c 0
 42 690 42 690 38 777 c 1
 38 777 l 1
645 160 m 1
 597 205 597 205 551.5 254.5 c 0
 506 304 506 304 461 356 c 0
 443 376 443 376 425 397.5 c 0
 407 419 407 419 388 439 c 0
 334 501 334 501 276 563.5 c 0
 218 626 218 626 154 682 c 1
 153 659 153 659 153 636 c 2
 153 590 l 2
 153 547 153 547 154 503.5 c 0
 155 460 155 460 156 416 c 2
 156 397 l 1
 157 377 l 1
 159 271 l 1
 160 167 l 1
 160 129.5 l 1
 159 92 l 1
 162.5 92 l 1
 165 92 l 2
 167 91 167 91 168.5 91 c 2
 171 91 l 2
 174 91 174 91 177 92 c 0
 180 93 180 93 181 96 c 2
 181 613 l 1
 233 557 233 557 284 504.5 c 0
 335 452 335 452 383 399 c 0
 432 348 432 348 479 296 c 0
 526 244 526 244 573 188 c 0
 592 164 592 164 612.5 140.5 c 0
 633 117 633 117 653 92 c 1
 673 92 l 1
 673 677 l 1
 672.5 677 l 1
 671 677 l 1
 669.5 677 l 1
 669 677 l 2
 662 677 662 677 657 673.5 c 0
 652 670 652 670 650 665 c 2
 645 160 l 1
 645 160 l 1
EndSplineSet
Validated: 524325
EndChar

StartChar: P
Encoding: 52 79 49
Width: 888
Flags: W
LayerCount: 2
Fore
SplineSet
266 757 m 1
 306 766 306 766 349 772 c 0
 392 778 392 778 436 780 c 2
 448.5 780 l 1
 461 780 l 2
 558 780 558 780 647 744.5 c 0
 736 709 736 709 790 610 c 1
 823 572 823 572 835.5 525.5 c 0
 848 479 848 479 848 430 c 0
 848 417 848 417 847.5 404 c 0
 847 391 847 391 845 378 c 0
 841 335 841 335 831 292.5 c 0
 821 250 821 250 811 213 c 0
 810 210 810 210 809.5 207.5 c 0
 809 205 809 205 808 203 c 0
 764 130 764 130 693.5 69.5 c 0
 623 9 623 9 537 0 c 1
 422 2 422 2 317.5 23 c 0
 213 44 213 44 143 138 c 1
 90 188 90 188 66.5 254.5 c 0
 43 321 43 321 41 390 c 2
 41 395.5 l 1
 41 400 l 2
 41 427 41 427 43.5 452.5 c 0
 46 478 46 478 51 503 c 0
 76 586 76 586 130.5 653 c 0
 185 720 185 720 266 757 c 1
 266 757 l 1
692 572 m 1
 650 616 650 616 603 643.5 c 0
 556 671 556 671 502 683 c 0
 486 686 486 686 470 687.5 c 0
 454 689 454 689 437 689 c 0
 390 689 390 689 346 674 c 0
 302 659 302 659 266 629 c 0
 209 585 209 585 178.5 520 c 0
 148 455 148 455 148 382 c 0
 148 374 148 374 149 365 c 0
 150 356 150 356 151 348 c 0
 151 339 151 339 152.5 330.5 c 0
 154 322 154 322 156 313 c 0
 184 226 184 226 255.5 170 c 0
 327 114 327 114 416 102 c 0
 424 101 424 101 432 101 c 2
 447 101 l 2
 541 101 541 101 618.5 149 c 0
 696 197 696 197 738 282 c 1
 745 308 745 308 749 334 c 0
 753 360 753 360 753 388 c 0
 753 439 753 439 738.5 487 c 0
 724 535 724 535 692 572 c 1
 692 572 l 1
498 657 m 1
 543 651 543 651 583 625.5 c 0
 623 600 623 600 654 569 c 0
 657 567 657 567 660 564.5 c 0
 663 562 663 562 665 560 c 0
 694 522 694 522 709.5 475 c 0
 725 428 725 428 725 379 c 0
 725 371 725 371 724 362 c 0
 723 353 723 353 722 345 c 0
 721 336 721 336 719.5 327 c 0
 718 318 718 318 716 310 c 0
 694 239 694 239 633 192.5 c 0
 572 146 572 146 503 133 c 0
 498 132 498 132 492 131 c 2
 480 129 l 1
 477.5 129 l 1
 475 129 l 1
 472 129 l 1
 469 129 l 2
 462 129 462 129 454 129.5 c 0
 446 130 446 130 439 130 c 0
 367 136 367 136 302.5 172 c 0
 238 208 238 208 202 276 c 0
 189 300 189 300 183 327 c 0
 177 354 177 354 177 383 c 2
 177 391.5 l 1
 178 401 l 2
 180 439 180 439 192.5 476 c 0
 205 513 205 513 225 542 c 0
 270 597 270 597 324.5 630 c 0
 379 663 379 663 445 663 c 2
 454 663 l 1
 463 662 l 2
 471 662 471 662 479.5 660.5 c 0
 488 659 488 659 498 657 c 1
 498 657 l 1
612 467 m 1
 589 512 589 512 545 538.5 c 0
 501 565 501 565 452 568 c 2
 447 568 l 1
 441 568 l 2
 409 568 409 568 380 557.5 c 0
 351 547 351 547 328 525 c 0
 301 499 301 499 285.5 466.5 c 0
 270 434 270 434 270 397 c 0
 270 387 270 387 271.5 375.5 c 0
 273 364 273 364 276 352 c 0
 302 304 302 304 347 263 c 0
 392 222 392 222 445 218 c 1
 487 220 487 220 523 239.5 c 0
 559 259 559 259 590 288 c 0
 610 307 610 307 619 333.5 c 0
 628 360 628 360 628 389 c 0
 628 409 628 409 624.5 429.5 c 0
 621 450 621 450 612 467 c 1
 612 467 l 1
EndSplineSet
Validated: 524289
EndChar

StartChar: Q
Encoding: 53 80 50
Width: 633
Flags: W
LayerCount: 2
Fore
SplineSet
42 780 m 1
 76 775 76 775 113 773.5 c 0
 150 772 150 772 187 771 c 2
 196 771 l 1
 206 771 l 1
 213.5 771 l 1
 221 771 l 2
 327 769 327 769 423.5 745 c 0
 520 721 520 721 568 612 c 1
 586 588 586 588 595 558.5 c 0
 604 529 604 529 605 498 c 2
 605 493 l 1
 605 487 l 2
 605 467 605 467 602.5 447 c 0
 600 427 600 427 595 409 c 0
 578 354 578 354 531.5 316 c 0
 485 278 485 278 433 259 c 0
 432 259 432 259 431 258.5 c 0
 430 258 430 258 429 258 c 2
 290 246 l 1
 283 220 283 220 279.5 194.5 c 0
 276 169 276 169 276 142 c 0
 276 122 276 122 278 101.5 c 0
 280 81 280 81 281 60 c 0
 282 45 282 45 283 29.5 c 0
 284 14 284 14 285 0 c 1
 30 12 l 1
 33 75 33 75 34.5 158 c 0
 36 241 36 241 38 327 c 0
 40 497 40 497 41 638.5 c 2
 42 780 l 1
 42 780 l 1
471 600 m 1
 432 656 432 656 372 671.5 c 0
 312 687 312 687 248 687 c 0
 235 688 235 688 222 687.5 c 0
 209 687 209 687 197 687 c 2
 179.5 687 l 1
 162 687 l 1
 158 687 l 1
 154 687 l 1
 149.5 687 l 1
 145 687 l 1
 141 98 l 2
 140 97 140 97 140 96 c 2
 140 94 l 1
 142 92 l 1
 147 91 l 1
 151.5 91 l 1
 155 92 l 1
 159 92 l 1
 162 92 l 1
 162.5 102.5 l 2
 163 113 163 113 164 130 c 0
 164 148 164 148 164.5 172 c 0
 165 196 165 196 165 220 c 2
 165 229.5 l 1
 165 239 l 1
 165 280.5 l 1
 163 315 l 1
 185 319 185 319 207.5 321 c 0
 230 323 230 323 255 324 c 0
 260 324 260 324 265 324.5 c 0
 270 325 270 325 274 325 c 0
 348 329 348 329 413 349 c 0
 478 369 478 369 502 450 c 0
 504 456 504 456 504.5 461.5 c 0
 505 467 505 467 506 472 c 0
 507 477 507 477 507 482.5 c 2
 507 495 l 2
 507 524 507 524 497.5 551 c 0
 488 578 488 578 471 600 c 1
 471 600 l 1
166 666 m 1
 172 666 172 666 178.5 665.5 c 0
 185 665 185 665 193 665 c 2
 206.5 665 l 1
 219 665 l 2
 292 664 292 664 358 650 c 0
 424 636 424 636 465 565 c 1
 471 545 471 545 475.5 522.5 c 0
 480 500 480 500 480 476 c 2
 480 467.5 l 1
 479 459 l 2
 479 455 479 455 478 450 c 0
 477 445 477 445 476 441 c 0
 443 384 443 384 387 364.5 c 0
 331 345 331 345 269 343 c 2
 260.5 343 l 1
 252 343 l 1
 239 343 l 1
 225 344 l 2
 218 344 218 344 211.5 344.5 c 0
 205 345 205 345 199 345 c 2
 169 345 l 1
 166 666 l 1
 166 666 l 1
385 535 m 1
 375 561 375 561 350.5 572.5 c 0
 326 584 326 584 298 589 c 0
 292 591 292 591 286.5 592 c 0
 281 593 281 593 274 594 c 1
 269 576 269 576 266.5 555 c 0
 264 534 264 534 264 512 c 2
 264 504 l 1
 264 496 l 2
 265 479 265 479 267.5 462 c 0
 270 445 270 445 274 431 c 1
 280 431 l 1
 286 431 l 2
 288 430 288 430 290.5 430 c 2
 296 430 l 2
 320 430 320 430 340 435 c 0
 360 440 360 440 378 455 c 0
 386 463 386 463 389 472.5 c 0
 392 482 392 482 392 493 c 0
 392 502 392 502 390.5 510.5 c 0
 389 519 389 519 387 527 c 0
 386 528 386 528 385.5 530 c 0
 385 532 385 532 385 535 c 1
 385 535 l 1
EndSplineSet
Validated: 524293
EndChar

StartChar: R
Encoding: 54 81 51
Width: 892
Flags: W
LayerCount: 2
Fore
SplineSet
559 765 m 1
 579 759 l 1
 598 752 l 2
 657 732 657 732 712.5 699.5 c 0
 768 667 768 667 800 604 c 0
 826 560 826 560 840 509 c 0
 854 458 854 458 853 406 c 0
 853 356 853 356 837.5 306.5 c 0
 822 257 822 257 790 215 c 1
 771 205 771 205 762.5 193.5 c 0
 754 182 754 182 754 171 c 0
 754 162 754 162 759 152 c 0
 764 142 764 142 770 132 c 0
 773 128 773 128 776.5 123.5 c 0
 780 119 780 119 783 115 c 0
 793 102 793 102 802 89.5 c 0
 811 77 811 77 813 66 c 0
 816 54 816 54 824.5 44 c 0
 833 34 833 34 841 25 c 0
 852 13 852 13 861 0 c 0
 870 -13 870 -13 870 -31 c 2
 870 -35.5 l 1
 869 -41 l 1
 628 -22 l 1
 622 10 622 10 607.5 21.5 c 0
 593 33 593 33 573 33 c 0
 559 33 559 33 542.5 29 c 0
 526 25 526 25 509 19 c 0
 501 16 501 16 493 14 c 2
 477 10 l 2
 468 8 468 8 457.5 6.5 c 0
 447 5 447 5 438 5 c 0
 430 5 430 5 422.5 6 c 0
 415 7 415 7 407 10 c 0
 307 17 307 17 220.5 73 c 0
 134 129 134 129 78 215 c 0
 56 253 56 253 46 297 c 0
 36 341 36 341 34 386 c 2
 34 394 l 1
 34 402 l 2
 34 459 34 459 46 514 c 0
 58 569 58 569 81 613 c 1
 148 695 148 695 242.5 736.5 c 0
 337 778 337 778 441 778 c 0
 455 778 455 778 470 777 c 0
 485 776 485 776 501 775 c 0
 515 773 515 773 530 770.5 c 0
 545 768 545 768 559 765 c 1
 559 765 l 1
719 535 m 1
 693 584 693 584 644 627.5 c 0
 595 671 595 671 541 686 c 0
 540 686 540 686 538.5 686.5 c 0
 537 687 537 687 536 687 c 0
 510 694 510 694 485 697 c 0
 460 700 460 700 433 700 c 0
 368 700 368 700 308 678.5 c 0
 248 657 248 657 201 613 c 0
 162 576 162 576 141 524.5 c 0
 120 473 120 473 118 419 c 2
 118 414 l 1
 118 410 l 2
 118 391 118 391 120.5 372 c 0
 123 353 123 353 128 335 c 0
 152 266 152 266 205 209 c 0
 258 152 258 152 325 129 c 0
 352 122 352 122 380 118 c 0
 408 114 408 114 436 115 c 0
 484 115 484 115 531.5 125 c 0
 579 135 579 135 617 157 c 1
 627 148 627 148 635.5 136 c 0
 644 124 644 124 651 112 c 0
 652 109 652 109 653.5 106 c 0
 655 103 655 103 657 101 c 0
 668 82 668 82 681 66.5 c 0
 694 51 694 51 714 48 c 1
 710 57 710 57 704.5 66.5 c 0
 699 76 699 76 692 85 c 0
 689 90 689 90 686 94 c 0
 683 98 683 98 680 103 c 0
 668 120 668 120 656.5 139 c 0
 645 158 645 158 641 179 c 1
 705 249 l 1
 724 277 724 277 735 314.5 c 0
 746 352 746 352 749 392 c 2
 749 400 l 1
 749 409 l 2
 749 445 749 445 741 477 c 0
 733 509 733 509 719 535 c 1
 719 535 l 1
424 683 m 1
 428.5 683 l 1
 433 683 l 2
 518 683 518 683 591.5 638 c 0
 665 593 665 593 698 512 c 0
 710 489 710 489 716.5 464 c 0
 723 439 723 439 722 413 c 0
 722 363 722 363 703 315 c 0
 684 267 684 267 652 231 c 0
 613 184 613 184 555.5 160 c 0
 498 136 498 136 434 136 c 0
 412 136 412 136 391 139 c 0
 370 142 370 142 348 147 c 0
 294 164 294 164 247.5 204.5 c 0
 201 245 201 245 171 295 c 0
 158 322 158 322 150.5 352 c 0
 143 382 143 382 143 414 c 0
 143 445 143 445 150.5 474.5 c 0
 158 504 158 504 171 529 c 0
 200 599 200 599 259 630.5 c 0
 318 662 318 662 383 676 c 0
 393 678 393 678 403.5 679.5 c 0
 414 681 414 681 424 683 c 1
 424 683 l 1
600 481 m 1
 574 535 574 535 526.5 564.5 c 0
 479 594 479 594 421 596 c 1
 376 587 376 587 335 565 c 0
 294 543 294 543 264 505 c 0
 253 487 253 487 247.5 465 c 0
 242 443 242 443 242 420 c 2
 242 412.5 l 1
 243 406 l 2
 244 395 244 395 246.5 384 c 0
 249 373 249 373 252 362 c 0
 275 315 275 315 315 280.5 c 0
 355 246 355 246 407 238 c 0
 413 237 413 237 419 235.5 c 0
 425 234 425 234 430 234 c 0
 462 234 462 234 489.5 249.5 c 0
 517 265 517 265 542 285 c 0
 544 286 544 286 545.5 287.5 c 0
 547 289 547 289 549 290 c 0
 580 313 580 313 591.5 347.5 c 0
 603 382 603 382 604 420 c 2
 604 423.5 l 1
 604 427 l 2
 604 441 604 441 603 454.5 c 0
 602 468 602 468 600 481 c 1
 600 481 l 1
EndSplineSet
Validated: 524325
EndChar

StartChar: S
Encoding: 55 82 52
Width: 762
Flags: W
LayerCount: 2
Fore
SplineSet
57 754 m 1
 61 754 l 1
 66 754 l 1
 70 754 l 1
 74 754 l 2
 111 754 111 754 149.5 758 c 0
 188 762 188 762 228 767 c 0
 241 768 241 768 254 769.5 c 0
 267 771 267 771 281 772 c 0
 310 775 310 775 338.5 777 c 0
 367 779 367 779 394 779 c 0
 452 779 452 779 507 766 c 0
 562 753 562 753 607 714 c 0
 655 677 655 677 676.5 623 c 0
 698 569 698 569 698 512 c 0
 698 504 698 504 697.5 495.5 c 0
 697 487 697 487 697 479 c 2
 695 463 l 1
 692 446 l 1
 676 416 676 416 651 389 c 0
 626 362 626 362 599 338 c 0
 588 328 588 328 577.5 318.5 c 0
 567 309 567 309 557 300 c 1
 572 265 572 265 593 233 c 0
 614 201 614 201 637 169 c 1
 638.5 167.5 l 1
 639 166 l 1
 666 130 666 130 689.5 93 c 0
 713 56 713 56 728 15 c 1
 704 6 704 6 679 3 c 0
 654 0 654 0 628 0 c 0
 619 0 619 0 608.5 0.5 c 0
 598 1 598 1 589 1 c 0
 579 2 579 2 569 2.5 c 0
 559 3 559 3 550 4 c 0
 540 4 540 4 530 5 c 0
 520 6 520 6 511 6 c 1
 493 29 493 29 475 53 c 0
 457 77 457 77 438 101 c 0
 438 102 438 102 437.5 103 c 0
 437 104 437 104 436 104 c 0
 407 144 407 144 378 182 c 0
 349 220 349 220 317 250 c 1
 316.5 250 l 1
 315 250 l 1
 313.5 250 l 1
 313 250 l 2
 303 250 303 250 301 243.5 c 0
 299 237 299 237 299 228 c 0
 299 223 299 223 298.5 218 c 0
 298 213 298 213 295 210 c 2
 285 10 l 1
 45 10 l 1
 35 24 l 1
 39 68 39 68 42 112 c 0
 45 156 45 156 46 200 c 0
 50 285 50 285 49.5 370 c 0
 49 455 49 455 48 539 c 0
 47 592 47 592 47 644 c 2
 47 748 l 1
 57 754 l 1
 57 754 l 1
562 601 m 1
 542 634 542 634 509 659 c 0
 476 684 476 684 438 691 c 0
 412 696 412 696 386.5 698 c 0
 361 700 361 700 335 700 c 0
 292 700 292 700 248.5 695 c 0
 205 690 205 690 161 682 c 1
 158 119 l 1
 158 118.5 l 1
 158 118 l 2
 159 112 159 112 163.5 106.5 c 0
 168 101 168 101 173 101 c 0
 176 101 176 101 178.5 102 c 0
 181 103 181 103 183 106 c 2
 183 316 l 1
 221 316.5 l 2
 259 317 259 317 305 318 c 0
 330 319 330 319 353 320.5 c 0
 376 322 376 322 393 323 c 1
 405 305 405 305 417.5 286 c 0
 430 267 430 267 442 249 c 0
 443 248 443 248 443.5 246.5 c 0
 444 245 444 245 445 243 c 0
 472 203 472 203 499.5 163.5 c 0
 527 124 527 124 562 89 c 0
 563 89 563 89 564 88.5 c 0
 565 88 565 88 567 88 c 0
 568 88 568 88 568.5 87.5 c 0
 569 87 569 87 570 87 c 2
 571.5 87 l 1
 573 87 l 1
 574.5 87 l 1
 575 87 l 2
 576 88 576 88 578 89 c 0
 580 90 580 90 580 91 c 0
 569 106 569 106 557.5 122 c 0
 546 138 546 138 535 154 c 0
 532 158 532 158 528.5 162.5 c 0
 525 167 525 167 522 171 c 0
 493 211 493 211 465.5 251 c 0
 438 291 438 291 416 334 c 1
 432 340 l 1
 449 347 l 2
 485 363 485 363 517.5 390 c 0
 550 417 550 417 566 452 c 0
 571 465 571 465 575 479.5 c 0
 579 494 579 494 580 508 c 0
 581 513 581 513 581 517.5 c 2
 581 527 l 2
 581 546 581 546 576.5 565.5 c 0
 572 585 572 585 562 601 c 1
 562 601 l 1
189 664 m 1
 202 665 202 665 216 666 c 0
 230 667 230 667 245 668 c 0
 259 670 259 670 274 671 c 0
 289 672 289 672 303 673 c 0
 314 673 314 673 325 673.5 c 0
 336 674 336 674 347 674 c 0
 407 674 407 674 459 656 c 0
 511 638 511 638 540 584 c 0
 545 573 545 573 548 560 c 0
 551 547 551 547 552 535 c 0
 553 529 553 529 553.5 522.5 c 0
 554 516 554 516 554 510 c 0
 554 492 554 492 549.5 474 c 0
 545 456 545 456 535 441 c 0
 496 383 496 383 436 363.5 c 0
 376 344 376 344 312 340 c 0
 293 339 293 339 273.5 338.5 c 0
 254 338 254 338 234 338 c 2
 231.5 338 l 1
 228 338 l 1
 220.5 338 l 1
 214 338 l 1
 206.5 338 l 1
 199 338 l 1
 183 351 l 1
 189 664 l 1
 189 664 l 1
454 550 m 1
 438 581 438 581 407.5 598.5 c 0
 377 616 377 616 344 616 c 0
 332 616 332 616 320 613 c 0
 308 610 308 610 297 605 c 1
 298 596 298 596 298 587.5 c 2
 298 570 l 1
 298 554 l 1
 298 538 l 2
 297 530 297 530 297 521.5 c 2
 297 505 l 2
 297 482 297 482 299.5 459 c 0
 302 436 302 436 312 414 c 1
 318 416 318 416 324.5 417 c 0
 331 418 331 418 337 418 c 0
 350 420 350 420 364 423.5 c 0
 378 427 378 427 388 437 c 0
 389 438 389 438 390.5 438.5 c 0
 392 439 392 439 393 440 c 0
 418 455 418 455 438 478 c 0
 458 501 458 501 458 527 c 2
 458 533 l 1
 457 539 l 2
 457 542 457 542 456 544.5 c 0
 455 547 455 547 454 550 c 1
 454 550 l 1
EndSplineSet
Validated: 524325
EndChar

StartChar: T
Encoding: 56 83 53
Width: 495
Flags: W
LayerCount: 2
Fore
SplineSet
455 748 m 1
 455 725 l 1
 410 692 410 692 374 641.5 c 0
 338 591 338 591 324 537 c 1
 327 497 327 497 344 460 c 0
 361 423 361 423 381 387 c 0
 384 382 384 382 387 376.5 c 0
 390 371 390 371 394 365 c 0
 411 332 411 332 425 298.5 c 0
 439 265 439 265 439 229 c 0
 439 211 439 211 434.5 192.5 c 0
 430 174 430 174 420 154 c 0
 393 102 393 102 359.5 55 c 0
 326 8 326 8 271 -19 c 1
 261 -16 261 -16 251.5 -13 c 0
 242 -10 242 -10 231 -7 c 0
 222 -4 222 -4 213 -2 c 0
 204 0 204 0 194 2 c 0
 155 13 155 13 116 26 c 0
 77 39 77 39 41 60 c 1
 46 65 46 65 51 71 c 0
 56 77 56 77 61 82 c 0
 92 116 92 116 118.5 154.5 c 0
 145 193 145 193 148 238 c 2
 148 241.5 l 1
 150 245 l 1
 150 248.5 l 1
 150 252 l 2
 150 292 150 292 132 325.5 c 0
 114 359 114 359 92 391 c 0
 89 395 89 395 86.5 399 c 0
 84 403 84 403 81 408 c 0
 63 437 63 437 48.5 466.5 c 0
 34 496 34 496 34 528 c 0
 34 542 34 542 37.5 558 c 0
 41 574 41 574 49 591 c 0
 69 650 69 650 112.5 702 c 0
 156 754 156 754 203 795 c 0
 204 796 204 796 205.5 797 c 0
 207 798 207 798 208 799 c 2
 455 748 l 1
 455 748 l 1
278 690 m 1
 275.5 690 l 1
 274 690 l 1
 272 690 l 1
 270 690 l 2
 253 690 253 690 244.5 679.5 c 0
 236 669 236 669 227 655 c 0
 226 654 226 654 225.5 653 c 0
 225 652 225 652 224 651 c 0
 220 642 220 642 214.5 634.5 c 0
 209 627 209 627 201 621 c 0
 185 598 185 598 178 575.5 c 0
 171 553 171 553 171 531 c 0
 171 492 171 492 188.5 454.5 c 0
 206 417 206 417 226 379 c 2
 236 361 l 1
 246 343 l 2
 261 314 261 314 271.5 285 c 0
 282 256 282 256 282 226 c 0
 282 196 282 196 266.5 165.5 c 0
 251 135 251 135 214 102 c 1
 224 92 l 1
 272 121 272 121 291.5 153 c 0
 311 185 311 185 311 220 c 0
 311 259 311 259 293.5 299.5 c 0
 276 340 276 340 256 382 c 0
 252 390 252 390 248 398.5 c 0
 244 407 244 407 240 415 c 0
 226 446 226 446 214.5 476.5 c 0
 203 507 203 507 201 537 c 0
 202 561 202 561 213.5 581.5 c 0
 225 602 225 602 240 622 c 0
 244 627 244 627 247.5 631.5 c 0
 251 636 251 636 254 641 c 0
 262 653 262 653 268.5 665.5 c 0
 275 678 275 678 278 690 c 1
 278 690 l 1
EndSplineSet
Validated: 524293
EndChar

StartChar: U
Encoding: 57 84 54
Width: 716
Flags: W
LayerCount: 2
Fore
SplineSet
685 766 m 1
 684 733 684 733 676 700.5 c 0
 668 668 668 668 658 635 c 0
 650 609 650 609 644 584 c 0
 638 559 638 559 634 534 c 1
 620 534 620 534 605 536.5 c 0
 590 539 590 539 574 542 c 0
 560 545 560 545 544 547.5 c 0
 528 550 528 550 512 550 c 2
 501.5 550 l 1
 490 549 l 1
 483 483 483 483 480 421 c 0
 477 359 477 359 477 298 c 0
 477 251 477 251 478.5 202.5 c 0
 480 154 480 154 481 103 c 1
 494 0 l 1
 218 0 l 1
 209 12 l 1
 215 63 215 63 219.5 113 c 0
 224 163 224 163 228 213 c 0
 231 262 231 262 233.5 312 c 0
 236 362 236 362 236 413 c 0
 237 450 237 450 235 486.5 c 0
 233 523 233 523 231 561 c 1
 225 563 225 563 219 564 c 0
 213 565 213 565 208 566 c 0
 202 566 202 566 195.5 566.5 c 0
 189 567 189 567 183 567 c 0
 167 567 167 567 150.5 565 c 0
 134 563 134 563 119 561 c 0
 103 558 103 558 87.5 556 c 0
 72 554 72 554 56 554 c 0
 50 554 50 554 44 554.5 c 0
 38 555 38 555 32 556 c 1
 37 571 37 571 41 586.5 c 0
 45 602 45 602 50 617 c 1
 50 619.5 l 1
 51 622 l 1
 62 663 62 663 75 703 c 0
 88 743 88 743 105 780 c 1
 171 771 171 771 239 768 c 0
 307 765 307 765 377 765 c 0
 406 765 406 765 435 765.5 c 0
 464 766 464 766 493 766 c 2
 511.5 766 l 1
 531 766 l 2
 569 767 569 767 608 767 c 0
 647 767 647 767 685 766 c 1
 685 766 l 1
572 684 m 1
 220 686 l 2
 217 683 217 683 210.5 681.5 c 0
 204 680 204 680 196 679 c 2
 193 679 l 1
 190 679 l 2
 178 677 178 677 168 673 c 0
 158 669 158 669 158 655 c 2
 158 654.5 l 1
 158 653 l 1
 158 651.5 l 1
 158 651 l 1
 171 649 171 649 185.5 648.5 c 0
 200 648 200 648 214 648 c 2
 232.5 648 l 1
 251 649 l 1
 269 649 l 1
 286 649 l 2
 300 649 300 649 314 648 c 0
 328 647 328 647 339 645 c 1
 339 95 l 1
 379 94 l 1
 379 640 l 1
 380 646 l 1
 543 646 l 1
 572 684 l 1
 572 684 l 1
EndSplineSet
Validated: 524325
EndChar

StartChar: V
Encoding: 58 85 55
Width: 822
Flags: W
LayerCount: 2
Fore
SplineSet
54 770 m 1
 82 773 82 773 111.5 775.5 c 0
 141 778 141 778 172 779 c 0
 184 779 184 779 195.5 779.5 c 0
 207 780 207 780 218 780 c 0
 241 780 241 780 263 778.5 c 0
 285 777 285 777 304 775 c 1
 316 674 316 674 318.5 573.5 c 0
 321 473 321 473 321 374 c 2
 321 362 l 1
 321 351 l 1
 321 318.5 l 1
 321 287 l 2
 321 271 321 271 321.5 254.5 c 0
 322 238 322 238 322 221 c 1
 337 211 337 211 357.5 207 c 0
 378 203 378 203 400 203 c 0
 408 203 408 203 416.5 203.5 c 0
 425 204 425 204 433 204 c 0
 438 205 438 205 444 205.5 c 0
 450 206 450 206 455 206 c 0
 465 207 465 207 475.5 208 c 0
 486 209 486 209 496 209 c 1
 518 231 l 1
 571 766 l 1
 594 772 594 772 617.5 774 c 0
 641 776 641 776 666 776 c 0
 676 776 676 776 686 775.5 c 0
 696 775 696 775 707 775 c 2
 714 775 l 1
 721 775 l 2
 728 774 728 774 734.5 774 c 2
 749 774 l 1
 755.5 774 l 1
 762 775 l 1
 768.5 775 l 1
 775 775 l 1
 785 742 l 1
 781 696 781 696 778 649.5 c 0
 775 603 775 603 773 557 c 0
 772 511 772 511 771 464.5 c 0
 770 418 770 418 770 372 c 0
 770 284 770 284 773 196 c 0
 776 108 776 108 780 23 c 1
 525 17 l 1
 521 23 521 23 519.5 31 c 0
 518 39 518 39 517 46 c 2
 517 48 l 1
 517 50 l 2
 515 61 515 61 512.5 71 c 0
 510 81 510 81 501 86 c 1
 454 73 454 73 409.5 50 c 0
 365 27 365 27 322 0 c 1
 293 5 293 5 258 14.5 c 0
 223 24 223 24 187 35 c 0
 174 39 174 39 160 43.5 c 0
 146 48 146 48 133 52 c 0
 106 61 106 61 81.5 70 c 0
 57 79 57 79 37 86 c 1
 46 170 46 170 53.5 251 c 0
 61 332 61 332 65 412 c 0
 67 444 67 444 67.5 476 c 0
 68 508 68 508 68 540 c 0
 68 596 68 596 64.5 653.5 c 0
 61 711 61 711 54 770 c 1
 54 770 l 1
209 672 m 1
 209 673.5 l 1
 210 674 l 1
 210 675.5 l 1
 210 676 l 2
 209 682 209 682 204.5 685 c 0
 200 688 200 688 194 688 c 0
 190 688 190 688 185 686.5 c 0
 180 685 180 685 178 680 c 0
 180 645 180 645 181 609.5 c 0
 182 574 182 574 182 540 c 0
 182 521 182 521 181.5 500.5 c 0
 181 480 181 480 181 460 c 0
 179 410 179 410 176.5 360 c 0
 174 310 174 310 171 260 c 0
 171 250 171 250 170.5 239.5 c 0
 170 229 170 229 169 219 c 2
 169 215.5 l 1
 169 212 l 2
 168 211 168 211 168 209.5 c 2
 168 206 l 2
 169 162 169 162 196.5 145.5 c 0
 224 129 224 129 257 120 c 2
 263 118 l 1
 269 117 l 2
 278 114 278 114 287 111.5 c 0
 296 109 296 109 304 105 c 1
 313 106 313 106 323 108 c 0
 333 110 333 110 342 112 c 0
 361 115 361 115 379.5 118 c 0
 398 121 398 121 417 124 c 0
 466 133 466 133 515.5 140.5 c 0
 565 148 565 148 616 152 c 0
 624 151 624 151 628 146.5 c 0
 632 142 632 142 634 137 c 2
 634 136.5 l 1
 634 136 l 2
 636 131 636 131 639.5 127 c 0
 643 123 643 123 652 123 c 2
 652.5 123 l 1
 654 123 l 1
 662 131 l 1
 663 158 663 158 663 186.5 c 2
 663 246 l 2
 664 266 664 266 664 286.5 c 2
 664 329 l 1
 664 371.5 l 1
 664 414 l 2
 665 482 665 482 668.5 547 c 0
 672 612 672 612 681 672 c 1
 680.5 672.5 l 1
 679 674 l 2
 677 676 677 676 674 678 c 0
 671 680 671 680 667 680 c 0
 666 681 666 681 664 681 c 0
 662 681 662 681 659 680 c 0
 653 638 653 638 649.5 582.5 c 0
 646 527 646 527 644 469 c 0
 641 381 641 381 641 301.5 c 2
 641 190 l 1
 641 177.5 l 1
 641 173 l 1
 608 170 608 170 573 166 c 0
 538 162 538 162 501 157 c 0
 455 150 455 150 410 141.5 c 0
 365 133 365 133 325 123 c 1
 284 131 284 131 251 147 c 0
 218 163 218 163 191 191 c 1
 193 221 193 221 195 250.5 c 0
 197 280 197 280 199 308 c 0
 200 328 200 328 201.5 348.5 c 0
 203 369 203 369 204 389 c 0
 207 437 207 437 209 486.5 c 0
 211 536 211 536 211 586 c 2
 211 600 l 1
 211 614 l 2
 210 628 210 628 210 642.5 c 0
 210 657 210 657 209 672 c 1
 209 672 l 1
EndSplineSet
Validated: 524293
EndChar

StartChar: W
Encoding: 59 86 56
Width: 817
Flags: W
LayerCount: 2
Fore
SplineSet
50 766 m 1
 58 765 58 765 67 764.5 c 0
 76 764 76 764 84 764 c 0
 107 764 107 764 128.5 766.5 c 0
 150 769 150 769 171 772 c 0
 183 774 183 774 195 775.5 c 0
 207 777 207 777 219 778 c 0
 229 779 229 779 240.5 779.5 c 0
 252 780 252 780 263 780 c 0
 271 780 271 780 280 779.5 c 0
 289 779 289 779 297 778 c 1
 307 748 307 748 317 719 c 0
 327 690 327 690 337 660 c 0
 356 602 356 602 376.5 543 c 0
 397 484 397 484 420 426 c 1
 454 483 454 483 474.5 548.5 c 0
 495 614 495 614 513 682 c 0
 514 686 514 686 514.5 689.5 c 0
 515 693 515 693 516 697 c 0
 521 716 521 716 526.5 736 c 0
 532 756 532 756 538 775 c 1
 549 777 549 777 560.5 777.5 c 0
 572 778 572 778 584 778 c 0
 607 778 607 778 628.5 776 c 0
 650 774 650 774 673 772 c 0
 696 769 696 769 718.5 767 c 0
 741 765 741 765 765 765 c 2
 768.5 765 l 1
 772 765 l 1
 775.5 765 l 1
 779 765 l 1
 780 726 l 1
 539 14 l 1
 520 6 520 6 499.5 3 c 0
 479 0 479 0 459 0 c 0
 446 0 446 0 433 1 c 2
 407 3 l 2
 394 3 394 3 380.5 4 c 0
 367 5 367 5 353 5 c 2
 344.5 5 l 1
 336 4 l 2
 331 4 331 4 327 3.5 c 0
 323 3 323 3 317 3 c 1
 278 96 278 96 243 192.5 c 0
 208 289 208 289 174 385 c 0
 171 394 171 394 168 402.5 c 0
 165 411 165 411 162 419 c 0
 132 503 132 503 101.5 587 c 0
 71 671 71 671 37 753 c 1
 50 766 l 1
 50 766 l 1
205 689 m 1
 204 690 204 690 201.5 690 c 2
 197 690 l 2
 191 690 191 690 185.5 687 c 0
 180 684 180 684 181 679 c 2
 181 677.5 l 1
 181 677 l 2
 181 676 181 676 181.5 675.5 c 0
 182 675 182 675 182 674 c 2
 396 101 l 1
 451 101 l 1
 474 171 474 171 498 239.5 c 0
 522 308 522 308 547 377 c 2
 553 393 l 1
 559 410 l 2
 582 470 582 470 604 530.5 c 0
 626 591 626 591 646 652 c 1
 645 684 l 1
 624 684 l 1
 432 130 l 1
 420 130 l 1
 408 162 408 162 396 193 c 0
 384 224 384 224 373 255 c 0
 367 270 367 270 361 286 c 0
 355 302 355 302 350 317 c 0
 315 411 315 411 280 504.5 c 0
 245 598 245 598 205 689 c 1
 205 689 l 1
EndSplineSet
Validated: 524293
EndChar

StartChar: X
Encoding: 60 87 57
Width: 1081
Flags: W
LayerCount: 2
Fore
SplineSet
296 774 m 1
 318 711 l 1
 324 685 l 1
 330 658 l 2
 339 614 339 614 348.5 571 c 0
 358 528 358 528 372 487 c 1
 397 523 397 523 412 564.5 c 0
 427 606 427 606 440 649 c 0
 440 651 440 651 440.5 652 c 0
 441 653 441 653 441 654 c 0
 450 684 450 684 460 713 c 0
 470 742 470 742 483 770 c 1
 502 775 502 775 523 776 c 0
 544 777 544 777 566 776 c 2
 577 776 l 1
 588 776 l 1
 601.5 776 l 1
 615 777 l 1
 633 745 633 745 646.5 712 c 0
 660 679 660 679 672 644 c 0
 673 643 673 643 673.5 642 c 0
 674 641 674 641 674 640 c 0
 686 604 686 604 699.5 570 c 0
 713 536 713 536 732 503 c 1
 745 516 l 1
 794 778 l 1
 804.5 778 l 1
 815 778 l 2
 829 778 829 778 843 778.5 c 0
 857 779 857 779 872 779 c 2
 877.5 779 l 1
 884 779 l 2
 895 780 895 780 907 780 c 2
 930 780 l 2
 957 780 957 780 983 778 c 0
 1009 776 1009 776 1033 770 c 1
 1016 668 1016 668 991.5 568 c 0
 967 468 967 468 941 369 c 0
 940 363 940 363 938.5 357.5 c 0
 937 352 937 352 936 347 c 0
 916 267 916 267 896 186.5 c 0
 876 106 876 106 858 25 c 1
 836 7 l 2
 832 8 832 8 827.5 8.5 c 0
 823 9 823 9 820 9 c 2
 812 9 l 1
 804 9 l 1
 794.5 9 l 1
 784 8 l 1
 779.5 8 l 1
 775 8 l 2
 768 8 768 8 761 7.5 c 0
 754 7 754 7 745 7 c 0
 742 7 742 7 739.5 7.5 c 0
 737 8 737 8 734 8 c 0
 728 8 728 8 722 8.5 c 0
 716 9 716 9 709 10 c 1
 681 59 681 59 662 112 c 0
 643 165 643 165 625 219 c 0
 623 226 623 226 620.5 233.5 c 0
 618 241 618 241 615 248 c 0
 607 275 607 275 598 301 c 0
 589 327 589 327 579 352 c 1
 556 330 l 1
 453 8 l 1
 445 7 445 7 435.5 6 c 0
 426 5 426 5 417 4 c 0
 411 4 411 4 404.5 3 c 0
 398 2 398 2 392 2 c 0
 384 1 384 1 376.5 0.5 c 0
 369 0 369 0 360 0 c 0
 338 0 338 0 320.5 5 c 0
 303 10 303 10 292 25 c 1
 259 144 259 144 220.5 259.5 c 0
 182 375 182 375 141 490 c 0
 139 496 139 496 137 502.5 c 0
 135 509 135 509 133 516 c 0
 111 576 111 576 90.5 637 c 0
 70 698 70 698 49 760 c 1
 101 767 101 767 154.5 770.5 c 0
 208 774 208 774 264 774 c 2
 280.5 774 l 1
 296 774 l 1
 296 774 l 1
913 698 m 1
 896 698 l 1
 861 577 861 577 830 455.5 c 0
 799 334 799 334 770 212 c 1
 758 196 l 1
 731 245 731 245 710 297 c 0
 689 349 689 349 671 401 c 0
 669 407 669 407 666.5 413.5 c 0
 664 420 664 420 662 426 c 0
 638 491 638 491 613 554 c 0
 588 617 588 617 553 675 c 1
 541 638 541 638 527 600.5 c 0
 513 563 513 563 500 525 c 0
 472 450 472 450 446 373 c 0
 420 296 420 296 399 215 c 1
 382 198 l 1
 354 265 354 265 330 332.5 c 0
 306 400 306 400 285 469 c 0
 283 473 283 473 282 477 c 0
 281 481 281 481 279 485 c 0
 263 535 263 535 245.5 585.5 c 0
 228 636 228 636 210 686 c 1
 209.5 686 l 1
 208 686 l 1
 206.5 686 l 1
 206 686 l 1
 204.5 686 l 1
 203 686 l 1
 199.5 686 l 1
 197 686 l 2
 193 686 193 686 190.5 685.5 c 0
 188 685 188 685 187 682 c 0
 198 649 198 649 209.5 616 c 0
 221 583 221 583 232 550 c 0
 235 540 235 540 239 529.5 c 0
 243 519 243 519 246 510 c 0
 280 409 280 409 315 308.5 c 0
 350 208 350 208 388 113 c 1
 399 157 399 157 413.5 199.5 c 0
 428 242 428 242 443 285 c 0
 446 295 446 295 450 305 c 0
 454 315 454 315 458 327 c 0
 478 383 478 383 497.5 441 c 0
 517 499 517 499 531 558 c 1
 556 606 l 1
 585 550 585 550 610 492 c 0
 635 434 635 434 658 377 c 0
 662 366 662 366 666.5 355.5 c 0
 671 345 671 345 676 335 c 0
 699 279 699 279 721.5 223.5 c 0
 744 168 744 168 771 115 c 1
 790 187 790 187 809 260 c 0
 828 333 828 333 846 407 c 0
 863 481 863 481 880 554 c 0
 897 627 897 627 913 698 c 1
 913 698 l 1
EndSplineSet
Validated: 524325
EndChar

StartChar: Y
Encoding: 61 88 58
Width: 933
Flags: W
LayerCount: 2
Fore
SplineSet
309 780 m 1
 345 733 345 733 383 681.5 c 0
 421 630 421 630 461 574 c 1
 490 583 490 583 508.5 608.5 c 0
 527 634 527 634 543 663 c 2
 549 675 l 1
 556 688 l 1
 562.5 701 l 1
 570 714 l 2
 571 715 571 715 571.5 716.5 c 0
 572 718 572 718 572 720 c 0
 574 724 574 724 576.5 728 c 0
 579 732 579 732 581 736 c 0
 586 748 586 748 593 760 c 0
 600 772 600 772 610 780 c 1
 856 714 l 1
 856 681 l 1
 836 644 836 644 808.5 611 c 0
 781 578 781 578 754 545 c 0
 753 544 753 544 752.5 543 c 0
 752 542 752 542 751 541 c 0
 717 502 717 502 685 461.5 c 0
 653 421 653 421 634 375 c 1
 667 343 667 343 695.5 309.5 c 0
 724 276 724 276 752 243 c 0
 757 237 757 237 762 230.5 c 0
 767 224 767 224 772 218 c 0
 801 183 801 183 830.5 149.5 c 0
 860 116 860 116 892 84 c 1
 859 59 859 59 817 46 c 0
 775 33 775 33 732 23 c 0
 731 22 731 22 730 22 c 2
 728 22 l 1
 709 17 709 17 689 11.5 c 0
 669 6 669 6 650 0 c 1
 627 3 l 1
 621 11 621 11 614 20 c 0
 607 29 607 29 601 38 c 0
 593 48 593 48 586 59 c 0
 579 70 579 70 571 81 c 0
 548 114 548 114 523 143.5 c 0
 498 173 498 173 465 190 c 1
 445 170 445 170 430 146 c 0
 415 122 415 122 402 97 c 0
 400 94 400 94 398 90.5 c 0
 396 87 396 87 395 84 c 0
 383 61 383 61 370.5 39.5 c 0
 358 18 358 18 342 0 c 1
 284 6 284 6 228 16 c 0
 172 26 172 26 117 38 c 0
 101 42 101 42 85.5 45.5 c 0
 70 49 70 49 53 53 c 1
 70 78 70 78 88 102 c 2
 124 150 l 2
 127 154 127 154 129 157 c 2
 133 163 l 1
 174 217 174 217 214 273 c 0
 254 329 254 329 293 387 c 1
 285 423 l 1
 262 452 262 452 235.5 479.5 c 0
 209 507 209 507 182 535 c 0
 181 535 181 535 180 536 c 2
 178 538 l 2
 141 576 141 576 105.5 614.5 c 0
 70 653 70 653 43 696 c 1
 309 780 l 1
 309 780 l 1
359 521 m 1
 255 646 l 2
 253 648 253 648 249.5 649.5 c 0
 246 651 246 651 243 652 c 2
 240 652 l 1
 238 652 l 2
 234 652 234 652 229 650.5 c 0
 224 649 224 649 221 646 c 1
 239 613 239 613 266 583.5 c 0
 293 554 293 554 322 525 c 2
 325 522 l 1
 328 519 l 2
 361 486 361 486 391 452 c 0
 421 418 421 418 440 379 c 1
 241 129 l 1
 242 112 l 1
 255 112 l 1
 286 140 286 140 311 170 c 0
 336 200 336 200 360 231 c 0
 368 242 368 242 377 253 c 0
 386 264 386 264 394 275 c 0
 411 297 411 297 430 318.5 c 0
 449 340 449 340 469 360 c 1
 488 338 488 338 505 318.5 c 0
 522 299 522 299 539 281 c 0
 546 273 546 273 552.5 264.5 c 0
 559 256 559 256 566 247 c 0
 578 233 578 233 590 217 c 0
 602 201 602 201 615 183 c 0
 622 178 622 178 629 170 c 0
 636 162 636 162 643 153 c 0
 654 139 654 139 666 126 c 0
 678 113 678 113 695 113 c 0
 697 113 697 113 699.5 113.5 c 0
 702 114 702 114 706 115 c 1
 684 146 684 146 661 175 c 0
 638 204 638 204 613 231 c 0
 596 251 596 251 578.5 271.5 c 0
 561 292 561 292 543 313 c 0
 529 329 529 329 515 347.5 c 0
 501 366 501 366 486 384 c 1
 506 415 506 415 529.5 444.5 c 0
 553 474 553 474 578 503 c 0
 581 507 581 507 583.5 510.5 c 0
 586 514 586 514 589 518 c 0
 615 549 615 549 639.5 580 c 0
 664 611 664 611 686 645 c 0
 685 646 685 646 684.5 647 c 0
 684 648 684 648 683 648 c 0
 682 650 682 650 681 651 c 0
 680 652 680 652 680 653 c 0
 678 655 678 655 676.5 655.5 c 0
 675 656 675 656 673 655 c 0
 634 617 634 617 596.5 572.5 c 0
 559 528 559 528 523 482 c 0
 511 465 511 465 498 448 c 0
 485 431 485 431 473 415 c 1
 454 425 454 425 438.5 441 c 0
 423 457 423 457 409 473 c 0
 408 473 408 473 407.5 473.5 c 0
 407 474 407 474 407 475 c 0
 396 487 396 487 384.5 499 c 0
 373 511 373 511 359 521 c 1
 359 521 l 1
EndSplineSet
Validated: 524293
EndChar

StartChar: Z
Encoding: 62 89 59
Width: 808
Flags: W
LayerCount: 2
Fore
SplineSet
37 768 m 1
 62 769 62 769 85 770.5 c 0
 108 772 108 772 130 774 c 0
 147 775 147 775 164 776.5 c 0
 181 778 181 778 198 779 c 0
 209 779 209 779 220 779.5 c 0
 231 780 231 780 243 780 c 2
 259.5 780 l 1
 278 779 l 2
 286 779 286 779 294.5 778 c 0
 303 777 303 777 311 776 c 1
 421 625 l 1
 448 647 448 647 465.5 678 c 0
 483 709 483 709 495 742 c 0
 498 749 498 749 500 757 c 0
 502 765 502 765 504 772 c 1
 773 774 l 1
 761 716 l 1
 427 0 l 1
 113 10 l 1
 113 33 l 1
 173 115 173 115 220.5 203.5 c 0
 268 292 268 292 309 382 c 1
 306 404 l 1
 231 492 231 492 162 583 c 0
 93 674 93 674 37 768 c 1
 37 768 l 1
254 684 m 1
 225 684 l 1
 251 642 251 642 281 602 c 0
 311 562 311 562 342 522 c 0
 344 520 344 520 345.5 518 c 0
 347 516 347 516 348 515 c 0
 373 483 373 483 397 452 c 0
 421 421 421 421 443 388 c 1
 299 109 l 1
 300 109 300 109 301.5 109.5 c 0
 303 110 303 110 304 110 c 2
 306.5 110 l 1
 309 110 l 1
 316 110 l 1
 323 110 l 1
 330 110.5 l 1
 335 113 l 1
 620 672 l 1
 591 677 l 1
 574 651 574 651 560.5 623.5 c 0
 547 596 547 596 534 568 c 0
 533 567 533 567 532 565 c 0
 531 563 531 563 530 562 c 0
 515 527 515 527 497.5 493 c 0
 480 459 480 459 457 429 c 1
 449 439 449 439 439.5 449.5 c 0
 430 460 430 460 422 470 c 0
 378 521 378 521 335.5 575 c 0
 293 629 293 629 254 684 c 1
 254 684 l 1
EndSplineSet
Validated: 524293
EndChar

StartChar: bracketleft
Encoding: 63 90 60
Width: 838
Flags: W
LayerCount: 2
Fore
SplineSet
801 780 m 1
 801 748 l 1
 703 631 703 631 622 502 c 0
 541 373 541 373 473 241 c 0
 473 240 473 240 473.5 239 c 0
 474 238 474 238 475 237 c 0
 477 231 477 231 481.5 225.5 c 0
 486 220 486 220 494 220 c 2
 495.5 220 l 1
 497 220 l 1
 795 201 l 1
 762 10 l 1
 733 0 l 1
 664 6 664 6 589.5 9 c 0
 515 12 515 12 439 13 c 0
 414 14 414 14 389 14 c 2
 339 14 l 2
 268 15 268 15 200 14 c 0
 132 13 132 13 69 11 c 1
 68 50 l 1
 96 99 96 99 128 148 c 0
 160 197 160 197 193 245 c 0
 198 252 198 252 202.5 259 c 0
 207 266 207 266 212 273 c 0
 257 340 257 340 298.5 407 c 0
 340 474 340 474 370 543 c 1
 346 551 346 551 322 554 c 0
 298 557 298 557 274 557 c 0
 236 557 236 557 198.5 551 c 0
 161 545 161 545 124 538 c 0
 102 534 102 534 80.5 529.5 c 0
 59 525 59 525 38 522 c 1
 40 574 l 1
 43 626 l 2
 45 664 45 664 50.5 701 c 0
 56 738 56 738 67 773 c 1
 129 774 129 774 192.5 773 c 0
 256 772 256 772 321 771 c 2
 344.5 771 l 1
 369 770 l 2
 480 769 480 769 589 769.5 c 0
 698 770 698 770 801 780 c 1
 801 780 l 1
145 672 m 1
 145 669.5 l 1
 145 666 l 2
 144 665 144 665 144 664 c 2
 144 662 l 1
 144 659.5 l 1
 144 657 l 2
 144 653 144 653 145.5 649 c 0
 147 645 147 645 152 643 c 0
 185 645 185 645 219 646 c 2
 287 648 l 1
 304.5 648 l 1
 322 648 l 2
 383 648 383 648 444 646.5 c 0
 505 645 505 645 561 642 c 1
 528 581 528 581 490.5 521.5 c 0
 453 462 453 462 413 402 c 0
 366 331 366 331 321 260 c 0
 276 189 276 189 241 115 c 1
 266 115 266 115 289.5 114 c 0
 313 113 313 113 338 113 c 0
 346 113 346 113 355.5 112.5 c 0
 365 112 365 112 374 112 c 0
 429 110 429 110 484 109 c 0
 539 108 539 108 592 108 c 2
 636.5 108 l 1
 680 109 l 1
 680 135 l 1
 649 139 649 139 618.5 140.5 c 0
 588 142 588 142 556 142 c 0
 531 142 531 142 506.5 141.5 c 0
 482 141 482 141 458 140 c 0
 428 139 428 139 398 138.5 c 0
 368 138 368 138 338 138 c 2
 292 143 l 1
 330 202 330 202 370 265.5 c 0
 410 329 410 329 451 393 c 0
 462 410 462 410 472.5 427 c 0
 483 444 483 444 494 461 c 0
 529 515 529 515 562 569.5 c 0
 595 624 595 624 626 676 c 1
 587 676 587 676 547 677 c 0
 507 678 507 678 466 679 c 0
 449 679 449 679 432.5 680 c 0
 416 681 416 681 398 681 c 0
 379 681 379 681 360 681.5 c 0
 341 682 341 682 322 682 c 0
 277 682 277 682 232 680 c 0
 187 678 187 678 145 672 c 1
 145 672 l 1
EndSplineSet
Validated: 524325
EndChar

StartChar: bracketright
Encoding: 65 92 62
Width: 512
Flags: W
LayerCount: 2
Fore
SplineSet
-1 753 m 1
 5 725 l 1
 128 565 128 565 227.5 393.5 c 0
 327 222 327 222 415 48 c 1
 441 42 441 42 466 39.5 c 0
 491 37 491 37 517 38 c 0
 529 38 529 38 541 38.5 c 0
 553 39 553 39 565 39 c 0
 571 40 571 40 577 40 c 0
 583 40 583 40 589 41 c 0
 607 41 607 41 625.5 42 c 0
 644 43 644 43 661 43 c 0
 679 43 679 43 697 41.5 c 0
 715 40 715 40 733 37 c 1
 743 48 l 1
 712 93 712 93 681.5 138 c 0
 651 183 651 183 620 228 c 0
 613 238 613 238 606 249 c 0
 599 260 599 260 591 270 c 0
 511 386 511 386 432.5 503 c 0
 354 620 354 620 283 740 c 1
 243 744 243 744 201 747.5 c 0
 159 751 159 751 117 753 c 0
 101 753 101 753 84 753.5 c 0
 67 754 67 754 51 754 c 2
 25 754 l 1
 -1 753 l 1
492 158 m 2
 184 647 l 1
 220 647 l 1
 433 309 l 2
 442 293 442 293 452 278.5 c 0
 462 264 462 264 473 250 c 0
 477 245 477 245 480 240.5 c 0
 483 236 483 236 487 231 c 0
 501 211 501 211 514 191 c 0
 527 171 527 171 535 147 c 1
 527 147 527 147 519 149.5 c 0
 511 152 511 152 502 155 c 0
 500 156 500 156 497.5 156.5 c 0
 495 157 495 157 492 158 c 2
EndSplineSet
Validated: 41
EndChar

StartChar: b
Encoding: 70 97 67
Width: 917
Flags: W
LayerCount: 2
Fore
SplineSet
591 777 m 1
 598 773 598 773 640.5 666.5 c 0
 683 560 683 560 732 427 c 0
 736 418 736 418 739.5 408 c 0
 743 398 743 398 746 389 c 0
 795 256 795 256 834 142 c 0
 873 28 873 28 876 5 c 1
 625 5 l 1
 617 14 617 14 609.5 26 c 0
 602 38 602 38 597 49 c 0
 587 74 587 74 582.5 94 c 2
 578 114 l 1
 556 110 556 110 529 109 c 0
 502 108 502 108 473 108 c 2
 469 108 l 1
 465 108 l 2
 449 108 449 108 432.5 108.5 c 0
 416 109 416 109 400 109 c 0
 384 109 384 109 368 109.5 c 0
 352 110 352 110 340 110 c 2
 332 110 l 1
 324 110 l 1
 320 103 320 103 316 89 c 0
 312 75 312 75 307 60 c 0
 301 37 301 37 293.5 19.5 c 0
 286 2 286 2 276 4 c 2
 51 7 l 2
 50 8 50 8 49.5 10 c 0
 49 12 49 12 49 15 c 0
 49 47 49 47 98.5 174.5 c 0
 148 302 148 302 209 449 c 0
 246 541 246 541 281 628 c 0
 316 715 316 715 339 778 c 1
 356 777 356 777 383.5 776 c 0
 411 775 411 775 441 775 c 2
 449.5 775 l 1
 458 775 l 2
 477 775 477 775 496 775.5 c 0
 515 776 515 776 531 776 c 0
 551 776 551 776 566 776.5 c 0
 581 777 581 777 587 777 c 2
 590 777 l 1
 591 777 l 1
 591 777 l 1
509 674 m 1
 498 678 498 678 487.5 678.5 c 0
 477 679 477 679 467 679 c 0
 459 679 459 679 450 679.5 c 0
 441 680 441 680 431 684 c 1
 427 675 427 675 423 665.5 c 0
 419 656 419 656 415 648 c 0
 356 512 356 512 298 375.5 c 0
 240 239 240 239 189 101 c 1
 191.5 101 l 1
 194 101 l 2
 198 101 198 101 199.5 99.5 c 0
 201 98 201 98 202 96 c 0
 202 95 202 95 202.5 94 c 0
 203 93 203 93 203 92 c 0
 203 91 203 91 203 93 c 0
 203 95 203 95 206 102 c 0
 208 108 208 108 214 121 c 0
 220 134 220 134 226 148 c 0
 227 151 227 151 228 153.5 c 0
 229 156 229 156 230 159 c 0
 237 172 237 172 243 183 c 0
 249 194 249 194 253 198 c 2
 671 201 l 1
 678 189.5 l 2
 685 178 685 178 693 162 c 0
 697 154 697 154 701.5 145.5 c 0
 706 137 706 137 709 129 c 2
 713 115 l 1
 716 101 l 1
 721 97 721 97 726.5 98 c 0
 732 99 732 99 738 108 c 1
 701 206 701 206 661.5 304 c 0
 622 402 622 402 581 500 c 0
 563 544 563 544 544.5 587.5 c 0
 526 631 526 631 509 674 c 1
 509 674 l 1
489 656 m 1
 664 221 l 1
 270 221 l 1
 282 256 282 256 300.5 302.5 c 0
 319 349 319 349 339 397 c 0
 341 402 341 402 343.5 408 c 0
 346 414 346 414 348 420 c 0
 384 507 384 507 414 576 c 2
 444 645 l 2
 447 653 447 653 453 655 c 0
 459 657 459 657 465 656 c 2
 468.5 656 l 1
 471 656 l 1
 477 656 l 1
 483 656 l 1
 486.5 656 l 1
 489 656 l 1
 489 656 l 1
532 285 m 1
 530 300 530 300 525.5 316 c 0
 521 332 521 332 516 349 c 0
 507 375 507 375 493.5 400 c 0
 480 425 480 425 463 444 c 1
 458 433 458 433 452 422.5 c 0
 446 412 446 412 440 400 c 0
 424 371 424 371 411 341 c 0
 398 311 398 311 398 280 c 1
 404 281 404 281 410 281.5 c 0
 416 282 416 282 421 282 c 0
 430 282 430 282 438.5 281 c 0
 447 280 447 280 456 279 c 0
 460 278 460 278 464.5 277 c 0
 469 276 469 276 473 276 c 0
 477 276 477 276 481 275.5 c 0
 485 275 485 275 489 275 c 0
 499 275 499 275 510 277.5 c 0
 521 280 521 280 532 285 c 1
 532 285 l 1
EndSplineSet
Validated: 524293
EndChar

StartChar: c
Encoding: 71 98 68
Width: 724
Flags: W
LayerCount: 2
Fore
SplineSet
51 777 m 1
 73 773 73 773 96.5 771 c 0
 120 769 120 769 143 769 c 0
 170 769 170 769 197.5 770.5 c 0
 225 772 225 772 254 775 c 0
 282 777 282 777 309.5 778.5 c 0
 337 780 337 780 364 780 c 0
 433 780 433 780 492.5 760.5 c 0
 552 741 552 741 593 679 c 0
 596 675 596 675 599.5 671.5 c 0
 603 668 603 668 606 664 c 0
 611 659 611 659 616 653.5 c 0
 621 648 621 648 626 643 c 0
 648 620 648 620 666 595.5 c 0
 684 571 684 571 683 543 c 0
 683 533 683 533 680.5 521.5 c 0
 678 510 678 510 671 499 c 2
 575 370 l 1
 584 355 584 355 597 340 c 0
 610 325 610 325 624 310 c 0
 625 309 625 309 625.5 308 c 0
 626 307 626 307 627 306 c 0
 652 280 652 280 672 253 c 0
 692 226 692 226 692 194 c 0
 692 184 692 184 689.5 172.5 c 0
 687 161 687 161 682 150 c 0
 641 56 641 56 569 26.5 c 0
 497 -3 497 -3 411 -3 c 0
 376 -3 376 -3 340.5 -0.5 c 0
 305 2 305 2 269 5 c 0
 232 8 232 8 197 11 c 0
 162 14 162 14 127 14 c 0
 107 14 107 14 87.5 12.5 c 0
 68 11 68 11 48 8 c 1
 33 31 l 1
 43 774 l 1
 51 777 l 1
 51 777 l 1
451 679 m 1
 408 689 408 689 364.5 695 c 0
 321 701 321 701 276 701 c 0
 245 701 245 701 214 697.5 c 0
 183 694 183 694 152 686 c 1
 152 103 l 1
 174 103 174 103 195.5 102 c 0
 217 101 217 101 239 101 c 0
 262 100 262 100 283 99 c 0
 304 98 304 98 326 98 c 0
 367 98 367 98 405.5 103 c 0
 444 108 444 108 481 121 c 0
 508 129 508 129 525.5 152 c 0
 543 175 543 175 547 201 c 0
 547 204 547 204 547.5 206.5 c 0
 548 209 548 209 548 212 c 0
 543 251 543 251 516.5 286.5 c 0
 490 322 490 322 460 350 c 0
 448 361 448 361 435.5 371.5 c 0
 423 382 423 382 413 390 c 1
 456 403 456 403 490.5 434.5 c 0
 525 466 525 466 548 506 c 0
 550 513 550 513 550.5 519 c 0
 551 525 551 525 551 531 c 0
 551 562 551 562 532.5 585.5 c 0
 514 609 514 609 493 632 c 0
 491 633 491 633 489.5 634.5 c 2
 487 637 l 2
 477 647 477 647 467.5 657.5 c 0
 458 668 458 668 451 679 c 1
 451 679 l 1
178 380 m 1
 197.5 380 l 1
 218 380 l 2
 236 380 236 380 254.5 379.5 c 0
 273 379 273 379 293 378 c 0
 359 373 359 373 419 349.5 c 0
 479 326 479 326 508 256 c 0
 513 246 513 246 516.5 233.5 c 0
 520 221 520 221 520 208 c 0
 520 200 520 200 517.5 191.5 c 0
 515 183 515 183 508 176 c 0
 473 143 473 143 429 132 c 0
 385 121 385 121 337 121 c 0
 328 121 328 121 318.5 121.5 c 0
 309 122 309 122 300 122 c 0
 284 123 284 123 267.5 124.5 c 0
 251 126 251 126 234 127 c 0
 219 128 219 128 203.5 129.5 c 0
 188 131 188 131 174 132 c 1
 178 380 l 1
 178 380 l 1
413 250 m 1
 396 278 396 278 364.5 295.5 c 0
 333 313 333 313 295 313 c 2
 292 313 l 1
 289 313 l 2
 287 312 287 312 285.5 312 c 2
 282 312 l 1
 278 300 278 300 275 284.5 c 0
 272 269 272 269 272 253 c 0
 272 238 272 238 275 223 c 0
 278 208 278 208 282 195 c 1
 287 194 287 194 291 193.5 c 0
 295 193 295 193 299 193 c 0
 310 193 310 193 320.5 195.5 c 0
 331 198 331 198 341 201 c 0
 343 202 343 202 344.5 202.5 c 0
 346 203 346 203 348 203 c 0
 356 206 356 206 365.5 207.5 c 0
 375 209 375 209 384 209 c 2
 387.5 209 l 1
 390 209 l 2
 392 210 392 210 395 212 c 2
 401 216 l 2
 407 220 407 220 413 225.5 c 0
 419 231 419 231 418 238 c 0
 418 241 418 241 417 244 c 0
 416 247 416 247 413 250 c 1
 413 250 l 1
183 674 m 1
 203 672 l 1
 223 671 l 2
 237 671 237 671 252 672 c 0
 267 673 267 673 283 674 c 2
 313 676 l 1
 342 677 l 2
 377 677 377 677 408 667.5 c 0
 439 658 439 658 462 629 c 0
 466 624 466 624 470.5 619 c 0
 475 614 475 614 480 608 c 0
 496 591 496 591 509.5 570.5 c 0
 523 550 523 550 523 528 c 0
 523 525 523 525 522.5 522.5 c 0
 522 520 522 520 522 517 c 0
 521 514 521 514 520 511.5 c 0
 519 509 519 509 518 506 c 0
 502 475 502 475 476.5 449 c 0
 451 423 451 423 418 408 c 1
 398 406 398 406 377 404 c 0
 356 402 356 402 336 402 c 0
 326 401 326 401 315.5 401 c 2
 295 401 l 2
 266 401 266 401 236 402.5 c 0
 206 404 206 404 174 408 c 1
 183 674 l 1
 183 674 l 1
395 579 m 1
 377 591 377 591 355.5 597 c 0
 334 603 334 603 310 603 c 0
 305 603 305 603 299 602.5 c 0
 293 602 293 602 287 601 c 0
 286 598 286 598 285 594.5 c 0
 284 591 284 591 283 587 c 0
 281 579 281 579 278.5 569.5 c 0
 276 560 276 560 274 551 c 0
 273 544 273 544 272.5 537 c 0
 272 530 272 530 272 524 c 0
 272 511 272 511 276 499 c 0
 280 487 280 487 287 476 c 1
 296 475 296 475 305 474.5 c 0
 314 474 314 474 324 475 c 0
 351 475 351 475 374 482.5 c 0
 397 490 397 490 413 516 c 0
 414 521 414 521 414 526.5 c 2
 414 537 l 2
 414 549 414 549 410.5 559.5 c 0
 407 570 407 570 395 579 c 1
 395 579 l 1
EndSplineSet
Validated: 524325
EndChar

StartChar: d
Encoding: 72 99 69
Width: 593
Flags: W
LayerCount: 2
Fore
SplineSet
434 778 m 1
 566 610 l 1
 559 595 559 595 544 590 c 0
 529 585 529 585 512 582 c 0
 511 582 511 582 510 581.5 c 0
 509 581 509 581 507 581 c 0
 497 579 497 579 486 575 c 0
 475 571 475 571 466 565 c 0
 457 561 457 561 447.5 557 c 0
 438 553 438 553 429 548 c 0
 390 528 390 528 354 498.5 c 0
 318 469 318 469 298 428 c 0
 296 420 296 420 294.5 412 c 0
 293 404 293 404 293 396 c 0
 293 367 293 367 307.5 342.5 c 0
 322 318 322 318 338 296 c 0
 339 296 339 296 339.5 295 c 0
 340 294 340 294 341 293 c 0
 382 249 382 249 432 225 c 0
 482 201 482 201 535 184 c 0
 543 182 543 182 550.5 179.5 c 0
 558 177 558 177 566 175 c 1
 547 134 547 134 520 95 c 0
 493 56 493 56 464 19 c 0
 460 14 460 14 456.5 9.5 c 0
 453 5 453 5 449 0 c 1
 399 0 l 1
 387 5 387 5 374 10 c 0
 361 15 361 15 349 22 c 0
 246 68 246 68 153.5 144 c 0
 61 220 61 220 29 333 c 0
 28 341 28 341 27.5 349.5 c 0
 27 358 27 358 27 367 c 0
 28 463 28 463 77 549.5 c 0
 126 636 126 636 209 693 c 0
 218 697 218 697 227.5 702.5 c 0
 237 708 237 708 246 713 c 0
 251 716 251 716 256.5 719.5 c 0
 262 723 262 723 267 726 c 0
 301 746 301 746 337 763 c 0
 373 780 373 780 413 780 c 0
 418 780 418 780 423.5 779.5 c 0
 429 779 429 779 434 778 c 1
 434 778 l 1
412 666 m 1
 357 665 357 665 308.5 628.5 c 0
 260 592 260 592 217 550 c 0
 210 542 210 542 202 533.5 c 0
 194 525 194 525 186 518 c 0
 169 491 169 491 156.5 459.5 c 0
 144 428 144 428 142 395 c 2
 142 388.5 l 1
 142 382 l 2
 142 366 142 366 145 349 c 0
 148 332 148 332 156 315 c 0
 200 241 200 241 265 184.5 c 0
 330 128 330 128 409 108 c 1
 412 125 l 1
 403 133 403 133 391.5 137.5 c 0
 380 142 380 142 367 142 c 1
 295 187 295 187 234.5 246.5 c 0
 174 306 174 306 169 396 c 1
 177 467 177 467 225 518.5 c 0
 273 570 273 570 330 610 c 0
 352 625 352 625 372.5 639 c 0
 393 653 393 653 412 666 c 1
 412 666 l 1
EndSplineSet
Validated: 524293
EndChar

StartChar: e
Encoding: 73 100 70
Width: 783
Flags: W
LayerCount: 2
Fore
SplineSet
46 780 m 1
 76 779 76 779 105.5 779 c 2
 165 779 l 1
 172 779 l 1
 179 779 l 1
 201.5 779 l 1
 224 779 l 2
 335 779 335 779 436.5 759.5 c 0
 538 740 538 740 610 656 c 1
 664 600 664 600 706 532.5 c 0
 748 465 748 465 748 386 c 0
 748 369 748 369 745 351 c 0
 742 333 742 333 737 314 c 0
 711 209 711 209 634.5 133 c 0
 558 57 558 57 461 12 c 1
 422 5 422 5 383 2.5 c 0
 344 0 344 0 305 0 c 0
 266 0 266 0 227 2 c 0
 188 4 188 4 148 7 c 0
 120 8 120 8 91.5 9.5 c 0
 63 11 63 11 35 12 c 1
 36 82 36 82 37.5 152 c 0
 39 222 39 222 40 294 c 2
 42 372 l 1
 43 451 l 2
 45 534 45 534 46 616 c 0
 47 698 47 698 46 780 c 1
 46 780 l 1
593 519 m 1
 549 578 549 578 492.5 623.5 c 0
 436 669 436 669 370 684 c 0
 352 684 352 684 333.5 685.5 c 0
 315 687 315 687 298 689 c 0
 290 689 290 689 281 690 c 0
 272 691 272 691 264 692 c 0
 255 692 255 692 246.5 692.5 c 0
 238 693 238 693 229 693 c 0
 213 693 213 693 195.5 691 c 0
 178 689 178 689 160 684 c 1
 155 114 l 1
 184 110 184 110 213 106.5 c 0
 242 103 242 103 270 103 c 0
 361 103 361 103 442.5 134.5 c 0
 524 166 524 166 578 241 c 0
 602 271 602 271 614 307 c 0
 626 343 626 343 628 381 c 2
 628 386 l 1
 628 392 l 2
 628 426 628 426 619 459 c 0
 610 492 610 492 593 519 c 1
 593 519 l 1
365 656 m 1
 419 637 419 637 468 604.5 c 0
 517 572 517 572 555 524 c 1
 573 492 573 492 586.5 457 c 0
 600 422 600 422 600 383 c 2
 600 369 l 1
 598 355 l 2
 585 288 585 288 541 239 c 0
 497 190 497 190 439 154 c 1
 404 139 404 139 366 133 c 0
 328 127 328 127 288 127 c 0
 268 127 268 127 247.5 128 c 0
 227 129 227 129 208 130 c 0
 202 131 202 131 195 131.5 c 0
 188 132 188 132 182 132 c 1
 182 662 l 1
 195 667 195 667 209.5 669 c 0
 224 671 224 671 241 671 c 0
 252 671 252 671 263.5 670 c 0
 275 669 275 669 288 668 c 0
 298 667 298 667 307.5 665.5 c 0
 317 664 317 664 328 662 c 0
 337 661 337 661 346 659 c 0
 355 657 355 657 365 656 c 1
 365 656 l 1
445 497 m 1
 378 547 l 2
 371 548 371 548 363 550.5 c 0
 355 553 355 553 348 556 c 0
 347 557 347 557 346.5 557 c 2
 346 557 l 1
 338 561 338 561 330.5 563.5 c 0
 323 566 323 566 314 566 c 0
 308 565 308 565 302.5 563.5 c 0
 297 562 297 562 292 557 c 1
 287 263 l 1
 287 256.5 l 1
 287 250 l 2
 288 240 288 240 292.5 232 c 0
 297 224 297 224 309 228 c 1
 369 228 369 228 414.5 269 c 0
 460 310 460 310 483 359 c 0
 486 369 486 369 487.5 378.5 c 0
 489 388 489 388 489 397 c 0
 489 425 489 425 477 450 c 0
 465 475 465 475 445 497 c 1
 445 497 l 1
EndSplineSet
Validated: 524325
EndChar

StartChar: f
Encoding: 74 101 71
Width: 643
Flags: W
LayerCount: 2
Fore
SplineSet
35 763 m 1
 100 769 100 769 163.5 770 c 0
 227 771 227 771 292 770 c 2
 322 770 l 1
 351 770 l 2
 404 770 404 770 457 772 c 0
 510 774 510 774 563 780 c 1
 580 724 580 724 594.5 664.5 c 0
 609 605 609 605 613 545 c 1
 541 556 541 556 468 562.5 c 0
 395 569 395 569 318 569 c 2
 292 569 l 1
 264 568 l 1
 256 562 256 562 253 554.5 c 0
 250 547 250 547 250 539 c 0
 250 534 250 534 251 528 c 2
 253 516 l 2
 253 511 253 511 254 505.5 c 0
 255 500 255 500 255 494 c 2
 255 490 l 1
 255 486 l 1
 291 484 291 484 329.5 482 c 0
 368 480 368 480 406 480 c 0
 437 480 437 480 466.5 482 c 0
 496 484 496 484 524 489 c 1
 526 470 526 470 533 451 c 2
 547 413 l 2
 549 410 549 410 550.5 405.5 c 0
 552 401 552 401 553 397 c 0
 561 379 561 379 566 359.5 c 0
 571 340 571 340 571 319 c 0
 571 312 571 312 570 304 c 0
 569 296 569 296 567 288 c 1
 264 288 l 1
 259 279 259 279 256.5 267 c 0
 254 255 254 255 254 242 c 0
 254 232 254 232 255 222.5 c 0
 256 213 256 213 257 204 c 0
 258 201 258 201 258.5 198 c 0
 259 195 259 195 259 191 c 0
 292 187 292 187 323 185 c 0
 354 183 354 183 386 183 c 2
 404 183 l 1
 422 183 l 2
 446 184 446 184 469 185 c 2
 515 187 l 1
 560 189 l 1
 604 191 l 1
 606 187 606 187 607 183.5 c 0
 608 180 608 180 609 177 c 0
 609 173 609 173 609.5 169.5 c 0
 610 166 610 166 610 162 c 0
 610 149 610 149 606 135 c 0
 602 121 602 121 597 108 c 0
 597 106 597 106 596.5 104 c 0
 596 102 596 102 595 101 c 0
 591 89 591 89 587 77.5 c 0
 583 66 583 66 581 53 c 2
 563 0 l 1
 35 0 l 1
 32 104 32 104 31 204 c 0
 30 304 30 304 30 403 c 0
 30 491 30 491 31.5 580.5 c 0
 33 670 33 670 35 763 c 1
 35 763 l 1
494 660 m 1
 497 662 497 662 498 664 c 0
 499 666 499 666 499 668 c 0
 499 670 499 670 497.5 672 c 0
 496 674 496 674 494 677 c 0
 492 678 492 678 490.5 680 c 0
 489 682 489 682 488 684 c 2
 415.5 684 l 1
 344 685 l 1
 237.5 685 l 1
 132 685 l 1
 133 627 133 627 133.5 561.5 c 0
 134 496 134 496 134 429 c 2
 134 417.5 l 1
 134 407 l 2
 135 316 135 316 136.5 228 c 0
 138 140 138 140 143 71 c 1
 187 69 187 69 233 67.5 c 0
 279 66 279 66 325 67 c 0
 368 67 368 67 410.5 68 c 0
 453 69 453 69 494 71 c 0
 495 73 495 73 494.5 76 c 0
 494 79 494 79 494 82 c 0
 493 85 493 85 490.5 88.5 c 0
 488 92 488 92 486 95 c 0
 486 96 486 96 485 97 c 2
 483 99 l 1
 455 98 455 98 428 97 c 0
 401 96 401 96 375 95 c 2
 348 95 l 1
 321 95 l 2
 283 95 283 95 245 96.5 c 0
 207 98 207 98 168 99 c 1
 166 140 166 140 164.5 179 c 0
 163 218 163 218 163 256 c 0
 163 286 163 286 164.5 315 c 0
 166 344 166 344 168 373 c 1
 200 375 200 375 230 376 c 0
 260 377 260 377 290 377 c 0
 312 377 312 377 333.5 376.5 c 0
 355 376 355 376 378 376 c 0
 400 376 400 376 423 375.5 c 0
 446 375 446 375 471 375 c 1
 473 381 473 381 470.5 385 c 0
 468 389 468 389 464 392 c 0
 464 393 464 393 463 393.5 c 0
 462 394 462 394 461 395 c 2
 168 395 l 1
 166.5 413 l 2
 165 431 165 431 163 459 c 0
 161 476 161 476 160 496.5 c 0
 159 517 159 517 158 539 c 0
 157 550 157 550 157 561 c 2
 157 584 l 2
 157 608 157 608 158.5 627.5 c 0
 160 647 160 647 163 660 c 1
 494 660 l 1
 494 660 l 1
EndSplineSet
Validated: 524325
EndChar

StartChar: g
Encoding: 75 102 72
Width: 665
Flags: W
LayerCount: 2
Fore
SplineSet
60 780 m 1
 131 774 131 774 210 773 c 0
 289 772 289 772 369 772 c 2
 371.5 772 l 1
 374 772 l 1
 401 772 l 1
 428 772 l 2
 475 772 475 772 521.5 771 c 0
 568 770 568 770 612 768 c 1
 636 527 l 1
 620 530 620 530 603.5 533 c 0
 587 536 587 536 570 539 c 0
 523 547 523 547 473.5 554 c 0
 424 561 424 561 373 561 c 0
 354 561 354 561 334.5 560 c 0
 315 559 315 559 296 556 c 1
 291 546 291 546 288.5 534.5 c 0
 286 523 286 523 286 511 c 0
 286 504 286 504 287 496 c 0
 288 488 288 488 288 481 c 0
 289 471 289 471 290 462.5 c 0
 291 454 291 454 291 445 c 1
 321 436 321 436 354.5 433.5 c 0
 388 431 388 431 424 431 c 2
 446.5 431 l 1
 469 432 l 1
 480.5 432 l 1
 493 433 l 2
 509 433 509 433 526 433.5 c 0
 543 434 543 434 559 434 c 0
 565 433 565 433 571.5 433 c 2
 584 433 l 1
 588 409 588 409 591 385.5 c 0
 594 362 594 362 595 339 c 2
 597 317 l 1
 598 295 l 2
 600 277 600 277 601 258.5 c 0
 602 240 602 240 604 221 c 1
 589 211 l 1
 551 220 551 220 509.5 224 c 0
 468 228 468 228 426 229 c 2
 405 229 l 1
 384 229 l 1
 346 229 l 1
 308 228 l 1
 301 215 l 1
 314 4 l 1
 296 3 296 3 276.5 2 c 0
 257 1 257 1 237 1 c 0
 224 1 224 1 210 1.5 c 0
 196 2 196 2 181 2 c 0
 146 4 146 4 112.5 7.5 c 0
 79 11 79 11 48 15 c 1
 33 45 l 1
 38 145 38 145 41 233 c 0
 44 321 44 321 44 404 c 0
 44 490 44 490 41 579 c 0
 38 668 38 668 31 768 c 1
 60 780 l 1
 60 780 l 1
521 652 m 1
 521 669 l 1
 480 668 480 668 439 668 c 2
 357 668 l 2
 307 668 307 668 257 667.5 c 0
 207 667 207 667 158 666 c 1
 157 607 157 607 156.5 541.5 c 0
 156 476 156 476 156 411 c 2
 156 373.5 l 1
 156 337 l 1
 156 219.5 l 1
 155 110 l 2
 154 106 154 106 156 104 c 0
 158 102 158 102 162 102 c 2
 164.5 102 l 1
 167 102 l 1
 168.5 102 l 1
 169 103 l 1
 172.5 103 l 1
 175 103 l 1
 177 119 177 119 178 136.5 c 0
 179 154 179 154 180 171 c 2
 180 182.5 l 1
 180 195 l 2
 180 219 180 219 179 241 c 0
 178 263 178 263 177 283 c 0
 176 290 176 290 175.5 296 c 0
 175 302 175 302 175 308 c 2
 191 326 l 1
 493 321 l 1
 493 336 l 1
 460 340 460 340 425 342 c 0
 390 344 390 344 355 345 c 0
 338 346 338 346 320 346.5 c 0
 302 347 302 347 285 347 c 0
 257 347 257 347 231 348 c 0
 205 349 205 349 180 350 c 1
 180 647 l 1
 521 652 l 1
 521 652 l 1
EndSplineSet
Validated: 524293
EndChar

StartChar: h
Encoding: 76 103 73
Width: 745
Flags: W
LayerCount: 2
Fore
SplineSet
620 666 m 1
 620 650 l 1
 521 614 521 614 435.5 544 c 0
 350 474 350 474 286 388 c 0
 283 382 283 382 281.5 375.5 c 0
 280 369 280 369 280 361 c 0
 280 356 280 356 281 350 c 0
 282 344 282 344 284 339 c 0
 286 329 286 329 290 318.5 c 0
 294 308 294 308 298 299 c 0
 299 296 299 296 300.5 293.5 c 0
 302 291 302 291 303 289 c 0
 331 251 331 251 368.5 228 c 0
 406 205 406 205 450 205 c 2
 452 205 l 1
 454 205 l 1
 455 205 l 1
 457 205 l 1
 471 220 l 1
 469 462 l 1
 480 464 480 464 491.5 466 c 0
 503 468 503 468 514 469 c 0
 525 470 525 470 536.5 470.5 c 0
 548 471 548 471 559 471 c 0
 595 471 595 471 629.5 465.5 c 0
 664 460 664 460 696 449 c 1
 711 432 l 1
 707 399 707 399 704.5 367.5 c 0
 702 336 702 336 702 304 c 2
 702 283 l 1
 702 262 l 1
 702 248 l 1
 702 234 l 2
 702 217 702 217 702.5 200 c 0
 703 183 703 183 703 166 c 0
 704 134 704 134 704.5 101 c 0
 705 68 705 68 705 33 c 1
 699 34 699 34 692 34 c 2
 678 34 l 2
 642 34 642 34 602.5 29 c 0
 563 24 563 24 523 17 c 0
 515 15 515 15 507.5 14 c 0
 500 13 500 13 492 12 c 0
 459 7 459 7 427 3.5 c 0
 395 0 395 0 365 0 c 0
 296 0 296 0 236.5 26 c 0
 177 52 177 52 138 130 c 1
 99 179 99 179 66.5 233.5 c 0
 34 288 34 288 34 349 c 2
 34 349.5 l 1
 34 351 l 1
 34 352.5 l 1
 34 353 l 1
 51 495 51 495 154 610 c 0
 257 725 257 725 384 780 c 1
 620 666 l 1
 620 666 l 1
418 653 m 1
 419 655 419 655 419.5 657 c 0
 420 659 420 659 419 660 c 0
 419 666 419 666 414.5 669 c 0
 410 672 410 672 403 672 c 2
 402.5 672 l 1
 401 672 l 1
 399.5 672 l 1
 398 672 l 2
 397 671 397 671 396.5 671 c 2
 395 671 l 1
 306 612 306 612 235.5 536.5 c 0
 165 461 165 461 135 358 c 1
 146 311 146 311 168.5 268.5 c 0
 191 226 191 226 227 191 c 1
 260 136 260 136 312 117.5 c 0
 364 99 364 99 420 100 c 2
 433.5 100 l 1
 447 101 l 2
 469 102 469 102 490.5 104 c 0
 512 106 512 106 534 110 c 0
 552 112 552 112 569 114 c 0
 586 116 586 116 602 117 c 1
 604 386 l 1
 583 385 l 1
 584 144 l 1
 558 131 558 131 528 127.5 c 0
 498 124 498 124 467 124 c 0
 457 124 457 124 446 124.5 c 0
 435 125 435 125 424 125 c 0
 414 125 414 125 403.5 125.5 c 0
 393 126 393 126 384 126 c 2
 369.5 126 l 1
 355 125 l 1
 289 162 289 162 232 223.5 c 0
 175 285 175 285 164 359 c 1
 199 453 199 453 265.5 526 c 0
 332 599 332 599 418 653 c 1
 418 653 l 1
EndSplineSet
Validated: 524325
EndChar

StartChar: i
Encoding: 77 104 74
Width: 835
Flags: W
LayerCount: 2
Fore
SplineSet
292 777 m 1
 317 516 l 1
 334 512 334 512 352.5 509.5 c 0
 371 507 371 507 389 507 c 0
 408 507 408 507 428.5 509 c 0
 449 511 449 511 468 513 c 2
 474 513 l 1
 479 514 l 2
 496 515 496 515 513.5 516.5 c 0
 531 518 531 518 548 518 c 1
 557 777 l 1
 798 774 l 1
 794 6 l 1
 769 4 769 4 743.5 2.5 c 0
 718 1 718 1 692 1 c 0
 681 0 681 0 670.5 0 c 2
 650 0 l 2
 618 0 618 0 588 2 c 0
 558 4 558 4 529 9 c 1
 534 51 534 51 538.5 93 c 0
 543 135 543 135 543 179 c 0
 543 198 543 198 542 218 c 0
 541 238 541 238 539 258 c 1
 511 263 511 263 481.5 265.5 c 0
 452 268 452 268 422 269 c 0
 410 270 410 270 398 270 c 2
 374 270 l 1
 347 270 l 1
 319 269 l 1
 307 256 l 1
 286 2 l 1
 60 5 l 1
 58 68 58 68 57.5 130.5 c 0
 57 193 57 193 57 254 c 0
 56 273 56 273 56 293.5 c 2
 56 334 l 2
 56 389 56 389 55 444 c 0
 54 499 54 499 52 553 c 0
 50 607 50 607 47 662 c 0
 44 717 44 717 38 772 c 1
 48 780 l 1
 292 777 l 1
 292 777 l 1
196 679 m 1
 170 681 l 1
 172 611 172 611 173 542 c 0
 174 473 174 473 174 403 c 0
 174 328 174 328 173 255 c 0
 172 182 172 182 170 110 c 0
 172 109 172 109 174 107.5 c 0
 176 106 176 106 179 106 c 0
 181 105 181 105 183 105 c 2
 187 105 l 1
 190 105 l 1
 194 106 l 1
 195.5 106 l 1
 196 106 l 1
 197 136 197 136 197 163.5 c 2
 197 218 l 1
 197 226.5 l 1
 197 236 l 1
 199 306 l 1
 203 381 l 1
 658 379 l 1
 659 347 659 347 659 317.5 c 0
 659 288 659 288 658 259 c 2
 658 229.5 l 1
 658 200 l 1
 658 185 l 1
 658 169 l 1
 658 157.5 l 1
 658 145 l 2
 658 134 658 134 658.5 122.5 c 0
 659 111 659 111 659 98 c 1
 660 98 660 98 661.5 97.5 c 0
 663 97 663 97 664 97 c 2
 665 97 l 1
 667 97 l 1
 669 97 l 1
 671 97 l 2
 674 98 674 98 677.5 99.5 c 0
 681 101 681 101 683 103 c 0
 684 137 684 137 684.5 170.5 c 0
 685 204 685 204 685 238 c 0
 686 263 686 263 686.5 286.5 c 0
 687 310 687 310 687 334 c 0
 688 378 688 378 688.5 421.5 c 0
 689 465 689 465 689 508 c 0
 689 521 689 521 688.5 535 c 0
 688 549 688 549 688 562 c 0
 688 589 688 589 687.5 616 c 0
 687 643 687 643 686 670 c 1
 663 670 l 1
 663 403 l 1
 223 404 l 1
 203 418 l 1
 202 447 202 447 202 472.5 c 2
 202 522 l 1
 202 538.5 l 1
 202 555 l 2
 202 585 202 585 201 614.5 c 0
 200 644 200 644 196 679 c 1
 196 679 l 1
EndSplineSet
Validated: 524293
EndChar

StartChar: j
Encoding: 78 105 75
Width: 366
Flags: W
LayerCount: 2
Fore
SplineSet
41 769 m 1
 55 770 55 770 70 771 c 0
 85 772 85 772 99 773 c 0
 101 773 101 773 102.5 773.5 c 0
 104 774 104 774 106 774 c 0
 138 776 138 776 171 778 c 0
 204 780 204 780 238 780 c 0
 258 780 258 780 278 779 c 0
 298 778 298 778 319 776 c 1
 319 718 319 718 317 658 c 0
 315 598 315 598 314 538 c 0
 313 515 313 515 312.5 493 c 0
 312 471 312 471 311 449 c 0
 310 404 310 404 309 358.5 c 0
 308 313 308 313 308 268 c 0
 308 202 308 202 310.5 139 c 0
 313 76 313 76 321 15 c 1
 303 14 303 14 283 12 c 2
 243 8 l 2
 231 6 231 6 218 5 c 0
 205 4 205 4 193 3 c 0
 179 2 179 2 163.5 1 c 0
 148 0 148 0 134 0 c 0
 111 0 111 0 89 2.5 c 0
 67 5 67 5 46 12 c 1
 51 113 51 113 55 205.5 c 0
 59 298 59 298 59 389 c 2
 59 409 l 1
 59 429 l 2
 59 510 59 510 55 593.5 c 0
 51 677 51 677 41 769 c 1
 41 769 l 1
202 634 m 1
 203 637 203 637 203.5 640.5 c 0
 204 644 204 644 204 648 c 2
 204 649.5 l 1
 204 651 l 2
 203 661 203 661 198.5 669.5 c 0
 194 678 194 678 183 678 c 0
 181 678 181 678 178 677 c 0
 175 676 175 676 171 674 c 1
 171 111 l 1
 195 111 l 1
 202 634 l 1
 202 634 l 1
EndSplineSet
Validated: 524293
EndChar

StartChar: k
Encoding: 79 106 76
Width: 579
Flags: W
LayerCount: 2
Fore
SplineSet
547 780 m 1
 550 711 550 711 551.5 649.5 c 0
 553 588 553 588 553 528 c 2
 553 501.5 l 1
 553 475 l 2
 553 399 553 399 549 321 c 0
 545 243 545 243 538 154 c 1
 484 77 484 77 403.5 38.5 c 0
 323 0 323 0 232 0 c 0
 203 0 203 0 175 3.5 c 0
 147 7 147 7 119 14 c 2
 84 25 l 1
 74 83 74 83 59.5 137 c 0
 45 191 45 191 27 245 c 1
 35 249 35 249 42.5 250 c 0
 50 251 50 251 57 251 c 0
 68 251 68 251 80 249 c 2
 104 245 l 2
 114 243 114 243 124.5 241 c 0
 135 239 135 239 146 239 c 2
 152 239 l 1
 157 240 l 2
 159 240 159 240 161.5 240.5 c 0
 164 241 164 241 167 241 c 0
 202 248 202 248 233 259 c 0
 264 270 264 270 285 302 c 1
 289 326 289 326 290.5 347.5 c 0
 292 369 292 369 292 390 c 0
 292 427 292 427 288.5 462.5 c 0
 285 498 285 498 280 534 c 0
 279 542 279 542 277.5 550.5 c 0
 276 559 276 559 275 568 c 0
 268 612 268 612 263 657.5 c 0
 258 703 258 703 258 751 c 2
 258 757.5 l 1
 258 764 l 1
 258 770.5 l 1
 258 777 l 1
 547 780 l 1
 547 780 l 1
436 679 m 1
 397 679 l 1
 398 636 398 636 398.5 593 c 0
 399 550 399 550 401 506 c 2
 401 503 l 1
 401 499 l 2
 402 431 402 431 404 364 c 0
 406 297 406 297 406 231 c 1
 365 185 365 185 311.5 162 c 0
 258 139 258 139 201 139 c 2
 188.5 139 l 1
 176 140 l 2
 169 140 169 140 163 141 c 2
 151 143 l 1
 151 121 l 1
 160 111 160 111 173 107 c 0
 186 103 186 103 202 103 c 2
 208 103 l 1
 214 103 l 1
 220 103.5 l 1
 226 104 l 2
 232 104 232 104 238.5 104.5 c 0
 245 105 245 105 250 105 c 2
 254.5 105 l 1
 258 105 l 2
 264 108 264 108 271.5 111 c 0
 279 114 279 114 286 116 c 0
 295 120 295 120 305 123.5 c 0
 315 127 315 127 326 130 c 0
 366 145 366 145 400.5 168 c 0
 435 191 435 191 445 236 c 1
 436 679 l 1
 436 679 l 1
EndSplineSet
Validated: 524293
EndChar

StartChar: l
Encoding: 80 107 77
Width: 803
Flags: W
LayerCount: 2
Fore
SplineSet
762 689 m 1
 762 667 l 1
 738 641 738 641 715.5 616.5 c 0
 693 592 693 592 671 568 c 0
 655 550 655 550 638 533 c 2
 604 499 l 2
 572 467 572 467 539.5 434 c 0
 507 401 507 401 472 368 c 1
 472 355 l 1
 767 113 l 1
 767 95 l 1
 555 0 l 1
 532 5 l 1
 492 56 492 56 443 102 c 0
 394 148 394 148 343 186 c 0
 329 197 329 197 314.5 207 c 0
 300 217 300 217 286 226 c 1
 282 199 282 199 279 171.5 c 0
 276 144 276 144 274 117 c 0
 273 99 273 99 273 80 c 2
 273 43 l 1
 273 29 l 1
 273 14 l 1
 254 9 254 9 235.5 7 c 0
 217 5 217 5 199 5 c 0
 190 5 190 5 181 5.5 c 0
 172 6 172 6 164 6 c 0
 159 7 159 7 153 7.5 c 0
 147 8 147 8 142 8 c 0
 126 9 126 9 109 10 c 0
 92 11 92 11 75 11 c 2
 66.5 11 l 1
 58 11 l 1
 50 10.5 l 1
 42 10 l 1
 38 55 38 55 37.5 105.5 c 0
 37 156 37 156 38 207 c 2
 38 211 l 1
 38 215 l 1
 38 241.5 l 1
 38 268 l 2
 38 274 38 274 37.5 281 c 0
 37 288 37 288 37 295 c 2
 37 308.5 l 1
 37 322 l 2
 36 360 36 360 36.5 400 c 0
 37 440 37 440 37 481 c 0
 37 499 37 499 37.5 518 c 0
 38 537 38 537 38 555 c 2
 38 567.5 l 1
 38 582 l 2
 38 630 38 630 36.5 677.5 c 0
 35 725 35 725 30 770 c 1
 284 770 l 1
 284 766 284 766 284.5 762 c 0
 285 758 285 758 285 755 c 2
 285 746.5 l 1
 285 738 l 2
 285 722 285 722 284 706 c 2
 282 674 l 2
 280 658 280 658 279 642 c 0
 278 626 278 626 278 610 c 0
 278 600 278 600 279 589.5 c 0
 280 579 280 579 281 568 c 0
 283 557 283 557 285.5 547 c 0
 288 537 288 537 292 525 c 1
 363 575 363 575 416.5 638 c 0
 470 701 470 701 520 770 c 0
 522 773 522 773 523.5 775.5 c 0
 525 778 525 778 527 780 c 2
 762 689 l 1
 762 689 l 1
174 689 m 1
 147 689 l 1
 146 635 146 635 145 578 c 0
 144 521 144 521 144 464 c 0
 145 375 145 375 146.5 282 c 0
 148 189 148 189 151 95 c 1
 155 97 155 97 158 98 c 0
 161 99 161 99 164 99 c 0
 166 99 166 99 167.5 98.5 c 0
 169 98 169 98 170 97 c 2
 173 95.5 l 1
 174 95 l 1
 174 122.5 l 1
 174 156 l 2
 174 168 174 168 174.5 180.5 c 0
 175 193 175 193 175 205 c 0
 176 234 176 234 177.5 260.5 c 0
 179 287 179 287 182 307 c 1
 197 316.5 l 2
 212 326 212 326 234 336 c 0
 241 340 241 340 250 344 c 0
 259 348 259 348 268 351 c 0
 270 352 270 352 272.5 353 c 0
 275 354 275 354 279 355 c 0
 290 346 290 346 301 337.5 c 0
 312 329 312 329 324 319 c 0
 387 270 387 270 447.5 218.5 c 0
 508 167 508 167 563 108 c 1
 596 105 l 1
 566 146 566 146 527 181.5 c 0
 488 217 488 217 446 252 c 0
 442 254 442 254 439 257 c 0
 436 260 436 260 432 263 c 0
 399 290 399 290 366.5 318 c 0
 334 346 334 346 306 378 c 1
 322 391 322 391 339.5 404.5 c 0
 357 418 357 418 374 430 c 0
 376 432 376 432 378 433.5 c 0
 380 435 380 435 382 437 c 0
 444 484 444 484 503.5 535.5 c 0
 563 587 563 587 606 654 c 1
 592 663 l 1
 578 649 578 649 563.5 633.5 c 0
 549 618 549 618 536 605 c 0
 527 595 527 595 517 585 c 2
 497 565 l 2
 477 546 477 546 455.5 526 c 0
 434 506 434 506 410 485 c 0
 356 440 356 440 298.5 399 c 0
 241 358 241 358 177 339 c 1
 176 359 176 359 175 382.5 c 0
 174 406 174 406 174 428 c 0
 174 445 174 445 174.5 463.5 c 0
 175 482 175 482 175 501 c 2
 175 509.5 l 1
 176 519 l 2
 176 542 176 542 176.5 564.5 c 0
 177 587 177 587 177 608 c 0
 177 630 177 630 176.5 650.5 c 0
 176 671 176 671 174 689 c 1
 174 689 l 1
EndSplineSet
Validated: 524325
EndChar

StartChar: m
Encoding: 81 108 78
Width: 584
Flags: W
LayerCount: 2
Fore
SplineSet
302 770 m 1
 302 220 l 1
 320 215 320 215 338.5 213 c 0
 357 211 357 211 376 211 c 0
 400 211 400 211 423 213.5 c 0
 446 216 446 216 470 220 c 0
 493 223 493 223 515 225.5 c 0
 537 228 537 228 559 228 c 1
 556 211 556 211 551 194 c 0
 546 177 546 177 539 160 c 0
 534 147 534 147 527.5 133 c 0
 521 119 521 119 516 104 c 0
 505 79 505 79 495 54.5 c 0
 485 30 485 30 478 3 c 1
 34 0 l 1
 27 17 l 1
 36 85 36 85 40 156.5 c 0
 44 228 44 228 45 300 c 2
 45 320.5 l 1
 45 341 l 2
 45 454 45 454 39.5 563 c 0
 34 672 34 672 27 770 c 1
 39 780 l 1
 302 770 l 1
 302 770 l 1
185 672 m 1
 157 672 l 1
 150 97 l 1
 406 92 l 2
 408 92 408 92 410 93 c 0
 412 94 412 94 415 95 c 2
 421.5 101.5 l 1
 428 110 l 2
 429 112 429 112 429.5 114 c 0
 430 116 430 116 430 118 c 2
 430 119.5 l 1
 429 121 l 1
 422 122 422 122 415 122 c 2
 399 122 l 2
 385 122 385 122 369.5 121.5 c 0
 354 121 354 121 339 120 c 0
 331 120 331 120 323 119.5 c 0
 315 119 315 119 307 119 c 0
 299 118 299 118 291.5 118 c 2
 275 118 l 2
 252 118 252 118 232 120 c 0
 212 122 212 122 193 126 c 1
 192 155 192 155 190.5 184.5 c 0
 189 214 189 214 189 245 c 0
 189 276 189 276 189.5 307 c 0
 190 338 190 338 191 370 c 2
 191 408 l 1
 193 446 l 1
 193 472 l 1
 193 498 l 2
 193 543 193 543 191 586.5 c 0
 189 630 189 630 185 672 c 1
 185 672 l 1
EndSplineSet
Validated: 524293
EndChar

StartChar: n
Encoding: 82 109 79
Width: 1083
Flags: W
LayerCount: 2
Fore
SplineSet
640 779 m 1
 646 778 646 778 653 777 c 0
 660 776 660 776 668 776 c 0
 676 776 676 776 685 776.5 c 0
 694 777 694 777 703 778 c 0
 711 779 711 779 720.5 779.5 c 0
 730 780 730 780 738 780 c 0
 760 780 760 780 777.5 774 c 0
 795 768 795 768 802 748 c 0
 824 654 824 654 854.5 563.5 c 0
 885 473 885 473 916 384 c 0
 918 379 918 379 920 374.5 c 0
 922 370 922 370 924 365 c 0
 956 278 956 278 985 190 c 0
 1014 102 1014 102 1034 10 c 1
 1016 2 l 1
 987 2 l 1
 956 1 l 1
 932.5 1 l 1
 908 1 l 2
 873 1 873 1 839.5 2 c 0
 806 3 806 3 776 7 c 1
 764 37 764 37 758.5 68.5 c 0
 753 100 753 100 749 132 c 0
 748 134 748 134 748 136 c 2
 748 140 l 1
 743 176 743 176 735 211.5 c 0
 727 247 727 247 711 280 c 1
 697 252 697 252 684.5 223 c 0
 672 194 672 194 662 165 c 0
 659 157 659 157 655.5 149 c 0
 652 141 652 141 649 133 c 0
 637 99 637 99 624 66.5 c 0
 611 34 611 34 595 2 c 0
 592 3 592 3 587.5 3.5 c 0
 583 4 583 4 579 4 c 2
 574.5 4 l 1
 570 4 l 2
 561 4 561 4 552 3.5 c 0
 543 3 543 3 534 2 c 0
 525 1 525 1 515.5 0.5 c 0
 506 0 506 0 497 0 c 0
 469 0 469 0 449 11.5 c 0
 429 23 429 23 430 57 c 2
 430 61 l 1
 430 66 l 1
 420 84 420 84 412 104.5 c 0
 404 125 404 125 398 146 c 0
 397 150 397 150 395.5 154 c 0
 394 158 394 158 393 161 c 0
 384 191 384 191 374 218 c 0
 364 245 364 245 347 264 c 1
 331 202 331 202 316.5 138 c 0
 302 74 302 74 295 7 c 1
 264 4 264 4 233 2.5 c 0
 202 1 202 1 170 1 c 0
 139 1 139 1 109 2.5 c 0
 79 4 79 4 49 7 c 1
 63 94 63 94 84 180 c 0
 105 266 105 266 127 351 c 2
 131 367 l 1
 135 383 l 2
 160 476 160 476 182.5 570 c 0
 205 664 205 664 221 760 c 1
 233 774 l 1
 390 769 l 1
 407 714 407 714 426 659 c 0
 445 604 445 604 466 550 c 0
 471 535 471 535 477 519 c 0
 483 503 483 503 488 487 c 0
 492 475 492 475 497 463.5 c 0
 502 452 502 452 506 440 c 1
 522 446 l 1
 537 483 537 483 549.5 520.5 c 0
 562 558 562 558 574 596 c 0
 575 600 575 600 577 604 c 0
 579 608 579 608 580 613 c 0
 593 655 593 655 607.5 696.5 c 0
 622 738 622 738 640 779 c 1
 640 779 l 1
528 177 m 1
 488.5 268 l 2
 449 359 449 359 401 469 c 0
 378 521 378 521 356.5 571.5 c 0
 335 622 335 622 317 662 c 1
 299 590 299 590 280 518.5 c 0
 261 447 261 447 242 377 c 0
 223 305 223 305 203.5 234 c 0
 184 163 184 163 166 92 c 1
 194 92 l 1
 203 132 203 132 213 170.5 c 0
 223 209 223 209 234 248 c 0
 236 256 236 256 239 264.5 c 0
 242 273 242 273 244 283 c 0
 262 352 262 352 279 420 c 0
 296 488 296 488 307 560 c 1
 325 593 l 1
 341 553 341 553 359 513 c 2
 395 433 l 2
 429 356 429 356 462.5 279.5 c 0
 496 203 496 203 522 123 c 1
 535 120 l 1
 578 229 578 229 614.5 340.5 c 0
 651 452 651 452 686 564 c 1
 700 588 l 1
 707 563 707 563 733 491.5 c 0
 759 420 759 420 787 339 c 0
 817 256 817 256 843 184.5 c 0
 869 113 869 113 876 93 c 1
 878 92.5 l 2
 880 92 880 92 883 91 c 0
 884 91 884 91 886 90.5 c 0
 888 90 888 90 890 90 c 2
 894 90 l 1
 898 90 l 2
 903 90 903 90 904.5 91.5 c 0
 906 93 906 93 901 97 c 0
 891 114 891 114 856 210 c 0
 821 306 821 306 781 419 c 2
 779 425 l 1
 777 431 l 2
 755 491 755 491 735 549.5 c 0
 715 608 715 608 698 655 c 1
 528 177 l 1
 528 177 l 1
EndSplineSet
Validated: 524325
EndChar

StartChar: o
Encoding: 83 110 80
Width: 827
Flags: W
LayerCount: 2
Fore
SplineSet
38 777 m 1
 52 779 52 779 66.5 779.5 c 0
 81 780 81 780 94 780 c 0
 116 780 116 780 137 778.5 c 0
 158 777 158 777 179 776 c 0
 193 775 193 775 207.5 774 c 0
 222 773 222 773 237 772 c 1
 270 717 270 717 313.5 665.5 c 0
 357 614 357 614 404 565 c 0
 432 536 432 536 458.5 507.5 c 0
 485 479 485 479 510 452 c 2
 518 442 l 1
 526 432 l 1
 540 432 l 1
 545 459 545 459 547 485.5 c 0
 549 512 549 512 549 539 c 0
 549 566 549 566 547.5 591.5 c 0
 546 617 546 617 545 644 c 0
 543 671 543 671 541.5 697.5 c 0
 540 724 540 724 540 750 c 1
 560 753 560 753 580 755.5 c 0
 600 758 600 758 621 760 c 0
 661 766 661 766 701 771 c 0
 741 776 741 776 781 780 c 1
 788 763 l 1
 781 674 781 674 778 577 c 0
 775 480 775 480 775 382 c 0
 775 284 775 284 777 187.5 c 0
 779 91 779 91 781 6 c 1
 758 3 758 3 732.5 1.5 c 0
 707 0 707 0 680 0 c 0
 654 0 654 0 628 1.5 c 0
 602 3 602 3 578 6 c 1
 560 29 560 29 542 51.5 c 0
 524 74 524 74 507 96 c 0
 502 102 502 102 497 109 c 0
 492 116 492 116 487 122 c 0
 441 182 441 182 393.5 239 c 0
 346 296 346 296 288 341 c 1
 282 6 l 1
 50 6 l 1
 48 12 48 12 47 19 c 0
 46 26 46 26 46 33 c 0
 46 41 46 41 47 49 c 0
 48 57 48 57 49 66 c 2
 49 68.5 l 1
 49 71 l 2
 50 78 50 78 50.5 85 c 0
 51 92 51 92 51 99 c 2
 51 102.5 l 1
 51 106 l 1
 50.5 110 l 1
 50 114 l 1
 51 188 51 188 50.5 264 c 0
 50 340 50 340 49 416 c 0
 48 508 48 508 45 599 c 0
 42 690 42 690 38 777 c 1
 38 777 l 1
645 160 m 1
 597 205 597 205 551.5 254.5 c 0
 506 304 506 304 461 356 c 0
 443 376 443 376 425 397.5 c 0
 407 419 407 419 388 439 c 0
 334 501 334 501 276 563.5 c 0
 218 626 218 626 154 682 c 1
 153 659 153 659 153 636 c 2
 153 590 l 2
 153 547 153 547 154 503.5 c 0
 155 460 155 460 156 416 c 2
 156 397 l 1
 157 377 l 1
 159 271 l 1
 160 167 l 1
 160 129.5 l 1
 159 92 l 1
 162.5 92 l 1
 165 92 l 2
 167 91 167 91 168.5 91 c 2
 171 91 l 2
 174 91 174 91 177 92 c 0
 180 93 180 93 181 96 c 2
 181 613 l 1
 233 557 233 557 284 504.5 c 0
 335 452 335 452 383 399 c 0
 432 348 432 348 479 296 c 0
 526 244 526 244 573 188 c 0
 592 164 592 164 612.5 140.5 c 0
 633 117 633 117 653 92 c 1
 673 92 l 1
 673 677 l 1
 672.5 677 l 1
 671 677 l 1
 669.5 677 l 1
 669 677 l 2
 662 677 662 677 657 673.5 c 0
 652 670 652 670 650 665 c 2
 645 160 l 1
 645 160 l 1
EndSplineSet
Validated: 524325
EndChar

StartChar: p
Encoding: 84 111 81
Width: 888
Flags: W
LayerCount: 2
Fore
SplineSet
266 757 m 1
 306 766 306 766 349 772 c 0
 392 778 392 778 436 780 c 2
 448.5 780 l 1
 461 780 l 2
 558 780 558 780 647 744.5 c 0
 736 709 736 709 790 610 c 1
 823 572 823 572 835.5 525.5 c 0
 848 479 848 479 848 430 c 0
 848 417 848 417 847.5 404 c 0
 847 391 847 391 845 378 c 0
 841 335 841 335 831 292.5 c 0
 821 250 821 250 811 213 c 0
 810 210 810 210 809.5 207.5 c 0
 809 205 809 205 808 203 c 0
 764 130 764 130 693.5 69.5 c 0
 623 9 623 9 537 0 c 1
 422 2 422 2 317.5 23 c 0
 213 44 213 44 143 138 c 1
 90 188 90 188 66.5 254.5 c 0
 43 321 43 321 41 390 c 2
 41 395.5 l 1
 41 400 l 2
 41 427 41 427 43.5 452.5 c 0
 46 478 46 478 51 503 c 0
 76 586 76 586 130.5 653 c 0
 185 720 185 720 266 757 c 1
 266 757 l 1
692 572 m 1
 650 616 650 616 603 643.5 c 0
 556 671 556 671 502 683 c 0
 486 686 486 686 470 687.5 c 0
 454 689 454 689 437 689 c 0
 390 689 390 689 346 674 c 0
 302 659 302 659 266 629 c 0
 209 585 209 585 178.5 520 c 0
 148 455 148 455 148 382 c 0
 148 374 148 374 149 365 c 0
 150 356 150 356 151 348 c 0
 151 339 151 339 152.5 330.5 c 0
 154 322 154 322 156 313 c 0
 184 226 184 226 255.5 170 c 0
 327 114 327 114 416 102 c 0
 424 101 424 101 432 101 c 2
 447 101 l 2
 541 101 541 101 618.5 149 c 0
 696 197 696 197 738 282 c 1
 745 308 745 308 749 334 c 0
 753 360 753 360 753 388 c 0
 753 439 753 439 738.5 487 c 0
 724 535 724 535 692 572 c 1
 692 572 l 1
498 657 m 1
 543 651 543 651 583 625.5 c 0
 623 600 623 600 654 569 c 0
 657 567 657 567 660 564.5 c 0
 663 562 663 562 665 560 c 0
 694 522 694 522 709.5 475 c 0
 725 428 725 428 725 379 c 0
 725 371 725 371 724 362 c 0
 723 353 723 353 722 345 c 0
 721 336 721 336 719.5 327 c 0
 718 318 718 318 716 310 c 0
 694 239 694 239 633 192.5 c 0
 572 146 572 146 503 133 c 0
 498 132 498 132 492 131 c 2
 480 129 l 1
 477.5 129 l 1
 475 129 l 1
 472 129 l 1
 469 129 l 2
 462 129 462 129 454 129.5 c 0
 446 130 446 130 439 130 c 0
 367 136 367 136 302.5 172 c 0
 238 208 238 208 202 276 c 0
 189 300 189 300 183 327 c 0
 177 354 177 354 177 383 c 2
 177 391.5 l 1
 178 401 l 2
 180 439 180 439 192.5 476 c 0
 205 513 205 513 225 542 c 0
 270 597 270 597 324.5 630 c 0
 379 663 379 663 445 663 c 2
 454 663 l 1
 463 662 l 2
 471 662 471 662 479.5 660.5 c 0
 488 659 488 659 498 657 c 1
 498 657 l 1
612 467 m 1
 589 512 589 512 545 538.5 c 0
 501 565 501 565 452 568 c 2
 447 568 l 1
 441 568 l 2
 409 568 409 568 380 557.5 c 0
 351 547 351 547 328 525 c 0
 301 499 301 499 285.5 466.5 c 0
 270 434 270 434 270 397 c 0
 270 387 270 387 271.5 375.5 c 0
 273 364 273 364 276 352 c 0
 302 304 302 304 347 263 c 0
 392 222 392 222 445 218 c 1
 487 220 487 220 523 239.5 c 0
 559 259 559 259 590 288 c 0
 610 307 610 307 619 333.5 c 0
 628 360 628 360 628 389 c 0
 628 409 628 409 624.5 429.5 c 0
 621 450 621 450 612 467 c 1
 612 467 l 1
EndSplineSet
Validated: 524289
EndChar

